<svg xmlns="http://www.w3.org/2000/svg" xmlns:xlink="http://www.w3.org/1999/xlink" viewBox="0 0 700 273"><defs><style>.cls-1{isolation:isolate;}.cls-2{mask:url(#mask);}.cls-3{fill:#b6e0f4;}.cls-4{mask:url(#mask-2);}.cls-5{fill:#fdd08c;}.cls-6{mask:url(#mask-3);}.cls-7{fill:#abd9ab;}.cls-8{mask:url(#mask-4);}.cls-9{mask:url(#mask-5);}.cls-10{fill:#e4f2fb;}.cls-11{fill:#95c8ec;}.cls-12{fill:#338dc9;}.cls-13{fill:#0071bc;}.cls-14{fill:#73c073;}.cls-15,.cls-16{fill:#f7f7f7;}.cls-15{opacity:0.2;mix-blend-mode:screen;}.cls-17{fill:#e0594b;}.cls-18{fill:#e8ae38;}.cls-19{fill:#e15b5f;}.cls-20{fill:#546e7a;}.cls-21{fill:#fff;}.cls-22{fill:#69af69;}.cls-23{fill:#bdddf4;}.cls-24{fill:none;stroke:#546e7a;stroke-width:5px;}.cls-24,.cls-28{stroke-miterlimit:10;}.cls-25{fill:#293e40;}.cls-26{fill:#f4c04d;}.cls-27{fill:#b0bec5;}.cls-28{fill:#303a46;stroke:#838990;stroke-width:0.33px;}.cls-29{fill:#fbb040;}.cls-30{fill:#003749;}.cls-31{fill:#48a4d8;}.cls-32{fill:#4b6c7e;}.cls-33{fill:#f2a24c;}.cls-34{fill:#698a9e;}.cls-35{filter:url(#luminosity-noclip-5);}.cls-36{filter:url(#luminosity-noclip-4);}.cls-37{filter:url(#luminosity-noclip-3);}.cls-38{filter:url(#luminosity-noclip-2);}.cls-39{filter:url(#luminosity-noclip);}</style><filter id="luminosity-noclip" x="323.1" y="-8835" width="61.89" height="32766" filterUnits="userSpaceOnUse" color-interpolation-filters="sRGB"><feFlood flood-color="#fff" result="bg"/><feBlend in="SourceGraphic" in2="bg"/></filter><mask id="mask" x="323.1" y="-8835" width="61.89" height="32766" maskUnits="userSpaceOnUse"><g class="cls-39"/></mask><filter id="luminosity-noclip-2" x="104" y="-8835" width="47.99" height="32766" filterUnits="userSpaceOnUse" color-interpolation-filters="sRGB"><feFlood flood-color="#fff" result="bg"/><feBlend in="SourceGraphic" in2="bg"/></filter><mask id="mask-2" x="104" y="-8835" width="47.99" height="32766" maskUnits="userSpaceOnUse"><g class="cls-38"/></mask><filter id="luminosity-noclip-3" x="518.1" y="-8835" width="61.89" height="32766" filterUnits="userSpaceOnUse" color-interpolation-filters="sRGB"><feFlood flood-color="#fff" result="bg"/><feBlend in="SourceGraphic" in2="bg"/></filter><mask id="mask-3" x="518.1" y="-8835" width="61.89" height="32766" maskUnits="userSpaceOnUse"><g class="cls-37"/></mask><filter id="luminosity-noclip-4" x="44.93" y="-8835" width="55.07" height="32766" filterUnits="userSpaceOnUse" color-interpolation-filters="sRGB"><feFlood flood-color="#fff" result="bg"/><feBlend in="SourceGraphic" in2="bg"/></filter><mask id="mask-4" x="44.93" y="-8835" width="55.07" height="32766" maskUnits="userSpaceOnUse"><g class="cls-36"/></mask><filter id="luminosity-noclip-5" x="609.92" y="-8835" width="50.08" height="32766" filterUnits="userSpaceOnUse" color-interpolation-filters="sRGB"><feFlood flood-color="#fff" result="bg"/><feBlend in="SourceGraphic" in2="bg"/></filter><mask id="mask-5" x="609.92" y="-8835" width="50.08" height="32766" maskUnits="userSpaceOnUse"><g class="cls-35"/></mask></defs><title>Data management</title><g class="cls-1"><g id="Layer_1" data-name="Layer 1"><g class="cls-2"><polygon class="cls-3" points="374.41 36.08 363.82 44.2 363.82 35.66 323.1 35.66 323.1 20.25 363.82 20.25 363.82 11.71 374.41 19.83 384.99 27.96 374.41 36.08"/></g><g class="cls-4"><polygon class="cls-5" points="143.78 91.61 135.58 97.91 135.58 91.28 104 91.28 104 79.33 135.58 79.33 135.58 72.71 143.78 79.01 151.99 85.31 143.78 91.61"/></g><g class="cls-6"><polygon class="cls-7" points="528.68 68.83 539.27 60.71 539.27 69.25 579.99 69.25 579.99 84.66 539.27 84.66 539.27 93.2 528.68 85.08 518.1 76.96 528.68 68.83"/></g><g class="cls-8"><polygon class="cls-7" points="89.19 186.9 78.37 195.2 78.37 186.48 44.93 186.48 44.93 170.73 78.37 170.73 78.37 162 89.19 170.3 100 178.6 89.19 186.9"/></g><g class="cls-9"><polygon class="cls-10" points="619.76 134.06 629.59 126.51 629.59 134.45 660 134.45 660 148.77 629.59 148.77 629.59 156.7 619.76 149.16 609.92 141.61 619.76 134.06"/></g></g><g id="Layer_2" data-name="Layer 2"><path class="cls-11" d="M308,21.68a6.53,6.53,0,0,0-6.53-6.53H169.25a6.53,6.53,0,0,0-6.53,6.53V220.82H308Z"/><path class="cls-12" d="M162.72,220.82v32.65a6.53,6.53,0,0,0,6.53,6.53H301.47a6.53,6.53,0,0,0,6.53-6.53V220.82Z"/><rect class="cls-13" x="169.25" y="227.35" width="132.22" height="26.12"/><rect class="cls-12" x="177.41" y="119.62" width="117.53" height="32.65"/><rect class="cls-12" x="177.41" y="77.18" width="117.53" height="32.65"/><rect class="cls-12" x="177.41" y="34.73" width="117.53" height="32.65"/><rect class="cls-13" x="263.93" y="119.62" width="31.01" height="32.65"/><rect class="cls-13" x="263.93" y="77.18" width="31.01" height="32.65"/><rect class="cls-13" x="263.93" y="34.73" width="31.01" height="32.65"/><rect class="cls-13" x="188.84" y="44.53" width="66.93" height="3.26"/><rect class="cls-13" x="188.84" y="51.06" width="66.93" height="3.26"/><rect class="cls-13" x="188.84" y="57.59" width="66.93" height="3.26"/><circle class="cls-14" cx="279.16" cy="52.69" r="6.53"/><path class="cls-15" d="M280.32,46.28a6.49,6.49,0,0,1-5.57,11.19,6.52,6.52,0,1,0,5.57-11.19Z"/><circle class="cls-16" cx="276.44" cy="50.51" r="1.36"/><rect class="cls-13" x="188.84" y="85.34" width="66.93" height="3.26"/><rect class="cls-13" x="188.84" y="91.87" width="66.93" height="3.26"/><rect class="cls-13" x="188.84" y="98.4" width="66.93" height="3.26"/><circle class="cls-17" cx="279.16" cy="93.5" r="6.53"/><path class="cls-15" d="M280.32,87.09a6.49,6.49,0,0,1-5.57,11.19,6.52,6.52,0,1,0,5.57-11.19Z"/><circle class="cls-16" cx="276.44" cy="91.32" r="1.36"/><rect class="cls-13" x="188.84" y="127.78" width="66.93" height="3.26"/><rect class="cls-13" x="188.84" y="134.31" width="66.93" height="3.26"/><rect class="cls-13" x="188.84" y="140.84" width="66.93" height="3.26"/><circle class="cls-18" cx="279.16" cy="135.94" r="6.53"/><path class="cls-15" d="M280.32,129.53a6.49,6.49,0,0,1-5.57,11.19,6.52,6.52,0,1,0,5.57-11.19Z"/><circle class="cls-16" cx="276.44" cy="133.76" r="1.36"/><rect class="cls-12" x="177.41" y="162.06" width="117.53" height="32.65"/><rect class="cls-13" x="263.93" y="162.06" width="31.01" height="32.65"/><rect class="cls-13" x="188.84" y="170.22" width="66.93" height="3.26"/><rect class="cls-13" x="188.84" y="176.75" width="66.93" height="3.26"/><rect class="cls-13" x="188.84" y="183.28" width="66.93" height="3.26"/><circle class="cls-19" cx="279.16" cy="178.38" r="6.53"/><path class="cls-15" d="M280.32,172a6.49,6.49,0,0,1-5.57,11.19A6.52,6.52,0,1,0,280.32,172Z"/><circle class="cls-16" cx="276.44" cy="176.21" r="1.36"/><path class="cls-12" d="M290,246.94a1.63,1.63,0,0,1-1.63,1.63H185.57a1.63,1.63,0,0,1-1.63-1.63h0a1.63,1.63,0,0,1,1.63-1.63H288.41a1.63,1.63,0,0,1,1.63,1.63Z"/><path class="cls-12" d="M290,240.41a1.63,1.63,0,0,1-1.63,1.63H185.57a1.63,1.63,0,0,1-1.63-1.63h0a1.63,1.63,0,0,1,1.63-1.63H288.41a1.63,1.63,0,0,1,1.63,1.63Z"/><path class="cls-12" d="M290,233.88a1.63,1.63,0,0,1-1.63,1.63H185.57a1.63,1.63,0,0,1-1.63-1.63h0a1.63,1.63,0,0,1,1.63-1.63H288.41a1.63,1.63,0,0,1,1.63,1.63Z"/><path class="cls-20" d="M509.33,60.34A8,8,0,0,0,501,52H303.88c-4.88,0-9.36,3.47-9.36,8.34V204.69H509.33Z"/><path class="cls-10" d="M294.52,204.69v12.72c0,4.88,4.48,8.34,9.36,8.34H501a8,8,0,0,0,8.31-8.34V204.69Z"/><rect class="cls-3" x="374.4" y="225.75" width="55.05" height="28.44"/><polygon class="cls-11" points="429.45 227 374.4 233.24 374.4 225.75 429.45 225.75 429.45 227"/><rect class="cls-10" x="352.09" y="254.03" width="99.67" height="4.93"/><rect class="cls-21" x="303.93" y="60.32" width="195.99" height="135.93"/><rect class="cls-22" x="392.85" y="90.3" width="4.28" height="22.49"/><rect class="cls-13" x="385.35" y="98.87" width="4.28" height="13.92"/><rect class="cls-22" x="377.86" y="78.52" width="4.28" height="34.27"/><rect class="cls-13" x="370.36" y="92.45" width="4.28" height="20.35"/><rect class="cls-22" x="362.86" y="88.16" width="4.28" height="24.63"/><rect class="cls-13" x="355.37" y="99.94" width="4.28" height="12.85"/><rect class="cls-22" x="347.87" y="94.59" width="4.28" height="18.21"/><rect class="cls-13" x="340.37" y="78.52" width="4.28" height="34.27"/><rect class="cls-22" x="332.87" y="84.95" width="4.28" height="27.85"/><rect class="cls-13" x="325.38" y="93.52" width="4.28" height="19.28"/><rect class="cls-22" x="317.88" y="99.94" width="4.28" height="12.85"/><rect class="cls-11" x="316.81" y="126.54" width="35.34" height="3.21" rx="1.47" ry="1.47"/><rect class="cls-23" x="318.95" y="141.71" width="35.34" height="3.21" rx="1.47" ry="1.47"/><rect class="cls-23" x="326.45" y="150.28" width="35.34" height="3.21" rx="1.47" ry="1.47"/><rect class="cls-23" x="316.81" y="157.78" width="35.34" height="3.21" rx="1.47" ry="1.47"/><rect class="cls-23" x="320.02" y="170.63" width="35.34" height="3.21" rx="1.47" ry="1.47"/><rect class="cls-23" x="318.95" y="179.2" width="35.34" height="3.21" rx="1.47" ry="1.47"/><rect class="cls-23" x="362.86" y="171.76" width="46.35" height="3.21" rx="1.47" ry="1.47"/><rect class="cls-23" x="361.94" y="162.06" width="46.35" height="3.21" rx="1.47" ry="1.47"/><rect class="cls-23" x="360.72" y="180.33" width="46.35" height="3.21" rx="1.47" ry="1.47"/><rect class="cls-23" x="369.44" y="151.35" width="46.35" height="3.21" rx="1.47" ry="1.47"/><rect class="cls-23" x="365.16" y="141.71" width="46.35" height="3.21" rx="1.47" ry="1.47"/><rect class="cls-22" x="447.47" y="108.51" width="41.71" height="4.28"/><rect class="cls-13" x="412.13" y="108.51" width="35.34" height="4.28"/><rect class="cls-13" x="412.13" y="99.94" width="29.99" height="4.28"/><rect class="cls-22" x="442.12" y="99.94" width="16.06" height="4.28"/><rect class="cls-13" x="412.13" y="91.37" width="65.33" height="4.28"/><rect class="cls-22" x="477.46" y="91.37" width="10.65" height="4.28"/><rect class="cls-13" x="412.13" y="82.81" width="34.27" height="4.28"/><rect class="cls-22" x="446.4" y="82.81" width="7.5" height="4.28"/><path class="cls-18" d="M465,169.79a16.05,16.05,0,1,1-22.6-21.66l-4.13-7.54a24.63,24.63,0,1,0,34,33.72Z"/><path class="cls-14" d="M451.22,145.46a16,16,0,0,1,15.47,20.35l7.49,4.63a24.63,24.63,0,0,0-32.11-31.79l4.17,7.61A16,16,0,0,1,451.22,145.46Z"/></g><g id="Layer_3" data-name="Layer 3"><rect class="cls-24" x="111" y="159" width="86" height="86" rx="13" ry="13"/><path class="cls-25" d="M550.07,119.79H494.44a6,6,0,0,0-6,6V252.46a6,6,0,0,0,6,6h99.27a6,6,0,0,0,6-6V125.78a6,6,0,0,0-6-6Z"/><path class="cls-21" d="M585.79,128.33H502.37a5,5,0,0,0-5,5V244.66a5,5,0,0,0,5,5h83.41a5,5,0,0,0,5-5V133.36A5,5,0,0,0,585.79,128.33Z"/><path class="cls-26" d="M554.62,113.5a10.54,10.54,0,0,0-21.08,0H510.46v21.08H577.7V113.5Z"/><circle class="cls-21" cx="544.08" cy="113.85" r="4.57"/><path class="cls-27" d="M578.7,203.63H558.89a4.3,4.3,0,0,1-4.29-4.29V179.52a4.3,4.3,0,0,1,4.29-4.29h19.82a4.3,4.3,0,0,1,4.29,4.29v19.82A4.3,4.3,0,0,1,578.7,203.63Zm-19.82-25.74a1.63,1.63,0,0,0-1.63,1.63v19.82a1.63,1.63,0,0,0,1.63,1.63H578.7a1.63,1.63,0,0,0,1.63-1.63V179.52a1.63,1.63,0,0,0-1.63-1.63Z"/><path class="cls-27" d="M578.7,236.62H558.89a4.3,4.3,0,0,1-4.29-4.29V212.51a4.3,4.3,0,0,1,4.29-4.29h19.82a4.3,4.3,0,0,1,4.29,4.29v19.81A4.3,4.3,0,0,1,578.7,236.62Zm-19.82-25.74a1.63,1.63,0,0,0-1.63,1.63v19.82a1.63,1.63,0,0,0,1.63,1.63H578.7a1.63,1.63,0,0,0,1.63-1.63V212.51a1.63,1.63,0,0,0-1.63-1.63Z"/><rect class="cls-18" x="510.46" y="128.33" width="67.24" height="6.25"/><rect class="cls-27" x="506.05" y="144.6" width="16.28" height="3.07"/><rect class="cls-27" x="506.05" y="152.39" width="42.61" height="3.07"/><rect class="cls-27" x="506.05" y="159.96" width="42.61" height="3.07"/><rect class="cls-27" x="506.05" y="167.53" width="42.61" height="3.07"/><rect class="cls-27" x="506.05" y="185.43" width="42.61" height="3.07"/><rect class="cls-27" x="506.05" y="193" width="42.61" height="3.07"/><rect class="cls-27" x="506.05" y="200.58" width="42.61" height="3.07"/><rect class="cls-27" x="506.05" y="218.34" width="42.61" height="3.07"/><rect class="cls-27" x="506.05" y="225.92" width="42.61" height="3.07"/><rect class="cls-27" x="506.05" y="233.49" width="42.61" height="3.07"/><rect class="cls-27" x="506.05" y="177.59" width="16.28" height="3.07"/><rect class="cls-27" x="506.05" y="210.57" width="16.28" height="3.07"/><path class="cls-14" d="M567.37,197.27l-8-7.63,3-3.11,4.86,4.65,8-8.31,3.11,3Z"/><path class="cls-14" d="M567.37,163.7l-8-7.63,3-3.11,4.86,4.65,8-8.31,3.11,3Z"/><path class="cls-14" d="M567.37,229.61l-8-7.63,3-3.11,4.86,4.65,8-8.31,3.11,3Z"/><path class="cls-27" d="M578.7,170.64H558.89a4.3,4.3,0,0,1-4.29-4.29V146.53a4.3,4.3,0,0,1,4.29-4.29h19.82a4.3,4.3,0,0,1,4.29,4.29v19.82A4.3,4.3,0,0,1,578.7,170.64ZM558.89,144.9a1.63,1.63,0,0,0-1.63,1.63v19.82a1.63,1.63,0,0,0,1.63,1.63H578.7a1.63,1.63,0,0,0,1.63-1.63V146.53a1.63,1.63,0,0,0-1.63-1.63Z"/><path class="cls-26" d="M625.91,163a21.19,21.19,0,0,0-21.16,21.16v24.7h6.92v-24.7a14.24,14.24,0,0,1,28.49,0v24.7h6.92v-24.7A21.19,21.19,0,0,0,625.91,163Z"/><rect class="cls-14" x="592.66" y="199.34" width="66.49" height="58.71"/><rect class="cls-22" x="592.66" y="199.34" width="33.24" height="58.71"/><rect class="cls-28" x="592.66" y="199.34" width="66.49" height="6.92"/><rect class="cls-28" x="592.66" y="251.13" width="66.49" height="6.92"/><path class="cls-10" d="M612.32,228.51A13.53,13.53,0,0,1,625.85,215v-3.92a17.45,17.45,0,0,0,0,34.9V242A13.53,13.53,0,0,1,612.32,228.51Z"/><path class="cls-21" d="M625.91,211.05h-.06V215a13.53,13.53,0,0,1,0,27.06V246h.06a17.45,17.45,0,1,0,0-34.91Z"/><path class="cls-21" d="M639.38,228.51A13.53,13.53,0,0,0,625.85,215V242A13.53,13.53,0,0,0,639.38,228.51Z"/><path class="cls-10" d="M612.32,228.51A13.53,13.53,0,0,0,625.85,242V215A13.53,13.53,0,0,0,612.32,228.51Z"/><path class="cls-20" d="M622.69,235.47l.71-5.84a4,4,0,1,1,4.78.17l.71,5.67Z"/><path class="cls-29" d="M111.71,130a4.7,4.7,0,0,1,3.4,1.75l4.75,6.65h30a2.15,2.15,0,0,1,2.15,2.15v24.09a1.85,1.85,0,0,1-2,1.57H88.46a1.85,1.85,0,0,1-2-1.57V131.58a1.85,1.85,0,0,1,2-1.58Z"/><rect class="cls-10" x="86" y="142.92" width="52.49" height="17.32"/><path class="cls-10" d="M146.93,142.92H89.81v17.32h57.12V142.92Z"/><path class="cls-26" d="M129.72,145.79a4.7,4.7,0,0,0-3.4,1.75l-4.75,6.65h-33a2.15,2.15,0,0,0-2.15,2.15V183.1a1.85,1.85,0,0,0,2,1.57H150a1.85,1.85,0,0,0,2-1.57V147.36a1.85,1.85,0,0,0-2-1.58Z"/><path class="cls-29" d="M175.71,205a4.7,4.7,0,0,1,3.4,1.75l4.75,6.65h30a2.15,2.15,0,0,1,2.15,2.15v24.09a1.85,1.85,0,0,1-2,1.57H155.46a1.85,1.85,0,0,1-2-1.57V206.58a1.85,1.85,0,0,1,2-1.58Z"/><rect class="cls-10" x="148.37" y="217.92" width="54.12" height="17.32"/><path class="cls-10" d="M210.93,217.92H156.81v17.32h54.12V217.92Z"/><path class="cls-26" d="M193.72,220.79a4.7,4.7,0,0,0-3.4,1.75l-4.75,6.65h-30a2.15,2.15,0,0,0-2.15,2.15V258.1a1.85,1.85,0,0,0,2,1.57H214a1.85,1.85,0,0,0,2-1.57V222.36a1.85,1.85,0,0,0-2-1.58Z"/><path class="cls-11" d="M156.75,231a11.33,11.33,0,0,0-16.3-12.79,16.65,16.65,0,0,0-24.7-11.38,27.23,27.23,0,0,0-48.2,24.54,14.66,14.66,0,0,0-10.55,14h0A14.65,14.65,0,0,0,71.61,260h82.78A14.65,14.65,0,0,0,169,245.39h0A14.65,14.65,0,0,0,156.75,231Z"/><path class="cls-25" d="M268.74,148.32A4.32,4.32,0,0,1,273,144h70.69a4.33,4.33,0,0,1,4.31,4.32V254.78a4.32,4.32,0,0,1-4.31,4.31H273a4.32,4.32,0,0,1-4.31-4.31Z"/><rect class="cls-30" x="302.1" y="249.97" width="12.59" height="4.31" rx="1.92" ry="1.92"/><path class="cls-30" d="M308.38,151.6a2,2,0,0,1,0-4,2,2,0,1,1,0,4Z"/><rect class="cls-21" x="273.23" y="155.24" width="70.31" height="89.91"/><rect class="cls-13" x="273.23" y="155.24" width="70.31" height="12.76"/><rect class="cls-29" x="334" y="179" width="3" height="21"/><rect class="cls-14" x="328" y="186.5" width="3" height="13.5"/><rect class="cls-29" x="322" y="173" width="3" height="27"/><rect class="cls-14" x="316" y="183.5" width="3" height="16.5"/><rect class="cls-29" x="310" y="191" width="3" height="9"/><rect class="cls-14" x="304" y="180.5" width="3" height="19.5"/><rect class="cls-29" x="298" y="186.5" width="3" height="13.5"/><rect class="cls-14" x="292" y="173" width="3" height="27"/><rect class="cls-29" x="286" y="182" width="3" height="18"/><rect class="cls-14" x="280" y="188" width="3" height="12"/><rect class="cls-23" x="280" y="236" width="46.5" height="3"/><rect class="cls-23" x="280" y="228.5" width="19.5" height="3"/><rect class="cls-23" x="280" y="221" width="34.5" height="3"/><rect class="cls-23" x="280" y="213.5" width="28.5" height="3"/><rect class="cls-11" x="280" y="206" width="51" height="3"/><path class="cls-31" d="M506.09,208.7V178.21a3.21,3.21,0,0,0-3.21-3.21H439.71a3.21,3.21,0,0,0-3.21,3.21v77a3.21,3.21,0,0,0,3.21,3.21h63.17a3.21,3.21,0,0,0,3.21-3.21Z"/><path class="cls-21" d="M493.49,179.17h8.13v75.11H441V179.17h52.51Z"/><path class="cls-13" d="M466,189h10.5v10.5H466Z"/><path class="cls-32" d="M466,214.59h10.5v10.5H466Z"/><path class="cls-33" d="M457.79,238.59h10.5v10.5h-10.5Z"/><path class="cls-31" d="M482.87,214.59h10.5v10.5h-10.5Z"/><path class="cls-14" d="M449.22,214.59h10.5v10.5h-10.5Z"/><path class="cls-34" d="M488.36,206.18H473v-1.71a1.71,1.71,0,0,0-3.41,0v1.71H454.22a1.71,1.71,0,0,0-1.71,1.71v1.71a1.71,1.71,0,0,0,3.41,0h13.66a1.71,1.71,0,0,0,3.41,0h13.66a1.71,1.71,0,0,0,3.41,0v-1.71A1.71,1.71,0,0,0,488.36,206.18Z"/><path class="cls-34" d="M462.76,235.2a1.71,1.71,0,0,1-1.71-1.71v-1.71a1.71,1.71,0,0,1,1.71-1.71h23.9a1.71,1.71,0,0,1,3.41,0v1.71a1.71,1.71,0,0,1-1.71,1.71h-23.9A1.71,1.71,0,0,1,462.76,235.2Z"/></g></g></svg>