<?xml version="1.0" encoding="utf-8"?>
<!-- Generator: Adobe Illustrator 23.0.3, SVG Export Plug-In . SVG Version: 6.00 Build 0)  -->
<svg version="1.1" xmlns="http://www.w3.org/2000/svg" xmlns:xlink="http://www.w3.org/1999/xlink" x="0px" y="0px"
	 viewBox="0 0 500 500" style="enable-background:new 0 0 500 500;" xml:space="preserve">
<style type="text/css">
	.st0{fill:#EEEDED;}
	.st1{display:none;fill:#EEEDED;}
	.st2{display:none;fill:#F7F8F8;}
	.st3{fill:#7CC793;}
	.st4{fill:none;stroke:#38B778;stroke-width:3.7479;stroke-linecap:round;stroke-miterlimit:10;}
	.st5{fill:url(#SVGID_1_);}
	.st6{fill:#FCC217;}
	.st7{fill:#293A88;}
	.st8{fill:none;stroke:#293A88;stroke-width:4.0329;stroke-linecap:round;stroke-miterlimit:10;}
	.st9{fill:#13122D;}
	.st10{fill:#1C2754;}
	.st11{fill:#18203E;}
	.st12{fill:#263452;}
	.st13{fill:#F3A087;}
	.st14{fill:#16274C;}
	.st15{fill:url(#SVGID_2_);}
	.st16{fill:#1D2754;}
	.st17{opacity:0.17;fill:none;stroke:#FDFEFF;stroke-width:0.3361;stroke-miterlimit:10;}
	.st18{fill:url(#SVGID_3_);}
	.st19{opacity:0.61;fill:#DDEFFB;enable-background:new    ;}
	.st20{fill:url(#SVGID_4_);}
	.st21{opacity:0.19;fill:url(#SVGID_5_);enable-background:new    ;}
	.st22{fill:none;stroke:#69B8E7;stroke-width:0.3922;stroke-miterlimit:10;}
	.st23{fill:none;stroke:#38B778;stroke-width:0.3922;stroke-miterlimit:10;}
	.st24{fill:#FED874;}
	.st25{fill:#398BCA;}
	.st26{fill:none;stroke:#EDBF48;stroke-width:0.3922;stroke-miterlimit:10;}
	.st27{display:none;}
	.st28{display:inline;}
	.st29{fill:#F0EFEF;}
	.st30{display:inline;fill:#F0EFEF;}
	.st31{display:none;fill:#18203E;}
	.st32{fill:#202657;}
	.st33{fill:url(#SVGID_6_);}
	.st34{fill:#2281C5;}
	.st35{fill:#D5B694;}
	.st36{opacity:0;}
	.st37{fill:#010101;}
	.st38{fill:url(#SVGID_7_);}
	.st39{display:none;fill:#D5B694;}
	.st40{fill:#143452;}
</style>
<g id="Layer_2">
	<ellipse class="st0" cx="302.3" cy="412.4" rx="177.8" ry="9"/>
	<ellipse class="st1" cx="69.6" cy="414.1" rx="30" ry="5.5"/>
</g>
<g id="Layer_1">
	<ellipse class="st2" cx="296.9" cy="411.3" rx="178.3" ry="25.5"/>
	<path class="st3" d="M462.5,248.8c-40.7,0.9-82,1.4-124,1.5c-66.4,0.1-131.2-0.9-194.3-2.8l0,0c67.2-2.6,138.1,1,205.3-1.6
		C388.4,248.9,423.6,245.8,462.5,248.8z"/>
	<rect x="153.7" y="353.3" class="st0" width="205.9" height="54"/>
	<path class="st0" d="M457.6,344.6H251.7v-54h205.9c0.7,9.7,1,20.2,0.9,31.2C458.5,329.7,458.1,337.3,457.6,344.6z"/>
	<path class="st0" d="M359.1,285.1H153.2v-34.8h205.9c0.7,6.3,1,13,0.9,20.1C359.9,275.5,359.6,280.4,359.1,285.1z"/>
	<path class="st3" d="M144.2,288.2c0,0-7.4-4.4,1.2-6.4l164.7-1.8c0,0,8.1-15.4-2.2-25.7H144.6c0,0-7.2-4.5-0.5-6.9l156.3,1.6
		c54-0.1,108-0.2,162-0.3c1.9,4,5.5,12.6,4.5,23.7c-0.6,6.9-2.8,12.4-4.5,15.8c-91.2,0.2-182.4,0.4-273.6,0.5L144.2,288.2z"/>
	<path class="st4" d="M145.3,250.2h149.9c8.7,0,15.9,7.2,15.9,15.9v3c0,8.7-7.2,15.9-15.9,15.9H148"/>
	<linearGradient id="SVGID_1_" gradientUnits="userSpaceOnUse" x1="188.9084" y1="319.1816" x2="337.6537" y2="319.1816">
		<stop  offset="0" style="stop-color:#F99F23"/>
		<stop  offset="0.9121" style="stop-color:#FBC217"/>
	</linearGradient>
	<path class="st5" d="M335.4,288.8H190.6l-1.5,14.7c-1.5,47.7,6.7,46.1,6.7,46.1l141.8-0.3C336.9,329.1,336.2,308.9,335.4,288.8z"/>
	<path class="st6" d="M335.4,288.8c0,0-12.4,33.9,2.2,60.5c44.4-0.2,88.7-0.4,133.1-0.6c1.1-0.4,1.9-1.4,2-2.4
		c0.1-1.4-1-2.9-2.7-3.2c-7.2,0.3-18,0.5-31,0.6c-16.9,0.1-28.5-0.3-37.6-0.5c-14.4-0.3-34.9-0.5-60.9,0.2c-1-6.4-1.8-14-1.7-22.5
		c0.1-10.4,1.3-19.5,2.7-26.9c42.9,0.2,85.7,0.4,128.6,0.6c0.1-0.5,0.6-2.4-0.5-4.3c-0.6-1.1-1.4-1.7-1.9-2
		C423.7,288.4,379.6,288.6,335.4,288.8z"/>
	<path class="st7" d="M459.5,411.3c-9.7,0-19.3,0-29,0c-22.7,0-45.4,0-68.1,0c-71,0-142,0-212.9,0c0,0-4.9-4.9,1.5-7h206.2
		c0.9-5.7,1.5-12.3,1.5-19.6c0.1-11.4-1.3-21.3-3.1-29.3c-67.9,0-135.8,0-203.8,0c-2.2,0.2-3.9-1-4.1-2.1c-0.2-1.3,1.4-3.3,4.1-3.4
		c69.7-0.1,139.3-0.2,209-0.3c33.6-0.3,67.3-0.6,100.9-0.9c1.2,4.9,2.3,10.4,2.8,16.3C466.4,384.1,463,400.2,459.5,411.3z"/>
	<path class="st8" d="M149.1,353.3h210.3c0,0,16.8,23.5,3.4,54H149"/>
	<path class="st0" d="M248.6,331.2c0,0,3.3,3.3-5.7,6.3c-9.1,3-11.7,13.5-2.9,10s20.5-7.4,20.5-7.4s2.1-5.7-4.9-11.9L248.6,331.2z"
		/>
	<path class="st9" d="M247.9,330.2c0.3,0.3,0.6,0.8,0.6,1.4c0,1.9-3.1,3.1-6.3,4.9c-2.5,1.3-10,5.5-9.6,8.4c0.1,0.7,0.8,1.8,3.8,2.7
		c0,0,19.1-6.9,19.1-6.9s3.3-1.2,4.2-1.5c0.2-1,0.3-2.2,0.2-3.6c-0.6-4.7-4.1-7.5-5.1-8.3L247.9,330.2z"/>
	<path class="st0" d="M223.8,330.1c0,0,3.5,3.1-5.3,6.7c-8.8,3.6-10.8,14.2-2.2,10.2c8.6-4,20-8.7,20-8.7s1.7-5.8-5.7-11.5
		L223.8,330.1z"/>
	<path class="st9" d="M223.5,329.1c0,0,3.5,3.1-5.3,6.7c-8.8,3.6-10.8,14.2-2.2,10.2s20-8.7,20-8.7s1.7-5.8-5.7-11.5L223.5,329.1z"
		/>
	<path class="st10" d="M236.4,326.3L223,329c-5.1-10-11.9-23.8-19.5-40.6c-13.2-29-14.9-36.5-11.6-43.1c1.8-3.6,5.5-8,30.4-15.6
		c17.8-5.4,33.8-8.7,47.1-10.7c2.4,1.9,4.8,3.7,7.2,5.6c-18.8,9.9-37.6,19.9-56.4,29.8c-2.3,0.8-4.5,1.6-6.8,2.4
		c3.4,7.8,6.6,16.1,9.8,24.9C228.9,297.5,233.2,312.5,236.4,326.3z"/>
	<path class="st10" d="M311,220.3c0,0,8.6,27.2-12.5,26.9c0,0-48.6,6.1-49.5,9.8l12.2,73l-15.3,2.1c-2.3-8.6-6-21.6-11.6-37.2
		c-9.7-27.3-15.3-35.1-12.2-44.3c1.8-5.3,8.6-17.6,44.2-23c2.8-2.4,5.5-4.9,8.3-7.3H311z"/>
	<path class="st11" d="M254.7,287.1"/>
	<path class="st12" d="M202.8,247.2"/>
	<circle class="st0" cx="255.9" cy="336.9" r="1.7"/>
	<circle class="st0" cx="230.9" cy="335.1" r="1.7"/>
	<path class="st13" d="M275.6,146.1c-2.1-0.8-5.4-2.6-7.8-6.5c-4.1-6.2-3.1-15.3,2.1-22.8c2.8,0,6.7,0.3,11.4,1.6
		c5.7,1.8,9.8,4.7,12.2,6.5c0.3,0.5,2.3,2.8,1.8,6.2c-0.5,3.1-2.8,5.4-5.9,6.5l1.3,10.6l-1,8.5h-9.8h-9.1l4.1-6.7L275.6,146.1z"/>
	<path class="st14" d="M267.3,123.4c0,0-3.8-3.6-3.2-8.1c0.4-2.7,2-5.9,4.7-6.7c1.3-0.4,2.4,0,3.6,0.4c6.3,1.9,7,0.7,11.2,2
		c2.4,0.8,6.5,2.6,10.7,7.2c1.2,1.6,2.9,4.3,3.3,7.8c0.5,4.4-0.8,10.5-7.7,17.3l-1-5.4c0,0,9.6-15.5-2.8-12.7c0,0-6.2,18.9-2.1-3.6
		C283.6,121.6,270.7,111.5,267.3,123.4z"/>
	<path class="st13" d="M192.8,155.4l8.5,8.5c1.8,1.8,1.8,4.7,0,6.2l0,0c-1.8,1.8-4.7,1.8-6.2,0l-8.5-8.5c-1.8-1.8-1.8-4.7,0-6.2l0,0
		C188.4,153.9,191.3,153.9,192.8,155.4z"/>
	
		<linearGradient id="SVGID_2_" gradientUnits="userSpaceOnUse" x1="263.0901" y1="375.1761" x2="286.124" y2="379.1907" gradientTransform="matrix(1 0 0 1 0 -194)">
		<stop  offset="0" style="stop-color:#F99F23"/>
		<stop  offset="1" style="stop-color:#FBC217"/>
	</linearGradient>
	<path class="st15" d="M230.1,178.5c6.5-5.2,10.9-9.8,13.7-13.2c2.1-2.6,4.7-6.2,9.6-10.1c3.4-2.8,5.2-4.4,8.3-5.4
		c2.8-0.8,7.2-1.6,11.9,0c5.2,1.6,5.7,2.1,8.8,1.8c3.9-0.3,4.4-2.3,8.5-3.4c3.1-0.8,5.4-0.3,9.1,0.3c4.1,0.8,11.1,2.1,15.3,7.5
		c0,0,0.8,1,1.6,2.3c6,10,1.4,21.4-1.8,36.5c-1.3,6.2-2.9,15.2-3.7,26.4c-9.8-0.8-20.2-1.3-31.2-1.3c-6,0-11.9,0.1-17.6,0.4
		c-0.1-7.2-0.3-14.6-0.7-22.1c-0.3-7-0.7-13.9-1.2-20.7c-2.3,3.1-5.7,7-10.9,10.9c0,0-4.9,2.8-9.1,5.4c-4.4,2.6-15.8-0.3-46.8-24.6
		c0.5-1,1.6-2.6,2.8-3.9c1.8-1.8,3.4-2.8,4.7-3.6c4.9,2.8,9.8,5.7,14.5,8.3C220.3,172.8,225.2,175.6,230.1,178.5z"/>
	<path class="st16" d="M251.8,321.9"/>
	<path class="st11" d="M285.6,224.9l-36.3,4.6c-1.4,0.2-2.8-0.8-2.9-2.3l-0.2-1.6c-0.2-1.4,0.8-2.8,2.3-2.9l36.3-4.6
		c1.4-0.2,2.8,0.8,2.9,2.3l0.2,1.6C288,223.4,287,224.7,285.6,224.9z"/>
	<path class="st11" d="M253.3,230.3l-68,4.9c-2.9,0.2-5.5-1.7-6.1-4.6l-9.8-46.1c-0.7-3.4,1.7-6.7,5.2-7l68.4-5
		c2.9-0.2,5.5,1.8,6.1,4.6l9.5,46.2C259.2,226.8,256.7,230.1,253.3,230.3z"/>
	<path class="st17" d="M250.6,227.9l-63.3,4.4c-2.7,0.2-5.1-1.6-5.7-4.2l-9.2-41.9c-0.7-3.1,1.6-6.1,4.9-6.3l63.6-4.5
		c2.7-0.2,5.1,1.6,5.7,4.2l8.9,42C256.2,224.7,253.9,227.7,250.6,227.9z"/>
	<path class="st13" d="M258.5,221.7l13.7-3.1c1.8-0.5,3.6,0.8,4.1,2.6l0,0c0.5,1.8-0.8,3.6-2.6,4.1l-13.7,3.1
		c-1.8,0.5-3.6-0.8-4.1-2.6l0,0C255.4,224,256.7,221.9,258.5,221.7z"/>
	
		<linearGradient id="SVGID_3_" gradientUnits="userSpaceOnUse" x1="286.9405" y1="415.1345" x2="306.2715" y2="376.2917" gradientTransform="matrix(1 0 0 1 0 -194)">
		<stop  offset="3.936382e-02" style="stop-color:#F99F23"/>
		<stop  offset="0.8411" style="stop-color:#FBC217"/>
	</linearGradient>
	<path class="st18" d="M300,149.3c3.9,0,9.3,1,13.7,4.9c6.2,5.7,5.9,14.7,5.2,32.6c-0.8,15.3-1.3,23.3-6.7,28.2
		c-1.8,1.8-4.1,3.1-16.6,6.5c-9.8,2.6-18.1,4.4-24.1,5.7c-0.3-1-0.8-2.3-1-3.9c0-1.3,0-2.1,0-3.1c9.8-4.7,19.7-9.3,29.7-14
		c2.8-14.7,1-24.6-1.3-31c-1.3-3.9-4.4-10.9-2.3-18.9C297.4,153.1,298.7,150.8,300,149.3z"/>
	
		<ellipse transform="matrix(0.8638 -0.5039 0.5039 0.8638 -73.9236 135.0515)" class="st19" cx="212.8" cy="204.2" rx="2.9" ry="3.7"/>
	<linearGradient id="SVGID_4_" gradientUnits="userSpaceOnUse" x1="235.2283" y1="325.7472" x2="235.2283" y2="325.7472">
		<stop  offset="5.586533e-02" style="stop-color:#F99E22"/>
		<stop  offset="0.6033" style="stop-color:#FDB515"/>
		<stop  offset="0.8797" style="stop-color:#FDC212"/>
	</linearGradient>
	<path class="st20" d="M235.2,325.7"/>
	<g>
		<g id="Layer_11">
			<path class="st3" d="M68.1,359.3c0,0,2.2-21.5-10.5-34.8c0,0-15.7-14.9,12.4-12.9c0,0,31.9,3.7,25.1,35c0,0-19.7,6.8-21.9,24.3
				l-0.8,4.6l-6.4-9.2L68.1,359.3z"/>
			
				<linearGradient id="SVGID_5_" gradientUnits="userSpaceOnUse" x1="868.814" y1="2923.3262" x2="905.7958" y2="2923.3262" gradientTransform="matrix(1 0 0 1 -847.494 -2516)">
				<stop  offset="0.1011" style="stop-color:#DDDDDD"/>
				<stop  offset="0.985" style="stop-color:#505050"/>
			</linearGradient>
			<rect x="21.3" y="401" class="st21" width="37" height="12.7"/>
			<path class="st7" d="M40.7,370.5c-0.2,0-26.9,7.8-12.6-10.6c0.2-0.2,1.4-1.9,1.7-2.1c8.9-7.3,26.1-14.3,38,1.6
				c0.2,0.2,0.2,0.3,0.3,0.6c1,2.1,6.5,14.8,1.9,24.8c0,0,0,0.2-0.2,0.2h-6h-0.2C63.1,383.6,52.3,366.2,40.7,370.5L40.7,370.5z"/>
			<path class="st22" d="M36.7,361.1c0,0,28.3-9.2,31.9,23.8"/>
			<path class="st23" d="M69.6,317c0,0,21.8,10.3,5.4,45.5"/>
			<path class="st24" d="M71.2,384.8c0,0-0.2-18,7-26.4c0,0,10.8-14.3,27.7-11.1c0,0,10.8,0.2,12.4,6.4c0,0,2.9,7.8-6.7,8.9
				c0,0-17.8,1.4-25,9.9c0,0-8.6,9.1-8.7,12.4c0,3.7-0.8,0-0.8,0H71.2L71.2,384.8L71.2,384.8z"/>
			<path class="st25" d="M83.6,414.8l-25.1,0.8l-2.9-27.3c0-1.9,1.7-3.3,3.5-3.3h18.6h5.1c2.1,0,3.5,1.6,3.5,3.3L83.6,414.8z"/>
			<path class="st26" d="M108.7,355.5c0,0-26.9-4.3-34.2,29.4"/>
		</g>
	</g>
	<g class="st27">
		<g class="st28">
			<path class="st29" d="M377.6,199.9c0.6,0,1-0.5,1-1.1l0-0.5c0-0.6-0.5-1-1.1-1l-17.4,0.6c-0.6,0-1,0.5-1,1.1l0,0.5
				c0,0.6,0.5,1,1.1,1L377.6,199.9z"/>
			<path class="st29" d="M387.7,178.1c-1.7-1.6-3.6-2.8-5.8-3.6l0,0c-0.7-0.3-1.5,0-1.9,0.7l-1.1,1.9c-0.3-0.1-0.6-0.1-1-0.2
				c-0.1,0-0.2,0-0.3,0c-0.3,0-0.6,0.1-0.8,0.1l2-3.4l0.6-1.1c0.4-0.7,0.2-1.7-0.5-2.1l-5.8-3.5c-0.3-0.2-0.6-0.2-0.9-0.2
				c-0.5,0-1,0.3-1.3,0.8l-9.3,15.8c-0.4,0.7-0.2,1.7,0.5,2.1l1.1,0.7l-0.5,0.8l-0.5,0.8l-0.3,0.5c-0.4,0.7-0.2,1.7,0.5,2.1l0.9,0.6
				c0.7,0.4,1.7,0.2,2.1-0.5l0.3-0.5l0.5-0.8l0.5-0.8l1.1,0.6c0.3,0.2,0.6,0.2,0.9,0.2c0.5,0,1-0.3,1.3-0.8l3.8-6.5
				c0.1,0.4,0.2,0.7,0.4,1c0.2,0.3,0.4,0.5,0.6,0.8c0.8,0.8,1.9,1.2,3,1.1c2.1-0.1,3.7-1.9,3.7-4c0-0.5-0.1-1-0.3-1.4
				c1.1,0.6,2.1,1.3,3.1,2.1c2.6,2.4,4,5.6,4.2,9.1c0.1,3.5-1.1,6.8-3.5,9.4c-1.5,1.6-3.3,2.8-5.3,3.5c-0.1,0.1-0.3,0.1-0.5,0.1
				l-5.1,0.2c-0.9,0-1.6-0.6-1.6-1.5l0-0.3l-7.4,0.3l0.1,1.9l0.1,2.5l0.1,2.6c0.2,0,0.3,0,0.5,0l10.2-0.4l1.9-0.1l8.9-0.3l1.2,0
				l0.1,0c1.8-0.4,3.1-2,3-3.9c0-1.2-0.6-2.2-1.4-2.8c1-1.3,1.7-2.7,2.3-4.2c0.8-2.2,1.2-4.6,1.2-7c-0.1-2.4-0.6-4.7-1.6-6.9
				C390.7,181.5,389.4,179.6,387.7,178.1z M377.8,182.2c-0.7,0-1.2-0.4-1.4-1c0-0.1-0.1-0.2-0.1-0.4c0-0.7,0.5-1.3,1.1-1.4
				c0.1,0,0.2,0,0.2,0c0.8,0,1.4,0.6,1.5,1.4S378.6,182.2,377.8,182.2z M388.1,205.8c-0.2,0.1-0.3,0.1-0.5,0.1c-0.5,0-1-0.3-1.2-0.7
				c-0.1-0.2-0.1-0.4-0.2-0.6c0-0.7,0.5-1.4,1.3-1.4c0.2,0,0.4,0,0.6,0.1c0.1,0,0.2,0.1,0.3,0.1c0.3,0.2,0.5,0.6,0.6,1
				C388.9,205.1,388.6,205.6,388.1,205.8z"/>
			<path class="st29" d="M365.6,211c-3.4,0.4-6,3.3-5.8,6.8l27.2-1c0.9,0,1.5-0.8,1.5-1.6l-0.1-2.5l-0.1-2.5l-22.2,0.8
				C365.9,210.9,365.7,210.9,365.6,211z"/>
		</g>
	</g>
	<g class="st27">
		<path class="st30" d="M114.4,275.9l-22.2-14.2l-6.7-12.1c-0.6-1.1-2.1-1.5-3.2-0.9L71.1,255c-1.1,0.6-1.6,2.1-0.9,3.2l6.7,12.1
			l0.3,26.4c0,2,1.1,3.9,2.8,4.9c1.7,1,3.9,1,5.6,0.1l28.4-15.8c1.8-1,2.9-2.8,2.9-4.8C117.1,278.9,116.1,277,114.4,275.9z
			 M92.9,276.8c1-0.5,2.2-0.2,2.8,0.8c0.5,1,0.2,2.2-0.8,2.8c-1,0.5-2.2,0.2-2.8-0.8C91.6,278.5,91.9,277.3,92.9,276.8z M82,268.9
			c1-0.5,2.2-0.2,2.8,0.8c0.5,1,0.2,2.2-0.8,2.8c-1,0.5-2.2,0.2-2.8-0.8C80.6,270.6,81,269.4,82,268.9z M85.4,275.1
			c1.6-0.9,3.6-0.3,4.5,1.3c0.9,1.6,0.3,3.6-1.3,4.5c-1.6,0.9-3.6,0.3-4.5-1.3C83.3,278,83.8,275.9,85.4,275.1z M110.2,280.6
			c0,0.8-0.5,1.6-1.2,2l-23.1,12.9c-0.7,0.4-1.6,0.4-2.3,0c-0.7-0.4-1.2-1.2-1.2-2l0-6.5c0-0.9,0.6-1.8,1.4-2.2
			c3.9-1.7,9.8-0.9,13.4-3.1c1.9-1.2,3.4-2.9,4.6-4.9c0.7-1.1,2.1-1.4,3.2-0.8l4.1,2.5C109.8,279,110.2,279.8,110.2,280.6z"/>
	</g>
	<g>
		<g>
			<path class="st31" d="M224,43.7c-1.5-0.8-14.2-7.9-17.9-13.3l-0.2-0.3l-0.4,0c-2.8,0.1-4.8,1.9-5.7,2.8c-0.4-0.3-0.8-0.7-1.3-1.1
				l-0.5-0.4l-0.4,0.5c-1.7,2.1-2.3,3.9-1.9,5.4c0.3,1.3,1.3,2.3,2.8,3c0.3,0.1,3.5,2,7.1,4.3c-0.5,0.6-2.5,2.2-3.2,2.8
				c-0.8,0.7-4.1,4.2-4.1,4.2l2.4,0.3l0.9,1.5c0,0,0.9-2.8,1.9-4.2c1.1-1.4,3.1-2.7,3.1-2.7s-1,1.7-1.7,3.4
				c-0.7,1.6-0.6,4.4-0.6,4.4l1.4-0.6l1.2,2c0,0,0-3,0.4-5c0.3-1.6,1.4-3.2,1.8-3.8c4.6,3.4,9.4,7.5,10.4,8.3c0.6,0.6,1.3,1,2.2,1.1
				c0.3,0,0.7,0,1,0c1.8-0.2,3.5-1.5,4.4-3.6c1.1-2.4,1.2-6.1-1.3-8.2C225.1,44.2,224.5,43.8,224,43.7z M205.8,43.2
				c-3.3-2.1-6.3-3.8-6.7-4c-1.2-0.5-1.9-1.3-2.1-2.1c-0.2-1,0.2-2.3,1.3-3.8c3.3,2.8,6.1,5,8.4,6.8
				C205.8,41.8,205.7,42.6,205.8,43.2z M207.3,38.9c-1.9-1.4-4-3.1-6.5-5.1c0.7-0.7,2.3-2.1,4.4-2.4c1.3,1.7,3.2,3.5,5.4,5.2
				C209.6,36.8,208.3,37.4,207.3,38.9z M209.2,45.6c0-0.8,0.2-2,0.7-3.2c4.1,2.8,6.4,3.7,7.4,4c-0.1,1.1-0.1,3.7,0.6,5.9
				C215.6,50.5,212.3,47.8,209.2,45.6z M226,52.4c-0.7,1.5-2.1,3-4,2.8c-3.3-0.4-3.5-6.8-3.3-9.3l0.1-0.6l-0.6-0.1
				c0,0-2.1-0.4-7.5-4.1c0.9-1.2,2.3-1.8,3.5-2.1c3.1,2.1,6.1,3.9,7.9,4.9c0,0-0.1,0.1-0.1,0.1c-1.9,1.3-2.4,4.6-1.8,6.1
				c0.7,1.8,2,2.8,3.2,2.7c0.5-0.1,1.8-0.5,2.1-2.9l0-0.4l-0.3-0.2c-2-1.4-3-2.2-3.6-2.7c0.3-0.6,0.6-1.2,1.1-1.5
				c0.7-0.5,1.5-0.3,2.5,0.6C226.9,47.5,226.9,50.4,226,52.4z M223.9,50.1c-0.2,0.8-0.5,1.4-0.9,1.4c0,0,0,0,0,0
				c-0.5,0-1.4-0.6-1.8-1.8c-0.2-0.4-0.2-1-0.1-1.7C221.6,48.5,222.5,49.1,223.9,50.1z"/>
			<path class="st11" d="M263.1,109.6l-1.9,8.6c0,0,10.8,0.1,20,2.1c9.2,2,19,6.4,19,6.4l1.9-8.8c0,0-8.7-7.4-18.5-9.5
				C273.8,106.3,263.1,109.6,263.1,109.6z"/>
			<path class="st11" d="M317.9,116.7l-3.4-3l0.2-1c0,0,2.3-5.3-4.5-3.7c-0.4,0.1-0.6,0.2-0.7,0.4l-22.5-19.8l-37.8,11.9l11.4,8.5
				l0.4-1.9c0,0,12-3.7,22.9-1.3c10.9,2.4,20.6,10.6,20.6,10.6l-0.7,3.3l7.8-2.2c-1,4.4-2,9.4-2.4,10.9l-2.3-0.5l-1.2,5.4l3.6-1.5
				l3,2.9l1.2-5.4l-2.5-0.6l2.6-11.9L317.9,116.7z M313.3,115.9c-0.2,0.9-1.1,1.5-2,1.3c-0.9-0.2-1.5-1.1-1.3-2
				c0.2-0.9,1.1-1.5,2-1.3C312.9,114.1,313.5,115,313.3,115.9z M311.3,110.8c0.8-0.3,2.3-0.7,2,0.6c0,0.1-0.1,0.5-0.2,1L311.3,110.8
				z"/>
		</g>
	</g>
</g>
<g id="Layer_3" class="st27">
	<g id="Layer_3_1_" class="st28">
		<path class="st32" d="M141.3,431.5c0.5,1.1,1.5,2.5,3.2,3.7c3.2,2,5.9,0.6,7.6,3.1c0.5,0.8,1.2,2.2,0.7,3.1
			c-0.2,0.6-0.7,1.4-4.9,1.7c-2.2,0.3-3.7,0-6.6,0c-5.6-0.3-6.4-0.3-6.9-1.1c-1.2-1.7-0.7-4.2,0-7.3c0.2-1.7,0.7-3.1,1.2-4.2
			L141.3,431.5z"/>
		<path class="st32" d="M178.5,431.3c1.2,1.4,3.1,3.1,5.8,4.2c4.6,1.7,8.6,0.3,10.1,2.5c0.9,1.1,0,2.8,0,2.8s-1.5,2.8-8.3,2.5
			c-0.3,0-0.3,0-0.9,0c-7.4-0.6-10.7,0.8-12.6-1.1c-0.3-0.3-0.9-0.8-1.2-2.2c0.6-2.8,1.2-5.9,1.8-8.7
			C175.1,431.3,177,431.3,178.5,431.3z"/>
		
			<linearGradient id="SVGID_6_" gradientUnits="userSpaceOnUse" x1="134.051" y1="198.796" x2="111.7965" y2="302.3477" gradientTransform="matrix(1 0 0 -1 0 502)">
			<stop  offset="0" style="stop-color:#F9A025"/>
			<stop  offset="1" style="stop-color:#FABC1B"/>
		</linearGradient>
		<path class="st33" d="M133.2,199.2c-4.4,3.7-11.3,9.6-18.6,18.3c-11,12.9-18.1,21.1-18.8,33.2c-0.5,9.8,3.7,17.4,6.9,23.6
			c9.8,17.7,24.7,25.6,32.3,28.7c2-3.1,4.2-5.9,6.1-9c-15.7-7-26.4-19.7-27.2-32.9c0-2.2-0.2-7.3,2-12.7c2.7-6.5,6.6-7.9,14.2-15.7
			c2.4-2.5,5.9-6.2,9.5-11.2c0.5-5.1,1.2-10.1,1.7-15.2c-0.5-1.1-1.5-2.8-3.2-4.5C136.4,200.4,134.4,199.5,133.2,199.2z"/>
		<path class="st34" d="M176.3,294c1,4.5,1.7,8.7,2.7,13.2c3.7,15.2,7.3,35.2,8.1,58.8c1,26.4-1.7,48.6-4.9,65.2
			c-0.7,0.6-1.7,1.1-2.9,1.7c-2.9,1.1-5.6,0.8-7.1,0.6c-0.5-21.9-2.4-40.2-4.4-53.1c-3.4-21.9-5.4-35.2-13-50.3
			c-7.1-14.3-15.9-24.2-22-29.8c1-3.9,4.2-12.4,11.5-18c11.3-8.4,28.6-7.6,32.6,1.1C177.5,284.7,178.2,288.1,176.3,294z"/>
		<path class="st34" d="M143.2,432.9c3.2-13.8,6.1-28.7,8.3-44.4c5.6-40.2,5.6-76.2,3.7-106.3c-6.1,0-12.2-0.3-18.4-0.3
			c-1.7,1.4-4.4,3.9-6.4,8.2c-1.7,3.7-2.2,7.3-2.4,12.7c-0.2,5.6,0,13.8,1.7,23.9c1.2,9.6,2,17.4,2.2,23.3c0.2,3.9,0.2,7.3,0.5,10.7
			c0.2,9.6-0.2,16.6-0.5,18.6c-0.5,7.3-0.5,21.9,0.7,53.1C136.4,432.3,139.8,432.6,143.2,432.9z"/>
		<path class="st35" d="M234.7,194.9l5.1-10.2c1.1-2,0.4-4.6-1.3-5.8l-0.9-0.5c-1.8-1.3-4-0.5-5.1,1.5l-5.1,10.2
			c-1.1,2-0.4,4.6,1.3,5.8l0.9,0.5C231.6,197.7,233.8,196.9,234.7,194.9z"/>
		<g>
			<g class="st36">
				<path class="st37" d="M127.8,297.1c5.9,0.3,12,0.6,18.4,0.6c11,0,21.5-0.3,31.3-1.1c0.7-5.1,1.7-12.7,1.7-21.9
					c0-15.7-2.2-26.4,0.5-27.6c2-0.8,3.9,4.2,8.8,7c10.8,5.9,25.9-6.7,28.1-8.4c19.3-16.3,19.6-47.2,19.3-52.3
					c-2.9-1.4-5.6-2.8-8.6-3.9c-13.2,31.8-21.5,37.4-26.4,36.6c-5.4-0.8-6.9-9.6-15.7-18c-9.1-8.7-19.3-11.2-26.7-12.1
					c0,0-12,1.1-13.7,0c-3.9,0-9.8,1.1-13.5,5.9c-4.7,5.6-3.9,13.5-3.2,26.2c0.5,9,1,22.2,1.2,38.5
					C128.8,276.6,128.3,286.7,127.8,297.1z"/>
			</g>
			<g>
				
					<linearGradient id="SVGID_7_" gradientUnits="userSpaceOnUse" x1="214.0997" y1="326.2967" x2="120.4185" y2="210.8921" gradientTransform="matrix(1 0 0 -1 0 502)">
					<stop  offset="0" style="stop-color:#F99F23"/>
					<stop  offset="0.9121" style="stop-color:#FBC217"/>
				</linearGradient>
				<path class="st38" d="M127.8,297.1c5.9,0.3,12,0.6,18.4,0.6c11,0,21.5-0.3,31.3-1.1c0.7-5.1,1.7-12.7,1.7-21.9
					c0-15.7-2.2-26.4,0.5-27.6c2-0.8,3.9,4.2,8.8,7c10.8,5.9,25.9-6.7,28.1-8.4c19.3-16.3,19.6-47.2,19.3-52.3
					c-2.9-1.4-5.6-2.8-8.6-3.9c-13.2,31.8-21.5,37.4-26.4,36.6c-5.4-0.8-6.9-9.6-15.7-18c-9.1-8.7-19.3-11.2-26.7-12.1
					c0,0-12,1.1-13.7,0c-3.9,0-9.8,1.1-13.5,5.9c-4.7,5.6-3.9,13.5-3.2,26.2c0.5,9,1,22.2,1.2,38.5
					C128.8,276.6,128.3,286.7,127.8,297.1z"/>
			</g>
		</g>
		<path class="st39" d="M131.1,299.5l9.4,6.4c1.9,1.4,4.5,1.1,6-0.5l0.6-0.8c1.5-1.6,1-3.9-0.8-5.3l-9.4-6.4c-1.9-1.4-4.5-1.1-6,0.5
			l-0.6,0.8C128.7,296.1,129.2,298.4,131.1,299.5z"/>
		<path class="st35" d="M159.6,195.6l1-4.5c0,0,10,6.5,10-12.7c0,0,0-14.9-5.6-15.7c0,0-16.6-6.5-17.4,4.2l-2,11.5l1,10.7
			c0,0-1,6.5-2,6.5C145,195.3,154.7,198.9,159.6,195.6z"/>
		<path class="st40" d="M170.7,166.9c2-6.2,1.5-12.4-1.5-15.2c-2.9-3.1-7.3-2.8-13.2-0.6c-23,8.4-17.4,11.5-14.7,23.3
			s2,15.7,9.3,13.8c7.3-2.2,15.7,1.1,12-7.3c-3.7-8.4,2-11.5,4.7-7.3s-1-6.5-1-6.5c0.2-0.3,1-0.6,1.7-0.8
			C169.2,166,170.4,166.6,170.7,166.9z"/>
	</g>
</g>
</svg>
