<?xml version="1.0" encoding="utf-8"?>
<!-- Generator: Adobe Illustrator 23.0.3, SVG Export Plug-In . SVG Version: 6.00 Build 0)  -->
<svg version="1.1" xmlns="http://www.w3.org/2000/svg" xmlns:xlink="http://www.w3.org/1999/xlink" x="0px" y="0px"
	 viewBox="0 0 500 500" style="enable-background:new 0 0 500 500;" xml:space="preserve">
<style type="text/css">
	.st0{display:none;}
	.st1{display:inline;}
	.st2{fill:url(#SVGID_1_);}
	.st3{fill:#E5E5E5;}
	.st4{display:inline;fill:url(#SVGID_2_);}
	.st5{display:inline;fill:url(#SVGID_3_);}
	.st6{display:inline;fill:url(#SVGID_4_);}
	.st7{display:inline;fill:url(#SVGID_5_);}
	.st8{display:inline;fill:#DBECFA;}
	.st9{display:inline;fill:url(#SVGID_6_);}
	.st10{display:inline;fill:#143352;}
	.st11{display:inline;fill:url(#SVGID_7_);}
	.st12{display:inline;fill:none;stroke:#FFFFFF;stroke-width:2;stroke-miterlimit:10;}
	.st13{fill:none;stroke:#FFFFFF;stroke-width:2;stroke-miterlimit:10;}
	.st14{display:inline;fill:#FFFFFF;}
	.st15{display:inline;fill-rule:evenodd;clip-rule:evenodd;fill:#E5E5E5;}
	.st16{display:inline;fill:#E5E5E5;}
	.st17{fill:#202557;}
	.st18{fill:#1F81C5;}
	.st19{fill:#137BAA;}
	.st20{fill:#F6A21D;}
	.st21{opacity:0.5;fill:#202557;}
	.st22{fill:#F17F21;}
	.st23{fill:#FDD462;}
	.st24{opacity:0.3;fill:#FFFFFF;}
	.st25{opacity:0.2;fill:#FAE5A0;}
	.st26{display:inline;fill:#202557;}
	.st27{display:inline;fill:#1F81C5;}
	.st28{display:inline;fill:#D5B694;}
	.st29{opacity:0;}
	.st30{fill:#143352;}
	.st31{fill:#D5B694;}
	.st32{fill:#5E8ECA;}
	.st33{fill:#FFFFFF;}
	.st34{fill:#345CAA;}
	.st35{fill:#BAE3F1;}
	.st36{fill:#6C493B;}
	.st37{fill:#F1A46B;}
	.st38{fill:#FBB784;}
	.st39{display:none;fill:none;stroke:#010101;stroke-width:2;stroke-miterlimit:10;}
	.st40{display:none;fill:#010101;}
	.st41{display:inline;fill:#010101;}
	.st42{fill:#F36F56;}
	.st43{fill:#895C4C;}
	.st44{fill:none;stroke:#010101;stroke-width:2;stroke-miterlimit:10;}
	.st45{fill:#010101;}
	.st46{fill:#CDECF9;}
	.st47{fill:#09436B;}
	.st48{display:none;fill:#005A8E;}
	.st49{display:inline;fill:#293A88;}
	.st50{fill:#FBC216;}
	.st51{display:inline;fill:#1A4276;}
	.st52{display:inline;fill:#E1AF8D;}
	.st53{display:inline;fill:#E8B38E;}
	.st54{display:inline;fill:#342819;}
	.st55{display:inline;fill:url(#SVGID_8_);}
	.st56{display:inline;fill:#FFC60E;}
	.st57{display:inline;fill:url(#SVGID_9_);}
	.st58{display:inline;fill:#30BFC3;}
	.st59{display:inline;fill:url(#SVGID_10_);}
	.st60{display:inline;fill:url(#SVGID_11_);}
	.st61{fill:#7CC793;}
	.st62{display:none;fill:#D5B694;}
	.st63{display:inline;fill:none;stroke:#FBC216;stroke-width:3;stroke-miterlimit:10;}
	.st64{fill:none;stroke:#1F81C5;stroke-width:3;stroke-miterlimit:10;}
	.st65{opacity:0.19;fill:url(#SVGID_12_);enable-background:new    ;}
	.st66{fill:#293A88;}
	.st67{fill:none;stroke:#69B8E7;stroke-width:0.3666;stroke-miterlimit:10;}
	.st68{fill:none;stroke:#38B778;stroke-width:0.3666;stroke-miterlimit:10;}
	.st69{fill:#FED874;}
	.st70{fill:#398BCA;}
	.st71{fill:none;stroke:#EDBF48;stroke-width:0.3666;stroke-miterlimit:10;}
	.st72{display:inline;fill:url(#SVGID_13_);}
</style>
<g id="Layer_2" class="st0">
</g>
<g id="Layer_6" class="st0">
	<g id="Layer_18" class="st1">
		<linearGradient id="SVGID_1_" gradientUnits="userSpaceOnUse" x1="251.042" y1="416.1441" x2="250.8856" y2="333.6339">
			<stop  offset="0.2088" style="stop-color:#FFFFFF"/>
			<stop  offset="0.6887" style="stop-color:#E5E5E5"/>
		</linearGradient>
		<ellipse class="st2" cx="251" cy="373.4" rx="226.2" ry="41.3"/>
	</g>
	<ellipse class="st3" cx="441.6" cy="357.5" rx="37.3" ry="7.2"/>
	<ellipse class="st3" cx="276.5" cy="357" rx="127.5" ry="5.4"/>
	<linearGradient id="SVGID_2_" gradientUnits="userSpaceOnUse" x1="419.6648" y1="439.8892" x2="419.6442" y2="429.0308">
		<stop  offset="0.2397" style="stop-color:#FFFFFF"/>
		<stop  offset="0.7303" style="stop-color:#E5E5E5"/>
	</linearGradient>
	<ellipse class="st4" cx="419.7" cy="434.5" rx="45.4" ry="5.4"/>
	<linearGradient id="SVGID_3_" gradientUnits="userSpaceOnUse" x1="169.9287" y1="411.1939" x2="169.9081" y2="400.3367">
		<stop  offset="0.2397" style="stop-color:#FFFFFF"/>
		<stop  offset="0.7303" style="stop-color:#E5E5E5"/>
	</linearGradient>
	<ellipse class="st5" cx="169.9" cy="405.8" rx="19.5" ry="5.4"/>
</g>
<g id="Layer_5" class="st0">
	<linearGradient id="SVGID_4_" gradientUnits="userSpaceOnUse" x1="258.6061" y1="327.6989" x2="293.731" y2="327.6989">
		<stop  offset="0.3569" style="stop-color:#3E98D3"/>
		<stop  offset="0.8526" style="stop-color:#4EA3DA"/>
	</linearGradient>
	<rect x="258.6" y="297.5" class="st6" width="35.1" height="60.4"/>
	<linearGradient id="SVGID_5_" gradientUnits="userSpaceOnUse" x1="127.2693" y1="191.5029" x2="429.927" y2="191.5029">
		<stop  offset="0.3569" style="stop-color:#3E98D3"/>
		<stop  offset="0.8526" style="stop-color:#4EA3DA"/>
	</linearGradient>
	<path class="st7" d="M423.7,300.6H133.5c-3.3,0-6.2-2.8-6.2-6.2V88.7c0-3.5,2.8-6.2,6.2-6.2h290.2c3.3,0,6.2,2.8,6.2,6.2v205.5
		C429.9,297.6,427,300.6,423.7,300.6z"/>
</g>
<g id="Layer_5_copy" class="st0">
	<rect x="260.5" y="290.2" class="st8" width="31.8" height="54.7"/>
	
		<linearGradient id="SVGID_6_" gradientUnits="userSpaceOnUse" x1="141.5192" y1="2162.2026" x2="415.6771" y2="2162.2026" gradientTransform="matrix(1 0 0 1 0 -1968)">
		<stop  offset="5.586533e-02" style="stop-color:#3E98D3"/>
		<stop  offset="0.1592" style="stop-color:#489ED7"/>
		<stop  offset="0.4867" style="stop-color:#4EA3DA"/>
	</linearGradient>
	<path class="st9" d="M410,293H147.2c-3,0-5.7-2.5-5.7-5.7V101.1c0-3.1,2.5-5.7,5.7-5.7H410c3,0,5.7,2.5,5.7,5.7v186.1
		C415.7,290.3,413,293,410,293z"/>
</g>
<g id="Layer_7" class="st0">
	<rect x="139.9" y="96.3" class="st10" width="277.1" height="192.1"/>
</g>
<g id="Layer_8" class="st0">
	
		<linearGradient id="SVGID_7_" gradientUnits="userSpaceOnUse" x1="214.3859" y1="1322.5472" x2="338.2495" y2="1322.5472" gradientTransform="matrix(1 0 0 1 0 -968)">
		<stop  offset="5.586533e-02" style="stop-color:#3E98D3"/>
		<stop  offset="0.1592" style="stop-color:#489ED7"/>
		<stop  offset="0.4867" style="stop-color:#4EA3DA"/>
	</linearGradient>
	<path class="st11" d="M334.7,357.9H217.5c-1.9,0-3.3-1.4-3.3-3.3l0,0c0-1.9,1.4-3.3,3.3-3.3h117.2c1.9,0,3.3,1.4,3.3,3.3l0,0
		C338,356.5,336.6,357.9,334.7,357.9z"/>
</g>
<g id="Layer_9" class="st0">
	<path class="st12" d="M188.9,225.3h-23.3c-1,0-1.8-0.8-1.8-1.8v-23.3c0-1,0.8-1.8,1.8-1.8h23.3c1,0,1.8,0.8,1.8,1.8v23.3
		C190.6,224.5,189.8,225.3,188.9,225.3z"/>
	<polyline class="st13" points="171.5,210 174.8,215.2 184.3,208.9 	"/>
</g>
<g id="Layer_9_copy" class="st0">
	<path class="st12" d="M188.9,186.5h-23.3c-1,0-1.8-0.8-1.8-1.8v-23.3c0-1,0.8-1.8,1.8-1.8h23.3c1,0,1.8,0.8,1.8,1.8v23.3
		C190.6,185.7,189.8,186.5,188.9,186.5z"/>
	<polyline class="st12" points="170.1,170.8 173.8,176.6 184.3,169.6 	"/>
	<path class="st12" d="M188.9,264.2h-23.3c-1,0-1.8-0.8-1.8-1.8v-23.3c0-1,0.8-1.8,1.8-1.8h23.3c1,0,1.8,0.8,1.8,1.8v23.3
		C190.6,263.4,189.8,264.2,188.9,264.2z"/>
	<polyline class="st13" points="171.5,245 174.8,250.2 184.3,243.9 	"/>
	<path class="st12" d="M188.9,148.8h-23.3c-1,0-1.8-0.8-1.8-1.8v-23.3c0-1,0.8-1.8,1.8-1.8h23.3c1,0,1.8,0.8,1.8,1.8V147
		C190.6,148,189.8,148.8,188.9,148.8z"/>
	<polyline class="st12" points="170.1,133.1 173.8,138.9 184.3,131.9 	"/>
</g>
<g id="Layer_11_copy" class="st0">
	<path class="st14" d="M376.6,223.9h-174c-2,0-3.7-1.6-3.7-3.7l0,0c0-2,1.6-3.7,3.7-3.7h174c2,0,3.7,1.6,3.7,3.7l0,0
		C380.3,222.3,378.7,223.9,376.6,223.9z"/>
	<path class="st14" d="M376.6,208.1h-174c-2,0-3.7-1.6-3.7-3.7v0c0-2,1.6-3.7,3.7-3.7h174c2,0,3.7,1.6,3.7,3.7v0
		C380.3,206.5,378.7,208.1,376.6,208.1z"/>
	<path class="st14" d="M390.7,263.4H202.9c-2.2,0-4-1.8-4-4l0,0c0-2.2,1.8-4,4-4h187.8c2.2,0,4,1.8,4,4l0,0
		C394.7,261.6,392.9,263.4,390.7,263.4z"/>
	<path class="st14" d="M390.7,246.4H202.9c-2.2,0-4-1.8-4-4v0c0-2.2,1.8-4,4-4h187.8c2.2,0,4,1.8,4,4v0
		C394.7,244.6,392.9,246.4,390.7,246.4z"/>
</g>
<g id="Layer_11_1_" class="st0">
	<path class="st14" d="M390.7,186.9H202.9c-2.2,0-4-1.8-4-4v0c0-2.2,1.8-4,4-4h187.8c2.2,0,4,1.8,4,4v0
		C394.7,185.1,392.9,186.9,390.7,186.9z"/>
	<path class="st14" d="M390.7,169.9H202.9c-2.2,0-4-1.8-4-4v0c0-2.2,1.8-4,4-4h187.8c2.2,0,4,1.8,4,4v0
		C394.7,168.1,392.9,169.9,390.7,169.9z"/>
</g>
<g id="Layer_11_copy_2" class="st0">
	<path class="st14" d="M376.6,147.3h-174c-2,0-3.7-1.6-3.7-3.7l0,0c0-2,1.6-3.7,3.7-3.7h174c2,0,3.7,1.6,3.7,3.7l0,0
		C380.3,145.7,378.7,147.3,376.6,147.3z"/>
	<path class="st14" d="M376.6,131.6h-174c-2,0-3.7-1.6-3.7-3.7v0c0-2,1.6-3.7,3.7-3.7h174c2,0,3.7,1.6,3.7,3.7v0
		C380.3,129.9,378.7,131.6,376.6,131.6z"/>
</g>
<g id="Layer_15" class="st0">
	<path class="st15" d="M60.5,357.9h386.3v-54.2h5v-5.6h-10.2c-1.2-7.8-4.5-14.8-9.4-20.5l-0.2-6.8l5.5-3.2v-6.9h-5.7l-0.9-34.7
		l5.8-3.5v-6.6h-6.1l-0.8-34.1l4-2.4v-5.6h-4.3l-0.4-15.5h2.2v-2h-0.8c-0.4-2.6-1.7-9.8-3.6-13.7c-1.5-3.1-3.7-5.9-4.7-7.1
		c0.5-0.2,0.9-0.5,0.9-1c0-0.5-0.4-0.9-1-1l-0.2-10.8l-0.6,10.8c-0.6,0.1-1,0.5-1,1c0,0.4,0.4,0.8,0.9,1c-1.2,1.2-3.9,4.3-5.6,8.3
		c-1.8,4.1-2.9,10.2-3.3,12.5h-0.9v2h3l0.1,15.5h-3.7v5.6l3.7,2.3l0.2,34.3h-4.8v6.6l4.9,3l0.2,35.1h-5.8v0.6
		c-1.8-2.4-4.7-4.1-7.9-4.3l-1.4-13.2c3.7-0.3,6.5-3.3,6.5-7.1c0-0.6-0.1-1.2-0.2-1.7c-0.8,3-3.4,5.3-6.7,5.4l0-0.2l0,0.2
		c-0.1,0-0.1,0-0.2,0c-3.3,0-6.1-2.3-6.9-5.4c-0.1,0.5-0.2,1.1-0.2,1.7c0,3.9,3.1,7,6.9,7.1l-1.5,13.5c-0.6,0.2-1.2,0.4-1.7,0.6
		c-5.1-6.2-13-13.7-25-21.2c-11-6.8-22.8-10.5-34.7-11.9c0.4-5.9-3.3-9.4-6.8-12c-0.9-0.7-1.7-1.4-2.3-2c-0.3-6.9-1.2-25.9-1.7-34.8
		c-0.6-11.1-1.4-2.7-2.3,13.6c-0.7,12.3-1,19.1-1.1,21.6c-2,1.8-4.6,2.7-6.5,4.7c-2.2,2.4-3.3,5.5-3,9.4c-14.8,2.3-28.6,8-39.5,16.1
		c-6,4.5-10.8,8.7-14.6,12.6l-0.8-33l8.7-5.2V206h-9l-1.3-51l6-3.6V143h-6.3l-0.6-23.1h3.3v-2.9h-1.2c-0.6-3.9-2.5-14.6-5.3-20.4
		c-2.2-4.6-5.6-8.9-7-10.6c0.8-0.2,1.4-0.8,1.4-1.5c0-0.7-0.6-1.3-1.5-1.5l-0.3-16.1L243.5,83c-0.9,0.2-1.6,0.8-1.6,1.5
		c0,0.6,0.5,1.2,1.3,1.4c-1.7,1.8-5.8,6.4-8.4,12.4c-2.6,6.2-4.4,15.2-5,18.6h-1.4v2.9h4.5l0.1,23.1h-5.5v8.4l5.5,3.4l0.3,51.2h-7.2
		v9.8l7.3,4.5l0.3,51.6h-2v0.9h-4.6c-3.9-21.8-20.2-39.2-41.4-44.6c-1.9-5.4-6.8-9.4-12.8-9.8l-1.9-17.8c5-0.4,8.9-4.5,8.9-9.6
		c0-0.8-0.1-1.6-0.3-2.3c-1,4.1-4.6,7.2-9,7.3l0-0.2l0,0.2c-0.1,0-0.2,0-0.3,0c-4.5,0-8.3-3.1-9.3-7.3c-0.2,0.7-0.3,1.5-0.3,2.3
		c0,5.2,4.2,9.5,9.4,9.6l-2.1,18.3c-4.6,1.3-8.2,4.8-9.7,9.2c-21.7,5.5-38.2,23.5-41.7,46h-2.3c-1.7-1.4-3.9-2.4-6.2-2.5l-1.4-13.2
		c3.7-0.3,6.5-3.3,6.5-7.1c0-0.6-0.1-1.2-0.2-1.7c-0.7,3-3.4,5.3-6.7,5.4l0-0.2l0,0.2c-0.1,0-0.1,0-0.2,0c-3.4,0-6.1-2.3-6.9-5.4
		c-0.1,0.5-0.2,1.1-0.2,1.7c0,3.9,3.1,7,6.9,7.1l-1.5,13.5c-3.4,1-6,3.5-7.2,6.8c-4,1-7.8,2.6-11.3,4.7l-0.7-26.7l5.5-3.3v-6.2h-5.7
		L84,215.1l3.8-2.3v-5.3h-4l-0.4-14.7h2.1V191h-0.8c-0.4-2.5-1.6-9.3-3.4-13c-1.4-3-3.5-5.6-4.4-6.7c0.5-0.1,0.9-0.5,0.9-0.9
		c0-0.4-0.4-0.8-1-0.9l-0.2-10.2l-0.6,10.2c-0.6,0.1-1,0.5-1,0.9c0,0.4,0.3,0.8,0.8,0.9c-1.1,1.1-3.7,4-5.3,7.9
		c-1.7,3.9-2.8,9.6-3.2,11.8h-0.9v1.9h2.8l0.1,14.7h-3.5v5.3l3.5,2.2l0.2,32.4h-4.6v6.2l4.6,2.9l0.2,33.3h-5.5v6.5l5.6,3.4l0,0.9
		c-1.9,3.8-3.2,7.9-3.9,12.2h-9.8v5.6h4.1V357.9z"/>
</g>
<g id="Layer_17" class="st0">
	<ellipse class="st16" cx="85.1" cy="420.1" rx="71.9" ry="6"/>
</g>
<g id="Layer_16" class="st0">
	<g class="st1">
		<path class="st17" d="M28.1,303.9c0,0,33.6-2.9,61.8,0.4c0,0-12,6-29.4,6C35.1,310.3,28.1,303.9,28.1,303.9z"/>
		<path class="st18" d="M100.6,381.4c0,13.3-4.6,22.2-10.7,28.1l0,0c-10.5,10.2-25.6,11.6-29.6,11.4c-0.7,0-1.3,0-2,0
			c-6,0-37.5-1.5-40.6-35.3c-3.5-37.9,32.8-60.5,32.8-60.5H68C68,325.2,100.6,343.3,100.6,381.4z"/>
		<path class="st19" d="M89.9,409.6c-10.5,10.2-25.6,11.6-29.6,11.4c-0.7,0-1.3,0-2,0c-6,0-37.5-1.5-40.6-35.3
			c-3.5-37.9,32.8-60.5,32.8-60.5h8.5c0,0-28.1,25.2-23.6,54.8C39.7,409.6,78.5,420.5,89.9,409.6z"/>
		<path class="st18" d="M89.9,304.3l-12.5,12.5c0,0,0,0,0,0l-1.3,1.3l-4.6,4.6H46.9l-18.9-18.9c5.5,0.9,10.9,1.7,16.3,2.3
			c1.2,0.1,2.4,0.2,3.6,0.3C62.1,307.7,76.1,307.4,89.9,304.3z"/>
		<path class="st19" d="M57.4,322.8H46.9l-18.9-18.9c5.5,0.9,10.9,1.7,16.3,2.3c1.2,0.1,2.4,0.2,3.6,0.3v0c0,0-1.8,3.4,4.1,8.1
			C55.6,317.4,56.9,320.6,57.4,322.8z"/>
		<g>
			<g>
				<path class="st20" d="M64.5,389.3l0,5.6l-7.2,0l0-5.4c-5.1-0.3-10-1.7-13-3.5l3.8-8.7c3.3,2,7.8,3.2,11.7,3.2
					c3.4,0,4.6-0.7,4.6-1.9c0-4.5-19.6-0.8-19.6-14.1c0-5.7,4.1-10.6,12.5-11.7l0-5.5l7.2,0l0,5.4c3.8,0.4,7.4,1.3,10.3,2.9
					l-3.6,8.7c-3.5-1.8-6.8-2.6-9.9-2.6c-3.5,0-4.6,1-4.6,2.2c0,4.3,19.6,0.7,19.6,13.8C76.4,383.1,72.4,387.9,64.5,389.3z"/>
			</g>
		</g>
		<g>
			<g>
				<path class="st17" d="M48.9,325.2L48.9,325.2l-0.2,0.7l-0.5,1.8l-0.5,1.9l-2.3,9c-0.1,0.3-0.3,0.6-0.5,0.7
					c-0.2,0.2-0.5,0.3-0.8,0.3c-0.9,0-1.6-0.9-1.3-1.7l2.2-8.3l1-3.7l0.2-0.7H48.9z"/>
				<path class="st17" d="M52.2,338.5c0,0.6-0.4,1.1-0.9,1.3c-0.8,0.3-1.8-0.3-1.9-1.2l-0.9-9l-0.2-1.9l-0.2-1.8l0-0.4l0.9-0.3
					l1.7-0.7l0.1,1.4l0.4,3.7l0.9,8.7C52.2,338.4,52.2,338.5,52.2,338.5z"/>
				<polygon class="st21" points="51.2,329.7 48.5,329.7 48.3,327.8 47.8,329.7 45,329.7 45.9,326 50.8,326 				"/>
			</g>
			<g>
				<path class="st17" d="M73.3,324.7c0,1-0.8,1.9-1.9,1.9H46.3c-0.5,0-1-0.2-1.3-0.5c-0.3-0.3-0.5-0.8-0.5-1.3c0,0,0,0,0,0
					c0-1,0.9-1.8,1.9-1.8h25.1c0.5,0,1,0.2,1.3,0.5C73.1,323.7,73.3,324.1,73.3,324.7C73.3,324.6,73.3,324.6,73.3,324.7z"/>
				<path class="st21" d="M73.3,324.7c0,1-0.8,1.9-1.9,1.9H46.3c-0.5,0-1-0.2-1.3-0.5c-0.3-0.3-0.5-0.8-0.5-1.3c0,0,0,0,0,0
					L73.3,324.7C73.3,324.6,73.3,324.6,73.3,324.7z"/>
				<path class="st17" d="M74.5,321.5c0,0.3-0.1,0.7-0.4,0.9c-0.2,0.2-0.5,0.4-0.9,0.4H44.9c-0.7,0-1.3-0.6-1.3-1.3
					c0-0.3,0.1-0.7,0.4-0.9c0.2-0.2,0.5-0.4,0.9-0.4h28.3C73.9,320.3,74.5,320.8,74.5,321.5z"/>
				<path class="st21" d="M74.5,321.5c0,0.3-0.1,0.7-0.4,0.9c-0.2,0.2-0.5,0.4-0.9,0.4H44.9c-0.7,0-1.3-0.6-1.3-1.3H74.5z"/>
			</g>
		</g>
	</g>
	<g class="st1">
		<g>
			<g>
				<path class="st20" d="M135.2,412.2C135.2,412.2,135.2,412.3,135.2,412.2c0,1.1-0.5,2-1.5,2.9c-0.2,0.2-0.5,0.4-0.8,0.6
					c-0.8,0.6-1.8,1.1-3,1.7c-0.3,0.1-0.5,0.2-0.8,0.3c-0.9,0.4-1.9,0.7-3,1c-0.3,0.1-0.5,0.2-0.8,0.2c-1,0.3-2,0.5-3,0.7
					c-0.3,0.1-0.5,0.1-0.8,0.2c-1,0.2-2,0.4-3,0.5c-0.3,0-0.5,0.1-0.8,0.1c-1,0.1-2,0.2-3,0.3c-0.3,0-0.5,0-0.8,0.1
					c-1,0.1-2,0.1-3,0.2c-0.3,0-0.5,0-0.8,0c-1,0-2,0.1-3,0.1c-0.2,0-0.4,0-0.5,0c-0.1,0-0.2,0-0.3,0c-1,0-2,0-3-0.1
					c-0.3,0-0.5,0-0.8,0c-0.8,0-1.5-0.1-2.2-0.1c-0.3,0-0.5,0-0.8-0.1c-0.3,0-0.5,0-0.8-0.1c-1-0.1-2-0.2-3-0.3
					c-0.3,0-0.5-0.1-0.8-0.1c-0.6-0.1-1.2-0.2-1.8-0.3c-0.4-0.1-0.8-0.1-1.2-0.2c-0.3,0-0.5-0.1-0.8-0.2c-1.1-0.2-2.1-0.4-3-0.7
					c-0.2,0-0.4-0.1-0.6-0.2c-0.1,0-0.2,0-0.2-0.1c-0.4-0.1-0.9-0.2-1.3-0.4c-0.6-0.2-1.2-0.4-1.8-0.6c-0.3-0.1-0.5-0.2-0.8-0.3
					c-1-0.4-1.9-0.9-2.7-1.4c-0.1-0.1-0.2-0.1-0.3-0.2c-0.1-0.1-0.3-0.2-0.4-0.3c-0.1-0.1-0.3-0.2-0.4-0.3c-1.2-1-1.8-2-1.8-3.1
					c0-0.1,0-0.2,0-0.2l0-6.2l1.8,0l0.8,0l3,0l0.8,0l2.4,0l0.7,0l0.8,0l3,0l0.8,0l3,0l0.8,0l3,0l0.8,0l3,0l0.8,0l3,0l0.8,0l3,0
					l0.8,0l3,0l0.8,0l3,0l0.8,0l3,0l0.8,0l3,0l0.8,0h0.2l2.8,0l0.8,0l3,0l0.8,0l1.5,0L135.2,412.2L135.2,412.2z"/>
				<g>
					<g>
						<path class="st22" d="M80.1,405.9V416c-0.1-0.1-0.3-0.2-0.4-0.3c-0.1-0.1-0.3-0.2-0.4-0.3v-9.5L80.1,405.9z"/>
						<path class="st22" d="M84,405.9v12c-0.3-0.1-0.5-0.2-0.8-0.3v-11.7L84,405.9z"/>
						<path class="st22" d="M87.8,405.9v13.2c-0.2,0-0.4-0.1-0.6-0.2c-0.1,0-0.2,0-0.2-0.1v-13L87.8,405.9z"/>
						<path class="st22" d="M91.6,405.9V420c-0.3,0-0.5-0.1-0.8-0.2v-13.9L91.6,405.9z"/>
						<path class="st22" d="M95.5,405.9v14.7c-0.3,0-0.5-0.1-0.8-0.1v-14.5L95.5,405.9z"/>
						<path class="st22" d="M99.3,405.9v15.1c-0.3,0-0.5,0-0.8-0.1v-15L99.3,405.9z"/>
						<path class="st22" d="M103.1,405.9v15.3c-0.3,0-0.5,0-0.8,0v-15.2L103.1,405.9z"/>
						<path class="st22" d="M106.9,405.9v15.3c-0.2,0-0.4,0-0.5,0c-0.1,0-0.2,0-0.3,0v-15.3L106.9,405.9z"/>
						<path class="st22" d="M110.8,405.9v15.2c-0.3,0-0.5,0-0.8,0v-15.3L110.8,405.9z"/>
						<path class="st22" d="M114.6,405.9v15c-0.3,0-0.5,0-0.8,0.1v-15.1L114.6,405.9z"/>
						<path class="st22" d="M118.4,405.9v14.5c-0.3,0-0.5,0.1-0.8,0.1v-14.7L118.4,405.9z"/>
						<path class="st22" d="M122.2,405.8v13.9c-0.3,0.1-0.5,0.1-0.8,0.2v-14.1L122.2,405.8z"/>
						<path class="st22" d="M126.1,405.8v13c-0.3,0.1-0.5,0.2-0.8,0.2v-13.2L126.1,405.8z"/>
						<path class="st22" d="M129.9,405.8v11.6c-0.3,0.1-0.5,0.2-0.8,0.3v-12L129.9,405.8z"/>
						<path class="st22" d="M133.7,405.8v9.3c-0.2,0.2-0.5,0.4-0.8,0.6v-10L133.7,405.8z"/>
					</g>
				</g>
			</g>
			<g>
				<g>
					<path class="st23" d="M135.2,405.9c0,4.5-12.9,8.2-28.8,8.2c-2.2,0-4.3-0.1-6.3-0.2c-2.6-0.2-5-0.4-7.3-0.8
						c-2-0.3-3.9-0.7-5.6-1.1c-0.5-0.1-1-0.3-1.5-0.4c-2.1-0.6-3.9-1.3-5.2-2.1c-0.3-0.2-0.5-0.3-0.7-0.5c-1.4-1-2.2-2-2.2-3.1
						c0-0.1,0-0.2,0-0.3c0.6-4.4,13.2-7.9,28.8-7.9c3.8,0,7.5,0.2,10.8,0.6c0.6,0.1,1.3,0.2,1.9,0.2c2.7,0.4,5.2,0.9,7.3,1.5
						c0.5,0.1,0.9,0.3,1.4,0.4c1.6,0.5,2.9,1,4,1.6c1.1,0.6,2,1.3,2.6,2c0.4,0.5,0.7,1,0.7,1.6C135.2,405.7,135.2,405.8,135.2,405.9
						z"/>
					<path class="st24" d="M134.5,404l-34.4,9.9c-2.6-0.2-5-0.4-7.3-0.8l39.1-11.1C133,402.7,133.9,403.3,134.5,404z"/>
					<path class="st24" d="M119.1,398.6l-38.6,10.9c-0.3-0.2-0.5-0.3-0.7-0.5l37.5-10.7C117.9,398.4,118.5,398.5,119.1,398.6z"/>
					<path class="st24" d="M127.8,400.4L87.2,412c-0.5-0.1-1-0.3-1.5-0.4l40.7-11.6C126.9,400.2,127.4,400.3,127.8,400.4z"/>
					<path class="st22" d="M129.4,405.9c0,0.1,0,0.2,0,0.3c-0.6,3.5-10.7,6.2-23,6.2c-12.4,0-22.5-2.8-23-6.2c0-0.1,0-0.2,0-0.3
						c0-3.6,10.3-6.5,23-6.5S129.4,402.3,129.4,405.9z"/>
					<path class="st20" d="M129.4,406.2c-0.6,3.5-10.7,6.2-23,6.2c-0.3,0-0.5,0-0.8,0c-2.8,0-5.4-0.2-7.8-0.5
						c-2.4-0.3-4.7-0.7-6.6-1.2c-0.5-0.1-1-0.3-1.4-0.4c-2.1-0.6-3.7-1.3-4.8-2.1c-0.3-0.2-0.5-0.4-0.7-0.6c-0.5-0.5-0.8-1-0.8-1.5
						c0.6-3.5,10.7-6.2,23-6.2c1.6,0,3.1,0,4.6,0.1c0.8,0,1.5,0.1,2.2,0.2c3,0.3,5.7,0.7,8,1.2c0.5,0.1,1,0.2,1.5,0.4
						c1.8,0.5,3.3,1.1,4.5,1.8c1.1,0.6,1.9,1.3,2.2,2.1C129.4,405.9,129.4,406,129.4,406.2z"/>
					<path class="st25" d="M129.3,405.7l-23.7,6.7c-2.8,0-5.4-0.2-7.8-0.5l29.4-8.3C128.2,404.3,129,405,129.3,405.7z"/>
					<path class="st25" d="M113.2,400.3l-28.3,8c-0.3-0.2-0.5-0.4-0.7-0.6l26.7-7.6C111.7,400.1,112.5,400.2,113.2,400.3z"/>
					<path class="st25" d="M122.7,401.9l-31.5,8.9c-0.5-0.1-1-0.3-1.4-0.4l31.5-8.9C121.7,401.6,122.2,401.7,122.7,401.9z"/>
					<g>
						<g>
							<g>
								<path class="st22" d="M109.6,409.6v1.1h-4.9v-1c-3.4-0.1-6.8-0.3-8.9-0.7l2.6-1.7c2.3,0.4,5.3,0.6,8,0.6
									c2.3,0,3.1-0.1,3.1-0.4c0-0.9-13.3-0.2-13.3-2.7c0-1.1,2.8-2,8.5-2.3v-1.1h4.9v1c2.6,0.1,5,0.3,7,0.6l-2.4,1.7
									c-2.4-0.3-4.6-0.5-6.7-0.5c-2.4,0-3.1,0.2-3.1,0.4c0,0.8,13.3,0.1,13.3,2.7C117.6,408.4,115,409.4,109.6,409.6z"/>
							</g>
						</g>
						<g>
							<path class="st23" d="M109.5,409.3v1.1h-4.9v-1c-3.4-0.1-6.8-0.3-8.9-0.7l2.6-1.7c2.3,0.4,5.3,0.6,8,0.6
								c2.3,0,3.1-0.1,3.1-0.4c0-0.9-13.3-0.2-13.3-2.7c0-1.1,2.8-2,8.5-2.3v-1.1h4.9v1c2.6,0.1,5,0.3,7,0.6l-2.4,1.7
								c-2.4-0.3-4.6-0.5-6.7-0.5c-2.4,0-3.1,0.2-3.1,0.4c0,0.8,13.3,0.1,13.3,2.7C117.5,408.1,114.8,409,109.5,409.3z"/>
						</g>
					</g>
				</g>
			</g>
		</g>
		<g>
			<g>
				<path class="st20" d="M137.1,402.1C137.1,402.1,137.1,402.2,137.1,402.1c0,1.1-0.5,2-1.5,2.9c-0.2,0.2-0.5,0.4-0.8,0.6
					c-0.8,0.6-1.8,1.1-3,1.7c-0.3,0.1-0.5,0.2-0.8,0.3c-0.9,0.4-1.9,0.7-3,1c-0.3,0.1-0.5,0.2-0.8,0.2c-1,0.3-2,0.5-3,0.7
					c-0.3,0.1-0.5,0.1-0.8,0.2c-1,0.2-2,0.4-3,0.5c-0.3,0-0.5,0.1-0.8,0.1c-1,0.1-2,0.2-3,0.3c-0.3,0-0.5,0-0.8,0.1
					c-1,0.1-2,0.1-3,0.2c-0.3,0-0.5,0-0.8,0c-1,0-2,0.1-3,0.1c-0.2,0-0.4,0-0.5,0c-0.1,0-0.2,0-0.3,0c-1,0-2,0-3-0.1
					c-0.3,0-0.5,0-0.8,0c-0.8,0-1.5-0.1-2.2-0.1c-0.3,0-0.5,0-0.8-0.1c-0.3,0-0.5,0-0.8-0.1c-1-0.1-2-0.2-3-0.3
					c-0.3,0-0.5-0.1-0.8-0.1c-0.6-0.1-1.2-0.2-1.8-0.3c-0.4-0.1-0.8-0.1-1.2-0.2c-0.3,0-0.5-0.1-0.8-0.2c-1.1-0.2-2.1-0.4-3-0.7
					c-0.2,0-0.4-0.1-0.6-0.2c-0.1,0-0.2,0-0.2-0.1c-0.4-0.1-0.9-0.2-1.3-0.4c-0.6-0.2-1.2-0.4-1.8-0.6c-0.3-0.1-0.5-0.2-0.8-0.3
					c-1-0.4-1.9-0.9-2.7-1.4c-0.1-0.1-0.2-0.1-0.3-0.2c-0.1-0.1-0.3-0.2-0.4-0.3c-0.1-0.1-0.3-0.2-0.4-0.3c-1.2-1-1.8-2-1.8-3.1
					c0-0.1,0-0.2,0-0.2l0-6.2l1.8,0l0.8,0l3,0l0.8,0l2.4,0l0.7,0l0.8,0l3,0l0.8,0l3,0l0.8,0l3,0l0.8,0l3,0l0.8,0l3,0l0.8,0l3,0
					l0.8,0l3,0l0.8,0l3,0l0.8,0l3,0l0.8,0l3,0l0.8,0h0.2l2.8,0l0.8,0l3,0l0.8,0l1.5,0L137.1,402.1L137.1,402.1z"/>
				<g>
					<g>
						<path class="st22" d="M82,395.8v10.1c-0.1-0.1-0.3-0.2-0.4-0.3c-0.1-0.1-0.3-0.2-0.4-0.3v-9.5L82,395.8z"/>
						<path class="st22" d="M85.8,395.8v12c-0.3-0.1-0.5-0.2-0.8-0.3v-11.7L85.8,395.8z"/>
						<path class="st22" d="M89.6,395.8V409c-0.2,0-0.4-0.1-0.6-0.2c-0.1,0-0.2,0-0.2-0.1v-13L89.6,395.8z"/>
						<path class="st22" d="M93.4,395.8v14.1c-0.3,0-0.5-0.1-0.8-0.2v-13.9L93.4,395.8z"/>
						<path class="st22" d="M97.3,395.8v14.7c-0.3,0-0.5-0.1-0.8-0.1v-14.5L97.3,395.8z"/>
						<path class="st22" d="M101.1,395.8v15.1c-0.3,0-0.5,0-0.8-0.1v-15L101.1,395.8z"/>
						<path class="st22" d="M104.9,395.8v15.3c-0.3,0-0.5,0-0.8,0v-15.2L104.9,395.8z"/>
						<path class="st22" d="M108.7,395.8v15.3c-0.2,0-0.4,0-0.5,0c-0.1,0-0.2,0-0.3,0v-15.3L108.7,395.8z"/>
						<path class="st22" d="M112.6,395.8V411c-0.3,0-0.5,0-0.8,0v-15.3L112.6,395.8z"/>
						<path class="st22" d="M116.4,395.8v15c-0.3,0-0.5,0-0.8,0.1v-15.1L116.4,395.8z"/>
						<path class="st22" d="M120.2,395.8v14.5c-0.3,0-0.5,0.1-0.8,0.1v-14.7L120.2,395.8z"/>
						<path class="st22" d="M124.1,395.7v13.9c-0.3,0.1-0.5,0.1-0.8,0.2v-14.1L124.1,395.7z"/>
						<path class="st22" d="M127.9,395.7v13c-0.3,0.1-0.5,0.2-0.8,0.2v-13.2L127.9,395.7z"/>
						<path class="st22" d="M131.7,395.7v11.6c-0.3,0.1-0.5,0.2-0.8,0.3v-12L131.7,395.7z"/>
						<path class="st22" d="M135.5,395.7v9.3c-0.2,0.2-0.5,0.4-0.8,0.6v-10L135.5,395.7z"/>
					</g>
				</g>
			</g>
			<g>
				<g>
					<path class="st23" d="M137,395.8c0,4.5-12.9,8.2-28.8,8.2c-2.2,0-4.3-0.1-6.3-0.2c-2.6-0.2-5-0.4-7.3-0.8
						c-2-0.3-3.9-0.7-5.6-1.1c-0.5-0.1-1-0.3-1.5-0.4c-2.1-0.6-3.9-1.3-5.2-2.1c-0.3-0.2-0.5-0.3-0.7-0.5c-1.4-1-2.2-2-2.2-3.1
						c0-0.1,0-0.2,0-0.3c0.6-4.4,13.2-7.9,28.8-7.9c3.8,0,7.5,0.2,10.8,0.6c0.6,0.1,1.3,0.2,1.9,0.2c2.7,0.4,5.2,0.9,7.3,1.5
						c0.5,0.1,0.9,0.3,1.4,0.4c1.6,0.5,2.9,1,4,1.6c1.1,0.6,2,1.3,2.6,2c0.4,0.5,0.7,1,0.7,1.6C137,395.6,137,395.7,137,395.8z"/>
					<path class="st24" d="M136.3,393.9l-34.4,9.9c-2.6-0.2-5-0.4-7.3-0.8l39.1-11.1C134.8,392.6,135.7,393.2,136.3,393.9z"/>
					<path class="st24" d="M120.9,388.5l-38.6,10.9c-0.3-0.2-0.5-0.3-0.7-0.5l37.5-10.7C119.7,388.3,120.3,388.4,120.9,388.5z"/>
					<path class="st24" d="M129.7,390.3l-40.6,11.6c-0.5-0.1-1-0.3-1.5-0.4l40.7-11.6C128.8,390.1,129.2,390.2,129.7,390.3z"/>
					<path class="st22" d="M131.3,395.8c0,0.1,0,0.2,0,0.3c-0.6,3.5-10.7,6.2-23,6.2c-12.4,0-22.5-2.8-23-6.2c0-0.1,0-0.2,0-0.3
						c0-3.6,10.3-6.5,23-6.5C120.9,389.3,131.3,392.2,131.3,395.8z"/>
					<path class="st20" d="M131.2,396.1c-0.6,3.5-10.7,6.2-23,6.2c-0.3,0-0.5,0-0.8,0c-2.8,0-5.4-0.2-7.8-0.5
						c-2.4-0.3-4.7-0.7-6.6-1.2c-0.5-0.1-1-0.3-1.4-0.4c-2.1-0.6-3.7-1.3-4.8-2.1c-0.3-0.2-0.5-0.4-0.7-0.6c-0.5-0.5-0.8-1-0.8-1.5
						c0.6-3.5,10.7-6.2,23-6.2c1.6,0,3.1,0,4.6,0.1c0.8,0,1.5,0.1,2.2,0.2c3,0.3,5.7,0.7,8,1.2c0.5,0.1,1,0.2,1.5,0.4
						c1.8,0.5,3.3,1.1,4.5,1.8c1.1,0.6,1.9,1.3,2.2,2.1C131.2,395.8,131.2,395.9,131.2,396.1z"/>
					<path class="st25" d="M131.1,395.6l-23.7,6.7c-2.8,0-5.4-0.2-7.8-0.5l29.4-8.3C130,394.2,130.8,394.9,131.1,395.6z"/>
					<path class="st25" d="M115,390.2l-28.3,8c-0.3-0.2-0.5-0.4-0.7-0.6l26.7-7.6C113.5,390,114.3,390.1,115,390.2z"/>
					<path class="st25" d="M124.5,391.8L93,400.7c-0.5-0.1-1-0.3-1.4-0.4l31.5-8.9C123.5,391.5,124,391.6,124.5,391.8z"/>
					<g>
						<g>
							<g>
								<path class="st22" d="M111.4,399.5v1.1h-4.9v-1c-3.4-0.1-6.8-0.3-8.9-0.7l2.6-1.7c2.3,0.4,5.3,0.6,8,0.6
									c2.3,0,3.1-0.1,3.1-0.4c0-0.9-13.3-0.2-13.3-2.7c0-1.1,2.8-2,8.5-2.3v-1.1h4.9v1c2.6,0.1,5,0.3,7,0.6l-2.4,1.7
									c-2.4-0.3-4.6-0.5-6.7-0.5c-2.4,0-3.1,0.2-3.1,0.4c0,0.8,13.3,0.1,13.3,2.7C119.5,398.3,116.8,399.3,111.4,399.5z"/>
							</g>
						</g>
						<g>
							<path class="st23" d="M111.3,399.2v1.1h-4.9v-1c-3.4-0.1-6.8-0.3-8.9-0.7l2.6-1.7c2.3,0.4,5.3,0.6,8,0.6
								c2.3,0,3.1-0.1,3.1-0.4c0-0.9-13.3-0.2-13.3-2.7c0-1.1,2.8-2,8.5-2.3V391h4.9v1c2.6,0.1,5,0.3,7,0.6l-2.4,1.7
								c-2.4-0.3-4.6-0.5-6.7-0.5c-2.4,0-3.1,0.2-3.1,0.4c0,0.8,13.3,0.1,13.3,2.7C119.3,398,116.6,398.9,111.3,399.2z"/>
						</g>
					</g>
				</g>
			</g>
		</g>
		<g>
			<g>
				<path class="st20" d="M136.8,392C136.8,392,136.8,392.1,136.8,392c0,1.1-0.5,2-1.5,2.9c-0.2,0.2-0.5,0.4-0.8,0.6
					c-0.8,0.6-1.8,1.1-3,1.7c-0.3,0.1-0.5,0.2-0.8,0.3c-0.9,0.4-1.9,0.7-3,1c-0.3,0.1-0.5,0.2-0.8,0.2c-1,0.3-2,0.5-3,0.7
					c-0.3,0.1-0.5,0.1-0.8,0.2c-1,0.2-2,0.4-3,0.5c-0.3,0-0.5,0.1-0.8,0.1c-1,0.1-2,0.2-3,0.3c-0.3,0-0.5,0-0.8,0.1
					c-1,0.1-2,0.1-3,0.2c-0.3,0-0.5,0-0.8,0c-1,0-2,0.1-3,0.1c-0.2,0-0.4,0-0.5,0c-0.1,0-0.2,0-0.3,0c-1,0-2,0-3-0.1
					c-0.3,0-0.5,0-0.8,0c-0.8,0-1.5-0.1-2.2-0.1c-0.3,0-0.5,0-0.8-0.1c-0.3,0-0.5,0-0.8-0.1c-1-0.1-2-0.2-3-0.3
					c-0.3,0-0.5-0.1-0.8-0.1c-0.6-0.1-1.2-0.2-1.8-0.3c-0.4-0.1-0.8-0.1-1.2-0.2c-0.3,0-0.5-0.1-0.8-0.2c-1.1-0.2-2.1-0.4-3-0.7
					c-0.2,0-0.4-0.1-0.6-0.2c-0.1,0-0.2,0-0.2-0.1c-0.4-0.1-0.9-0.2-1.3-0.4c-0.6-0.2-1.2-0.4-1.8-0.6c-0.3-0.1-0.5-0.2-0.8-0.3
					c-1-0.4-1.9-0.9-2.7-1.4c-0.1-0.1-0.2-0.1-0.3-0.2c-0.1-0.1-0.3-0.2-0.4-0.3c-0.1-0.1-0.3-0.2-0.4-0.3c-1.2-1-1.8-2-1.8-3.1
					c0-0.1,0-0.2,0-0.2l0-6.2l1.8,0l0.8,0l3,0l0.8,0l2.4,0l0.7,0l0.8,0l3,0l0.8,0l3,0l0.8,0l3,0l0.8,0l3,0l0.8,0l3,0l0.8,0l3,0
					l0.8,0l3,0l0.8,0l3,0l0.8,0l3,0l0.8,0l3,0l0.8,0h0.2l2.8,0l0.8,0l3,0l0.8,0l1.5,0L136.8,392L136.8,392z"/>
				<g>
					<g>
						<path class="st22" d="M81.7,385.7v10.1c-0.1-0.1-0.3-0.2-0.4-0.3c-0.1-0.1-0.3-0.2-0.4-0.3v-9.5L81.7,385.7z"/>
						<path class="st22" d="M85.5,385.7v12c-0.3-0.1-0.5-0.2-0.8-0.3v-11.7L85.5,385.7z"/>
						<path class="st22" d="M89.3,385.7v13.2c-0.2,0-0.4-0.1-0.6-0.2c-0.1,0-0.2,0-0.2-0.1v-13L89.3,385.7z"/>
						<path class="st22" d="M93.2,385.7v14.1c-0.3,0-0.5-0.1-0.8-0.2v-13.9L93.2,385.7z"/>
						<path class="st22" d="M97,385.7v14.7c-0.3,0-0.5-0.1-0.8-0.1v-14.5L97,385.7z"/>
						<path class="st22" d="M100.8,385.7v15.1c-0.3,0-0.5,0-0.8-0.1v-15L100.8,385.7z"/>
						<path class="st22" d="M104.7,385.7v15.3c-0.3,0-0.5,0-0.8,0v-15.2L104.7,385.7z"/>
						<path class="st22" d="M108.5,385.7V401c-0.2,0-0.4,0-0.5,0c-0.1,0-0.2,0-0.3,0v-15.3L108.5,385.7z"/>
						<path class="st22" d="M112.3,385.7v15.2c-0.3,0-0.5,0-0.8,0v-15.3L112.3,385.7z"/>
						<path class="st22" d="M116.1,385.7v15c-0.3,0-0.5,0-0.8,0.1v-15.1L116.1,385.7z"/>
						<path class="st22" d="M120,385.7v14.5c-0.3,0-0.5,0.1-0.8,0.1v-14.7L120,385.7z"/>
						<path class="st22" d="M123.8,385.6v13.9c-0.3,0.1-0.5,0.1-0.8,0.2v-14.1L123.8,385.6z"/>
						<path class="st22" d="M127.6,385.6v13c-0.3,0.1-0.5,0.2-0.8,0.2v-13.2L127.6,385.6z"/>
						<path class="st22" d="M131.4,385.6v11.6c-0.3,0.1-0.5,0.2-0.8,0.3v-12L131.4,385.6z"/>
						<path class="st22" d="M135.3,385.6v9.3c-0.2,0.2-0.5,0.4-0.8,0.6v-10L135.3,385.6z"/>
					</g>
				</g>
			</g>
			<g>
				<g>
					<path class="st23" d="M136.8,385.7c0,4.5-12.9,8.2-28.8,8.2c-2.2,0-4.3-0.1-6.3-0.2c-2.6-0.2-5-0.4-7.3-0.8
						c-2-0.3-3.9-0.7-5.6-1.1c-0.5-0.1-1-0.3-1.5-0.4c-2.1-0.6-3.9-1.3-5.2-2.1c-0.3-0.2-0.5-0.3-0.7-0.5c-1.4-1-2.2-2-2.2-3.1
						c0-0.1,0-0.2,0-0.3c0.6-4.4,13.2-7.9,28.8-7.9c3.8,0,7.5,0.2,10.8,0.6c0.6,0.1,1.3,0.2,1.9,0.2c2.7,0.4,5.2,0.9,7.3,1.5
						c0.5,0.1,0.9,0.3,1.4,0.4c1.6,0.5,2.9,1,4,1.6c1.1,0.6,2,1.3,2.6,2c0.4,0.5,0.7,1,0.7,1.6C136.8,385.5,136.8,385.6,136.8,385.7
						z"/>
					<path class="st24" d="M136,383.8l-34.4,9.9c-2.6-0.2-5-0.4-7.3-0.8l39.1-11.1C134.6,382.5,135.5,383.1,136,383.8z"/>
					<path class="st24" d="M120.7,378.4L82,389.3c-0.3-0.2-0.5-0.3-0.7-0.5l37.5-10.7C119.4,378.2,120.1,378.3,120.7,378.4z"/>
					<path class="st24" d="M129.4,380.2l-40.6,11.6c-0.5-0.1-1-0.3-1.5-0.4l40.7-11.6C128.5,380,129,380.1,129.4,380.2z"/>
					<path class="st22" d="M131,385.7c0,0.1,0,0.2,0,0.3c-0.6,3.5-10.7,6.2-23,6.2s-22.5-2.8-23-6.2c0-0.1,0-0.2,0-0.3
						c0-3.6,10.3-6.5,23-6.5S131,382.1,131,385.7z"/>
					<path class="st20" d="M131,386c-0.6,3.5-10.7,6.2-23,6.2c-0.3,0-0.5,0-0.8,0c-2.8,0-5.4-0.2-7.8-0.5c-2.4-0.3-4.7-0.7-6.6-1.2
						c-0.5-0.1-1-0.3-1.4-0.4c-2.1-0.6-3.7-1.3-4.8-2.1c-0.3-0.2-0.5-0.4-0.7-0.6c-0.5-0.5-0.8-1-0.8-1.5c0.6-3.5,10.7-6.2,23-6.2
						c1.6,0,3.1,0,4.6,0.1c0.8,0,1.5,0.1,2.2,0.2c3,0.3,5.7,0.7,8,1.2c0.5,0.1,1,0.2,1.5,0.4c1.8,0.5,3.3,1.1,4.5,1.8
						c1.1,0.6,1.9,1.3,2.2,2.1C130.9,385.7,130.9,385.8,131,386z"/>
					<path class="st25" d="M130.8,385.5l-23.7,6.7c-2.8,0-5.4-0.2-7.8-0.5l29.4-8.3C129.8,384.1,130.5,384.8,130.8,385.5z"/>
					<path class="st25" d="M114.7,380.1l-28.3,8c-0.3-0.2-0.5-0.4-0.7-0.6l26.7-7.6C113.3,379.9,114,380,114.7,380.1z"/>
					<path class="st25" d="M124.2,381.7l-31.5,8.9c-0.5-0.1-1-0.3-1.4-0.4l31.5-8.9C123.2,381.4,123.7,381.5,124.2,381.7z"/>
					<g>
						<g>
							<g>
								<path class="st22" d="M111.2,389.4v1.1h-4.9v-1c-3.4-0.1-6.8-0.3-8.9-0.7l2.6-1.7c2.3,0.4,5.3,0.6,8,0.6
									c2.3,0,3.1-0.1,3.1-0.4c0-0.9-13.3-0.2-13.3-2.7c0-1.1,2.8-2,8.5-2.3v-1.1h4.9v1c2.6,0.1,5,0.3,7,0.6l-2.4,1.7
									c-2.4-0.3-4.6-0.5-6.7-0.5c-2.4,0-3.1,0.2-3.1,0.4c0,0.8,13.3,0.1,13.3,2.7C119.2,388.2,116.5,389.2,111.2,389.4z"/>
							</g>
						</g>
						<g>
							<path class="st23" d="M111,389.1v1.1h-4.9v-1c-3.4-0.1-6.8-0.3-8.9-0.7l2.6-1.7c2.3,0.4,5.3,0.6,8,0.6c2.3,0,3.1-0.1,3.1-0.4
								c0-0.9-13.3-0.2-13.3-2.7c0-1.1,2.8-2,8.5-2.3v-1.1h4.9v1c2.6,0.1,5,0.3,7,0.6l-2.4,1.7c-2.4-0.3-4.6-0.5-6.7-0.5
								c-2.4,0-3.1,0.2-3.1,0.4c0,0.8,13.3,0.1,13.3,2.7C119.1,387.9,116.4,388.8,111,389.1z"/>
						</g>
					</g>
				</g>
			</g>
		</g>
		<g>
			<g>
				<path class="st20" d="M138.9,383C138.9,383,138.9,383,138.9,383c0,1.1-0.5,2-1.5,2.9c-0.2,0.2-0.5,0.4-0.8,0.6
					c-0.8,0.6-1.8,1.1-3,1.7c-0.3,0.1-0.5,0.2-0.8,0.3c-0.9,0.4-1.9,0.7-3,1c-0.3,0.1-0.5,0.2-0.8,0.2c-1,0.3-2,0.5-3,0.7
					c-0.3,0.1-0.5,0.1-0.8,0.2c-1,0.2-2,0.4-3,0.5c-0.3,0-0.5,0.1-0.8,0.1c-1,0.1-2,0.2-3,0.3c-0.3,0-0.5,0-0.8,0.1
					c-1,0.1-2,0.1-3,0.2c-0.3,0-0.5,0-0.8,0c-1,0-2,0.1-3,0.1c-0.2,0-0.4,0-0.5,0c-0.1,0-0.2,0-0.3,0c-1,0-2,0-3-0.1
					c-0.3,0-0.5,0-0.8,0c-0.8,0-1.5-0.1-2.2-0.1c-0.3,0-0.5,0-0.8-0.1c-0.3,0-0.5,0-0.8-0.1c-1-0.1-2-0.2-3-0.3
					c-0.3,0-0.5-0.1-0.8-0.1c-0.6-0.1-1.2-0.2-1.8-0.3c-0.4-0.1-0.8-0.1-1.2-0.2c-0.3,0-0.5-0.1-0.8-0.2c-1.1-0.2-2.1-0.4-3-0.7
					c-0.2,0-0.4-0.1-0.6-0.2c-0.1,0-0.2,0-0.2-0.1c-0.4-0.1-0.9-0.2-1.3-0.4c-0.6-0.2-1.2-0.4-1.8-0.6c-0.3-0.1-0.5-0.2-0.8-0.3
					c-1-0.4-1.9-0.9-2.7-1.4c-0.1-0.1-0.2-0.1-0.3-0.2c-0.1-0.1-0.3-0.2-0.4-0.3c-0.1-0.1-0.3-0.2-0.4-0.3c-1.2-1-1.8-2-1.8-3.1
					c0-0.1,0-0.2,0-0.2l0-6.2l1.8,0l0.8,0l3,0l0.8,0l2.4,0l0.7,0l0.8,0l3,0l0.8,0l3,0l0.8,0l3,0l0.8,0l3,0l0.8,0l3,0l0.8,0l3,0
					l0.8,0l3,0l0.8,0l3,0l0.8,0l3,0l0.8,0l3,0l0.8,0h0.2l2.8,0l0.8,0l3,0l0.8,0l1.5,0L138.9,383L138.9,383z"/>
				<g>
					<g>
						<path class="st22" d="M83.8,376.7v10.1c-0.1-0.1-0.3-0.2-0.4-0.3c-0.1-0.1-0.3-0.2-0.4-0.3v-9.5L83.8,376.7z"/>
						<path class="st22" d="M87.7,376.7v12c-0.3-0.1-0.5-0.2-0.8-0.3v-11.7L87.7,376.7z"/>
						<path class="st22" d="M91.5,376.7v13.2c-0.2,0-0.4-0.1-0.6-0.2c-0.1,0-0.2,0-0.2-0.1v-13L91.5,376.7z"/>
						<path class="st22" d="M95.3,376.7v14.1c-0.3,0-0.5-0.1-0.8-0.2v-13.9L95.3,376.7z"/>
						<path class="st22" d="M99.1,376.7v14.7c-0.3,0-0.5-0.1-0.8-0.1v-14.5L99.1,376.7z"/>
						<path class="st22" d="M103,376.6v15.1c-0.3,0-0.5,0-0.8-0.1v-15L103,376.6z"/>
						<path class="st22" d="M106.8,376.6v15.3c-0.3,0-0.5,0-0.8,0v-15.2L106.8,376.6z"/>
						<path class="st22" d="M110.6,376.6V392c-0.2,0-0.4,0-0.5,0c-0.1,0-0.2,0-0.3,0v-15.3L110.6,376.6z"/>
						<path class="st22" d="M114.5,376.6v15.2c-0.3,0-0.5,0-0.8,0v-15.3L114.5,376.6z"/>
						<path class="st22" d="M118.3,376.6v15c-0.3,0-0.5,0-0.8,0.1v-15.1L118.3,376.6z"/>
						<path class="st22" d="M122.1,376.6v14.5c-0.3,0-0.5,0.1-0.8,0.1v-14.7L122.1,376.6z"/>
						<path class="st22" d="M125.9,376.6v13.9c-0.3,0.1-0.5,0.1-0.8,0.2v-14.1L125.9,376.6z"/>
						<path class="st22" d="M129.8,376.6v13c-0.3,0.1-0.5,0.2-0.8,0.2v-13.2L129.8,376.6z"/>
						<path class="st22" d="M133.6,376.6v11.6c-0.3,0.1-0.5,0.2-0.8,0.3v-12L133.6,376.6z"/>
						<path class="st22" d="M137.4,376.6v9.3c-0.2,0.2-0.5,0.4-0.8,0.6v-10L137.4,376.6z"/>
					</g>
				</g>
			</g>
			<g>
				<g>
					<path class="st23" d="M138.9,376.7c0,4.5-12.9,8.2-28.8,8.2c-2.2,0-4.3-0.1-6.3-0.2c-2.6-0.2-5-0.4-7.3-0.8
						c-2-0.3-3.9-0.7-5.6-1.1c-0.5-0.1-1-0.3-1.5-0.4c-2.1-0.6-3.9-1.3-5.2-2.1c-0.3-0.2-0.5-0.3-0.7-0.5c-1.4-1-2.2-2-2.2-3.1
						c0-0.1,0-0.2,0-0.3c0.6-4.4,13.2-7.9,28.8-7.9c3.8,0,7.5,0.2,10.8,0.6c0.6,0.1,1.3,0.2,1.9,0.2c2.7,0.4,5.2,0.9,7.3,1.5
						c0.5,0.1,0.9,0.3,1.4,0.4c1.6,0.5,2.9,1,4,1.6c1.1,0.6,2,1.3,2.6,2c0.4,0.5,0.7,1,0.7,1.6C138.9,376.5,138.9,376.6,138.9,376.7
						z"/>
					<path class="st24" d="M138.2,374.8l-34.4,9.9c-2.6-0.2-5-0.4-7.3-0.8l39.1-11.1C136.7,373.5,137.6,374.1,138.2,374.8z"/>
					<path class="st24" d="M122.8,369.3l-38.6,10.9c-0.3-0.2-0.5-0.3-0.7-0.5l37.5-10.7C121.6,369.2,122.2,369.2,122.8,369.3z"/>
					<path class="st24" d="M131.5,371.2l-40.6,11.6c-0.5-0.1-1-0.3-1.5-0.4l40.7-11.6C130.6,370.9,131.1,371.1,131.5,371.2z"/>
					<path class="st22" d="M133.1,376.7c0,0.1,0,0.2,0,0.3c-0.6,3.5-10.7,6.2-23,6.2c-12.4,0-22.5-2.8-23-6.2c0-0.1,0-0.2,0-0.3
						c0-3.6,10.3-6.5,23-6.5S133.1,373.1,133.1,376.7z"/>
					<path class="st20" d="M133.1,377c-0.6,3.5-10.7,6.2-23,6.2c-0.3,0-0.5,0-0.8,0c-2.8,0-5.4-0.2-7.8-0.5
						c-2.4-0.3-4.7-0.7-6.6-1.2c-0.5-0.1-1-0.3-1.4-0.4c-2.1-0.6-3.7-1.3-4.8-2.1c-0.3-0.2-0.5-0.4-0.7-0.6c-0.5-0.5-0.8-1-0.8-1.5
						c0.6-3.5,10.7-6.2,23-6.2c1.6,0,3.1,0,4.6,0.1c0.8,0,1.5,0.1,2.2,0.2c3,0.3,5.7,0.7,8,1.2c0.5,0.1,1,0.2,1.5,0.4
						c1.8,0.5,3.3,1.1,4.5,1.8c1.1,0.6,1.9,1.3,2.2,2.1C133,376.6,133.1,376.8,133.1,377z"/>
					<path class="st25" d="M133,376.5l-23.7,6.7c-2.8,0-5.4-0.2-7.8-0.5l29.4-8.3C131.9,375,132.7,375.7,133,376.5z"/>
					<path class="st25" d="M116.9,371l-28.3,8c-0.3-0.2-0.5-0.4-0.7-0.6l26.7-7.6C115.4,370.9,116.2,371,116.9,371z"/>
					<path class="st25" d="M126.3,372.6l-31.5,8.9c-0.5-0.1-1-0.3-1.4-0.4l31.5-8.9C125.4,372.4,125.9,372.5,126.3,372.6z"/>
					<g>
						<g>
							<g>
								<path class="st22" d="M113.3,380.4v1.1h-4.9v-1c-3.4-0.1-6.8-0.3-8.9-0.7l2.6-1.7c2.3,0.4,5.3,0.6,8,0.6
									c2.3,0,3.1-0.1,3.1-0.4c0-0.9-13.3-0.2-13.3-2.7c0-1.1,2.8-2,8.5-2.3v-1.1h4.9v1c2.6,0.1,5,0.3,7,0.6l-2.4,1.7
									c-2.4-0.3-4.6-0.5-6.7-0.5c-2.4,0-3.1,0.2-3.1,0.4c0,0.8,13.3,0.1,13.3,2.7C121.3,379.2,118.6,380.1,113.3,380.4z"/>
							</g>
						</g>
						<g>
							<path class="st23" d="M113.2,380v1.1h-4.9v-1c-3.4-0.1-6.8-0.3-8.9-0.7l2.6-1.7c2.3,0.4,5.3,0.6,8,0.6c2.3,0,3.1-0.1,3.1-0.4
								c0-0.9-13.3-0.2-13.3-2.7c0-1.1,2.8-2,8.5-2.3v-1.1h4.9v1c2.6,0.1,5,0.3,7,0.6l-2.4,1.7c-2.4-0.3-4.6-0.5-6.7-0.5
								c-2.4,0-3.1,0.2-3.1,0.4c0,0.8,13.3,0.1,13.3,2.7C121.2,378.8,118.5,379.8,113.2,380z"/>
						</g>
					</g>
				</g>
			</g>
		</g>
		<g>
			<g>
				<path class="st20" d="M134.5,372.9C134.5,373,134.5,373,134.5,372.9c0,1.1-0.5,2-1.5,2.9c-0.2,0.2-0.5,0.4-0.8,0.6
					c-0.8,0.6-1.8,1.1-3,1.7c-0.3,0.1-0.5,0.2-0.8,0.3c-0.9,0.4-1.9,0.7-3,1c-0.3,0.1-0.5,0.2-0.8,0.2c-1,0.3-2,0.5-3,0.7
					c-0.3,0.1-0.5,0.1-0.8,0.2c-1,0.2-2,0.4-3,0.5c-0.3,0-0.5,0.1-0.8,0.1c-1,0.1-2,0.2-3,0.3c-0.3,0-0.5,0-0.8,0.1
					c-1,0.1-2,0.1-3,0.2c-0.3,0-0.5,0-0.8,0c-1,0-2,0.1-3,0.1c-0.2,0-0.4,0-0.5,0c-0.1,0-0.2,0-0.3,0c-1,0-2,0-3-0.1
					c-0.3,0-0.5,0-0.8,0c-0.8,0-1.5-0.1-2.2-0.1c-0.3,0-0.5,0-0.8-0.1c-0.3,0-0.5,0-0.8-0.1c-1-0.1-2-0.2-3-0.3
					c-0.3,0-0.5-0.1-0.8-0.1c-0.6-0.1-1.2-0.2-1.8-0.3c-0.4-0.1-0.8-0.1-1.2-0.2c-0.3,0-0.5-0.1-0.8-0.2c-1.1-0.2-2.1-0.4-3-0.7
					c-0.2,0-0.4-0.1-0.6-0.2c-0.1,0-0.2,0-0.2-0.1c-0.4-0.1-0.9-0.2-1.3-0.4c-0.6-0.2-1.2-0.4-1.8-0.6c-0.3-0.1-0.5-0.2-0.8-0.3
					c-1-0.4-1.9-0.9-2.7-1.4c-0.1-0.1-0.2-0.1-0.3-0.2c-0.1-0.1-0.3-0.2-0.4-0.3c-0.1-0.1-0.3-0.2-0.4-0.3c-1.2-1-1.8-2-1.8-3.1
					c0-0.1,0-0.2,0-0.2l0-6.2l1.8,0l0.8,0l3,0l0.8,0l2.4,0l0.7,0l0.8,0l3,0l0.8,0l3,0l0.8,0l3,0l0.8,0l3,0l0.8,0l3,0l0.8,0l3,0
					l0.8,0l3,0l0.8,0l3,0l0.8,0l3,0l0.8,0l3,0l0.8,0h0.2l2.8,0l0.8,0l3,0l0.8,0l1.5,0L134.5,372.9L134.5,372.9z"/>
				<g>
					<g>
						<path class="st22" d="M79.4,366.6v10.1c-0.1-0.1-0.3-0.2-0.4-0.3c-0.1-0.1-0.3-0.2-0.4-0.3v-9.5L79.4,366.6z"/>
						<path class="st22" d="M83.3,366.6v12c-0.3-0.1-0.5-0.2-0.8-0.3v-11.7L83.3,366.6z"/>
						<path class="st22" d="M87.1,366.6v13.2c-0.2,0-0.4-0.1-0.6-0.2c-0.1,0-0.2,0-0.2-0.1v-13L87.1,366.6z"/>
						<path class="st22" d="M90.9,366.6v14.1c-0.3,0-0.5-0.1-0.8-0.2v-13.9L90.9,366.6z"/>
						<path class="st22" d="M94.8,366.6v14.7c-0.3,0-0.5-0.1-0.8-0.1v-14.5L94.8,366.6z"/>
						<path class="st22" d="M98.6,366.6v15.1c-0.3,0-0.5,0-0.8-0.1v-15L98.6,366.6z"/>
						<path class="st22" d="M102.4,366.6v15.3c-0.3,0-0.5,0-0.8,0v-15.2L102.4,366.6z"/>
						<path class="st22" d="M106.2,366.6v15.3c-0.2,0-0.4,0-0.5,0c-0.1,0-0.2,0-0.3,0v-15.3L106.2,366.6z"/>
						<path class="st22" d="M110.1,366.6v15.2c-0.3,0-0.5,0-0.8,0v-15.3L110.1,366.6z"/>
						<path class="st22" d="M113.9,366.6v15c-0.3,0-0.5,0-0.8,0.1v-15.1L113.9,366.6z"/>
						<path class="st22" d="M117.7,366.6v14.5c-0.3,0-0.5,0.1-0.8,0.1v-14.7L117.7,366.6z"/>
						<path class="st22" d="M121.5,366.6v13.9c-0.3,0.1-0.5,0.1-0.8,0.2v-14.1L121.5,366.6z"/>
						<path class="st22" d="M125.4,366.5v13c-0.3,0.1-0.5,0.2-0.8,0.2v-13.2L125.4,366.5z"/>
						<path class="st22" d="M129.2,366.5v11.6c-0.3,0.1-0.5,0.2-0.8,0.3v-12L129.2,366.5z"/>
						<path class="st22" d="M133,366.5v9.3c-0.2,0.2-0.5,0.4-0.8,0.6v-10L133,366.5z"/>
					</g>
				</g>
			</g>
			<g>
				<g>
					<path class="st23" d="M134.5,366.6c0,4.5-12.9,8.2-28.8,8.2c-2.2,0-4.3-0.1-6.3-0.2c-2.6-0.2-5-0.4-7.3-0.8
						c-2-0.3-3.9-0.7-5.6-1.1c-0.5-0.1-1-0.3-1.5-0.4c-2.1-0.6-3.9-1.3-5.2-2.1c-0.3-0.2-0.5-0.3-0.7-0.5c-1.4-1-2.2-2-2.2-3.1
						c0-0.1,0-0.2,0-0.3c0.6-4.4,13.2-7.9,28.8-7.9c3.8,0,7.5,0.2,10.8,0.6c0.6,0.1,1.3,0.2,1.9,0.2c2.7,0.4,5.2,0.9,7.3,1.5
						c0.5,0.1,0.9,0.3,1.4,0.4c1.6,0.5,2.9,1,4,1.6c1.1,0.6,2,1.3,2.6,2c0.4,0.5,0.7,1,0.7,1.6C134.5,366.4,134.5,366.5,134.5,366.6
						z"/>
					<path class="st24" d="M133.8,364.7l-34.4,9.9c-2.6-0.2-5-0.4-7.3-0.8l39.1-11.1C132.3,363.4,133.2,364.1,133.8,364.7z"/>
					<path class="st24" d="M118.4,359.3l-38.6,10.9c-0.3-0.2-0.5-0.3-0.7-0.5l37.5-10.7C117.2,359.1,117.8,359.2,118.4,359.3z"/>
					<path class="st24" d="M127.1,361.1l-40.6,11.6c-0.5-0.1-1-0.3-1.5-0.4l40.7-11.6C126.2,360.9,126.7,361,127.1,361.1z"/>
					<path class="st22" d="M128.7,366.6c0,0.1,0,0.2,0,0.3c-0.6,3.5-10.7,6.2-23,6.2c-12.4,0-22.5-2.8-23-6.2c0-0.1,0-0.2,0-0.3
						c0-3.6,10.3-6.5,23-6.5C118.4,360.1,128.7,363,128.7,366.6z"/>
					<path class="st20" d="M128.7,366.9c-0.6,3.5-10.7,6.2-23,6.2c-0.3,0-0.5,0-0.8,0c-2.8,0-5.4-0.2-7.8-0.5
						c-2.4-0.3-4.7-0.7-6.6-1.2c-0.5-0.1-1-0.3-1.4-0.4c-2.1-0.6-3.7-1.3-4.8-2.1c-0.3-0.2-0.5-0.4-0.7-0.6c-0.5-0.5-0.8-1-0.8-1.5
						c0.6-3.5,10.7-6.2,23-6.2c1.6,0,3.1,0,4.6,0.1c0.8,0,1.5,0.1,2.2,0.2c3,0.3,5.7,0.7,8,1.2c0.5,0.1,1,0.2,1.5,0.4
						c1.8,0.5,3.3,1.1,4.5,1.8c1.1,0.6,1.9,1.3,2.2,2.1C128.6,366.6,128.7,366.7,128.7,366.9z"/>
					<path class="st25" d="M128.6,366.4l-23.7,6.7c-2.8,0-5.4-0.2-7.8-0.5l29.4-8.3C127.5,365,128.3,365.7,128.6,366.4z"/>
					<path class="st25" d="M112.5,361l-28.3,8c-0.3-0.2-0.5-0.4-0.7-0.6l26.7-7.6C111,360.8,111.8,360.9,112.5,361z"/>
					<path class="st25" d="M121.9,362.6l-31.5,8.9c-0.5-0.1-1-0.3-1.4-0.4l31.5-8.9C121,362.3,121.5,362.4,121.9,362.6z"/>
					<g>
						<g>
							<g>
								<path class="st22" d="M108.9,370.3v1.1H104v-1c-3.4-0.1-6.8-0.3-8.9-0.7l2.6-1.7c2.3,0.4,5.3,0.6,8,0.6
									c2.3,0,3.1-0.1,3.1-0.4c0-0.9-13.3-0.2-13.3-2.7c0-1.1,2.8-2,8.5-2.3v-1.1h4.9v1c2.6,0.1,5,0.3,7,0.6l-2.4,1.7
									c-2.4-0.3-4.6-0.5-6.7-0.5c-2.4,0-3.1,0.2-3.1,0.4c0,0.8,13.3,0.1,13.3,2.7C116.9,369.1,114.3,370.1,108.9,370.3z"/>
							</g>
						</g>
						<g>
							<path class="st23" d="M108.8,370v1.1h-4.9v-1c-3.4-0.1-6.8-0.3-8.9-0.7l2.6-1.7c2.3,0.4,5.3,0.6,8,0.6c2.3,0,3.1-0.1,3.1-0.4
								c0-0.9-13.3-0.2-13.3-2.7c0-1.1,2.8-2,8.5-2.3v-1.1h4.9v1c2.6,0.1,5,0.3,7,0.6l-2.4,1.7c-2.4-0.3-4.6-0.5-6.7-0.5
								c-2.4,0-3.1,0.2-3.1,0.4c0,0.8,13.3,0.1,13.3,2.7C116.8,368.8,114.1,369.7,108.8,370z"/>
						</g>
					</g>
				</g>
			</g>
		</g>
		<g>
			<g>
				<path class="st20" d="M137.9,362.8C137.9,362.8,137.9,362.8,137.9,362.8c0,1.1-0.5,2-1.5,2.9c-0.2,0.2-0.5,0.4-0.8,0.6
					c-0.8,0.6-1.8,1.1-3,1.7c-0.3,0.1-0.5,0.2-0.8,0.3c-0.9,0.4-1.9,0.7-3,1c-0.3,0.1-0.5,0.2-0.8,0.2c-1,0.3-2,0.5-3,0.7
					c-0.3,0.1-0.5,0.1-0.8,0.2c-1,0.2-2,0.4-3,0.5c-0.3,0-0.5,0.1-0.8,0.1c-1,0.1-2,0.2-3,0.3c-0.3,0-0.5,0-0.8,0.1
					c-1,0.1-2,0.1-3,0.2c-0.3,0-0.5,0-0.8,0c-1,0-2,0.1-3,0.1c-0.2,0-0.4,0-0.5,0c-0.1,0-0.2,0-0.3,0c-1,0-2,0-3-0.1
					c-0.3,0-0.5,0-0.8,0c-0.8,0-1.5-0.1-2.2-0.1c-0.3,0-0.5,0-0.8-0.1c-0.3,0-0.5,0-0.8-0.1c-1-0.1-2-0.2-3-0.3
					c-0.3,0-0.5-0.1-0.8-0.1c-0.6-0.1-1.2-0.2-1.8-0.3c-0.4-0.1-0.8-0.1-1.2-0.2c-0.3,0-0.5-0.1-0.8-0.2c-1.1-0.2-2.1-0.4-3-0.7
					c-0.2,0-0.4-0.1-0.6-0.2c-0.1,0-0.2,0-0.2-0.1c-0.4-0.1-0.9-0.2-1.3-0.4c-0.6-0.2-1.2-0.4-1.8-0.6c-0.3-0.1-0.5-0.2-0.8-0.3
					c-1-0.4-1.9-0.9-2.7-1.4c-0.1-0.1-0.2-0.1-0.3-0.2c-0.1-0.1-0.3-0.2-0.4-0.3c-0.1-0.1-0.3-0.2-0.4-0.3c-1.2-1-1.8-2-1.8-3.1
					c0-0.1,0-0.2,0-0.2l0-6.2l1.8,0l0.8,0l3,0l0.8,0l2.4,0l0.7,0l0.8,0l3,0l0.8,0l3,0l0.8,0l3,0l0.8,0l3,0l0.8,0l3,0l0.8,0l3,0
					l0.8,0l3,0l0.8,0l3,0l0.8,0l3,0l0.8,0l3,0l0.8,0h0.2l2.8,0l0.8,0l3,0l0.8,0l1.5,0L137.9,362.8L137.9,362.8z"/>
				<g>
					<g>
						<path class="st22" d="M82.8,356.5v10.1c-0.1-0.1-0.3-0.2-0.4-0.3c-0.1-0.1-0.3-0.2-0.4-0.3v-9.5L82.8,356.5z"/>
						<path class="st22" d="M86.6,356.5v12c-0.3-0.1-0.5-0.2-0.8-0.3v-11.7L86.6,356.5z"/>
						<path class="st22" d="M90.4,356.5v13.2c-0.2,0-0.4-0.1-0.6-0.2c-0.1,0-0.2,0-0.2-0.1v-13L90.4,356.5z"/>
						<path class="st22" d="M94.2,356.5v14.1c-0.3,0-0.5-0.1-0.8-0.2v-13.9L94.2,356.5z"/>
						<path class="st22" d="M98.1,356.5v14.7c-0.3,0-0.5-0.1-0.8-0.1v-14.5L98.1,356.5z"/>
						<path class="st22" d="M101.9,356.4v15.1c-0.3,0-0.5,0-0.8-0.1v-15L101.9,356.4z"/>
						<path class="st22" d="M105.7,356.4v15.3c-0.3,0-0.5,0-0.8,0v-15.2L105.7,356.4z"/>
						<path class="st22" d="M109.6,356.4v15.3c-0.2,0-0.4,0-0.5,0c-0.1,0-0.2,0-0.3,0v-15.3L109.6,356.4z"/>
						<path class="st22" d="M113.4,356.4v15.2c-0.3,0-0.5,0-0.8,0v-15.3L113.4,356.4z"/>
						<path class="st22" d="M117.2,356.4v15c-0.3,0-0.5,0-0.8,0.1v-15.1L117.2,356.4z"/>
						<path class="st22" d="M121,356.4V371c-0.3,0-0.5,0.1-0.8,0.1v-14.7L121,356.4z"/>
						<path class="st22" d="M124.9,356.4v13.9c-0.3,0.1-0.5,0.1-0.8,0.2v-14.1L124.9,356.4z"/>
						<path class="st22" d="M128.7,356.4v13c-0.3,0.1-0.5,0.2-0.8,0.2v-13.2L128.7,356.4z"/>
						<path class="st22" d="M132.5,356.4V368c-0.3,0.1-0.5,0.2-0.8,0.3v-12L132.5,356.4z"/>
						<path class="st22" d="M136.3,356.4v9.3c-0.2,0.2-0.5,0.4-0.8,0.6v-10L136.3,356.4z"/>
					</g>
				</g>
			</g>
			<g>
				<g>
					<path class="st23" d="M137.9,356.5c0,4.5-12.9,8.2-28.8,8.2c-2.2,0-4.3-0.1-6.3-0.2c-2.6-0.2-5-0.4-7.3-0.8
						c-2-0.3-3.9-0.7-5.6-1.1c-0.5-0.1-1-0.3-1.5-0.4c-2.1-0.6-3.9-1.3-5.2-2.1c-0.3-0.2-0.5-0.3-0.7-0.5c-1.4-1-2.2-2-2.2-3.1
						c0-0.1,0-0.2,0-0.3c0.6-4.4,13.2-7.9,28.8-7.9c3.8,0,7.5,0.2,10.8,0.6c0.6,0.1,1.3,0.2,1.9,0.2c2.7,0.4,5.2,0.9,7.3,1.5
						c0.5,0.1,0.9,0.3,1.4,0.4c1.6,0.5,2.9,1,4,1.6c1.1,0.6,2,1.3,2.6,2c0.4,0.5,0.7,1,0.7,1.6C137.8,356.3,137.9,356.4,137.9,356.5
						z"/>
					<path class="st24" d="M137.1,354.6l-34.4,9.9c-2.6-0.2-5-0.4-7.3-0.8l39.1-11.1C135.6,353.3,136.5,353.9,137.1,354.6z"/>
					<path class="st24" d="M121.8,349.1l-38.6,10.9c-0.3-0.2-0.5-0.3-0.7-0.5l37.5-10.7C120.5,349,121.1,349,121.8,349.1z"/>
					<path class="st24" d="M130.5,351l-40.6,11.6c-0.5-0.1-1-0.3-1.5-0.4l40.7-11.6C129.6,350.7,130,350.9,130.5,351z"/>
					<path class="st22" d="M132.1,356.5c0,0.1,0,0.2,0,0.3c-0.6,3.5-10.7,6.2-23,6.2s-22.5-2.8-23-6.2c0-0.1,0-0.2,0-0.3
						c0-3.6,10.3-6.5,23-6.5C121.7,349.9,132.1,352.9,132.1,356.5z"/>
					<path class="st20" d="M132,356.8c-0.6,3.5-10.7,6.2-23,6.2c-0.3,0-0.5,0-0.8,0c-2.8,0-5.4-0.2-7.8-0.5
						c-2.4-0.3-4.7-0.7-6.6-1.2c-0.5-0.1-1-0.3-1.4-0.4c-2.1-0.6-3.7-1.3-4.8-2.1c-0.3-0.2-0.5-0.4-0.7-0.6c-0.5-0.5-0.8-1-0.8-1.5
						c0.6-3.5,10.7-6.2,23-6.2c1.6,0,3.1,0,4.6,0.1c0.8,0,1.5,0.1,2.2,0.2c3,0.3,5.7,0.7,8,1.2c0.5,0.1,1,0.2,1.5,0.4
						c1.8,0.5,3.3,1.1,4.5,1.8c1.1,0.6,1.9,1.3,2.2,2.1C132,356.4,132,356.6,132,356.8z"/>
					<path class="st25" d="M131.9,356.3l-23.7,6.7c-2.8,0-5.4-0.2-7.8-0.5l29.4-8.3C130.8,354.8,131.6,355.5,131.9,356.3z"/>
					<path class="st25" d="M115.8,350.8l-28.3,8c-0.3-0.2-0.5-0.4-0.7-0.6l26.7-7.6C114.3,350.7,115.1,350.8,115.8,350.8z"/>
					<path class="st25" d="M125.3,352.4l-31.5,8.9c-0.5-0.1-1-0.3-1.4-0.4l31.5-8.9C124.3,352.2,124.8,352.3,125.3,352.4z"/>
					<g>
						<g>
							<g>
								<path class="st22" d="M112.2,360.2v1.1h-4.9v-1c-3.4-0.1-6.8-0.3-8.9-0.7l2.6-1.7c2.3,0.4,5.3,0.6,8,0.6
									c2.3,0,3.1-0.1,3.1-0.4c0-0.9-13.3-0.2-13.3-2.7c0-1.1,2.8-2,8.5-2.3v-1.1h4.9v1c2.6,0.1,5,0.3,7,0.6l-2.4,1.7
									c-2.4-0.3-4.6-0.5-6.7-0.5c-2.4,0-3.1,0.2-3.1,0.4c0,0.8,13.3,0.1,13.3,2.7C120.3,359,117.6,359.9,112.2,360.2z"/>
							</g>
						</g>
						<g>
							<path class="st23" d="M112.1,359.8v1.1h-4.9v-1c-3.4-0.1-6.8-0.3-8.9-0.7l2.6-1.7c2.3,0.4,5.3,0.6,8,0.6
								c2.3,0,3.1-0.1,3.1-0.4c0-0.9-13.3-0.2-13.3-2.7c0-1.1,2.8-2,8.5-2.3v-1.1h4.9v1c2.6,0.1,5,0.3,7,0.6l-2.4,1.7
								c-2.4-0.3-4.6-0.5-6.7-0.5c-2.4,0-3.1,0.2-3.1,0.4c0,0.8,13.3,0.1,13.3,2.7C120.1,358.6,117.4,359.6,112.1,359.8z"/>
						</g>
					</g>
				</g>
			</g>
		</g>
		<g>
			<g>
				<path class="st20" d="M138.3,352.6C138.3,352.6,138.3,352.7,138.3,352.6c0,1.1-0.5,2-1.5,2.9c-0.2,0.2-0.5,0.4-0.8,0.6
					c-0.8,0.6-1.8,1.1-3,1.7c-0.3,0.1-0.5,0.2-0.8,0.3c-0.9,0.4-1.9,0.7-3,1c-0.3,0.1-0.5,0.2-0.8,0.2c-1,0.3-2,0.5-3,0.7
					c-0.3,0.1-0.5,0.1-0.8,0.2c-1,0.2-2,0.4-3,0.5c-0.3,0-0.5,0.1-0.8,0.1c-1,0.1-2,0.2-3,0.3c-0.3,0-0.5,0-0.8,0.1
					c-1,0.1-2,0.1-3,0.2c-0.3,0-0.5,0-0.8,0c-1,0-2,0.1-3,0.1c-0.2,0-0.4,0-0.5,0c-0.1,0-0.2,0-0.3,0c-1,0-2,0-3-0.1
					c-0.3,0-0.5,0-0.8,0c-0.8,0-1.5-0.1-2.2-0.1c-0.3,0-0.5,0-0.8-0.1c-0.3,0-0.5,0-0.8-0.1c-1-0.1-2-0.2-3-0.3
					c-0.3,0-0.5-0.1-0.8-0.1c-0.6-0.1-1.2-0.2-1.8-0.3c-0.4-0.1-0.8-0.1-1.2-0.2c-0.3,0-0.5-0.1-0.8-0.2c-1.1-0.2-2.1-0.4-3-0.7
					c-0.2,0-0.4-0.1-0.6-0.2c-0.1,0-0.2,0-0.2-0.1c-0.4-0.1-0.9-0.2-1.3-0.4c-0.6-0.2-1.2-0.4-1.8-0.6c-0.3-0.1-0.5-0.2-0.8-0.3
					c-1-0.4-1.9-0.9-2.7-1.4c-0.1-0.1-0.2-0.1-0.3-0.2c-0.1-0.1-0.3-0.2-0.4-0.3c-0.1-0.1-0.3-0.2-0.4-0.3c-1.2-1-1.8-2-1.8-3.1
					c0-0.1,0-0.2,0-0.2l0-6.2l1.8,0l0.8,0l3,0l0.8,0l2.4,0l0.7,0l0.8,0l3,0l0.8,0l3,0l0.8,0l3,0l0.8,0l3,0l0.8,0l3,0l0.8,0l3,0
					l0.8,0l3,0l0.8,0l3,0l0.8,0l3,0l0.8,0l3,0l0.8,0h0.2l2.8,0l0.8,0l3,0l0.8,0l1.5,0L138.3,352.6L138.3,352.6z"/>
				<g>
					<g>
						<path class="st22" d="M83.2,346.3v10.1c-0.1-0.1-0.3-0.2-0.4-0.3c-0.1-0.1-0.3-0.2-0.4-0.3v-9.5L83.2,346.3z"/>
						<path class="st22" d="M87,346.3v12c-0.3-0.1-0.5-0.2-0.8-0.3v-11.7L87,346.3z"/>
						<path class="st22" d="M90.8,346.3v13.2c-0.2,0-0.4-0.1-0.6-0.2c-0.1,0-0.2,0-0.2-0.1v-13L90.8,346.3z"/>
						<path class="st22" d="M94.6,346.3v14.1c-0.3,0-0.5-0.1-0.8-0.2v-13.9L94.6,346.3z"/>
						<path class="st22" d="M98.5,346.3v14.7c-0.3,0-0.5-0.1-0.8-0.1v-14.5L98.5,346.3z"/>
						<path class="st22" d="M102.3,346.3v15.1c-0.3,0-0.5,0-0.8-0.1v-15L102.3,346.3z"/>
						<path class="st22" d="M106.1,346.3v15.3c-0.3,0-0.5,0-0.8,0v-15.2L106.1,346.3z"/>
						<path class="st22" d="M110,346.3v15.3c-0.2,0-0.4,0-0.5,0c-0.1,0-0.2,0-0.3,0v-15.3L110,346.3z"/>
						<path class="st22" d="M113.8,346.3v15.2c-0.3,0-0.5,0-0.8,0v-15.3L113.8,346.3z"/>
						<path class="st22" d="M117.6,346.3v15c-0.3,0-0.5,0-0.8,0.1v-15.1L117.6,346.3z"/>
						<path class="st22" d="M121.4,346.2v14.5c-0.3,0-0.5,0.1-0.8,0.1v-14.7L121.4,346.2z"/>
						<path class="st22" d="M125.3,346.2v13.9c-0.3,0.1-0.5,0.1-0.8,0.2v-14.1L125.3,346.2z"/>
						<path class="st22" d="M129.1,346.2v13c-0.3,0.1-0.5,0.2-0.8,0.2v-13.2L129.1,346.2z"/>
						<path class="st22" d="M132.9,346.2v11.6c-0.3,0.1-0.5,0.2-0.8,0.3v-12L132.9,346.2z"/>
						<path class="st22" d="M136.7,346.2v9.3c-0.2,0.2-0.5,0.4-0.8,0.6v-10L136.7,346.2z"/>
					</g>
				</g>
			</g>
			<g>
				<g>
					<path class="st23" d="M138.2,346.3c0,4.5-12.9,8.2-28.8,8.2c-2.2,0-4.3-0.1-6.3-0.2c-2.6-0.2-5-0.4-7.3-0.8
						c-2-0.3-3.9-0.7-5.6-1.1c-0.5-0.1-1-0.3-1.5-0.4c-2.1-0.6-3.9-1.3-5.2-2.1c-0.3-0.2-0.5-0.3-0.7-0.5c-1.4-1-2.2-2-2.2-3.1
						c0-0.1,0-0.2,0-0.3c0.6-4.4,13.2-7.9,28.8-7.9c3.8,0,7.5,0.2,10.8,0.6c0.6,0.1,1.3,0.2,1.9,0.2c2.7,0.4,5.2,0.9,7.3,1.5
						c0.5,0.1,0.9,0.3,1.4,0.4c1.6,0.5,2.9,1,4,1.6c1.1,0.6,2,1.3,2.6,2c0.4,0.5,0.7,1,0.7,1.6C138.2,346.1,138.2,346.2,138.2,346.3
						z"/>
					<path class="st24" d="M137.5,344.4l-34.4,9.9c-2.6-0.2-5-0.4-7.3-0.8l39.1-11.1C136,343.1,136.9,343.7,137.5,344.4z"/>
					<path class="st24" d="M122.1,339l-38.6,10.9c-0.3-0.2-0.5-0.3-0.7-0.5l37.5-10.7C120.9,338.8,121.5,338.9,122.1,339z"/>
					<path class="st24" d="M130.9,340.8l-40.6,11.6c-0.5-0.1-1-0.3-1.5-0.4l40.7-11.6C130,340.6,130.4,340.7,130.9,340.8z"/>
					<path class="st22" d="M132.5,346.3c0,0.1,0,0.2,0,0.3c-0.6,3.5-10.7,6.2-23,6.2c-12.4,0-22.5-2.8-23-6.2c0-0.1,0-0.2,0-0.3
						c0-3.6,10.3-6.5,23-6.5S132.5,342.7,132.5,346.3z"/>
					<path class="st20" d="M132.4,346.6c-0.6,3.5-10.7,6.2-23,6.2c-0.3,0-0.5,0-0.8,0c-2.8,0-5.4-0.2-7.8-0.5
						c-2.4-0.3-4.7-0.7-6.6-1.2c-0.5-0.1-1-0.3-1.4-0.4c-2.1-0.6-3.7-1.3-4.8-2.1c-0.3-0.2-0.5-0.4-0.7-0.6c-0.5-0.5-0.8-1-0.8-1.5
						c0.6-3.5,10.7-6.2,23-6.2c1.6,0,3.1,0,4.6,0.1c0.8,0,1.5,0.1,2.2,0.2c3,0.3,5.7,0.7,8,1.2c0.5,0.1,1,0.2,1.5,0.4
						c1.8,0.5,3.3,1.1,4.5,1.8c1.1,0.6,1.9,1.3,2.2,2.1C132.4,346.3,132.4,346.4,132.4,346.6z"/>
					<path class="st25" d="M132.3,346.1l-23.7,6.7c-2.8,0-5.4-0.2-7.8-0.5l29.4-8.3C131.2,344.7,132,345.4,132.3,346.1z"/>
					<path class="st25" d="M116.2,340.6l-28.3,8c-0.3-0.2-0.5-0.4-0.7-0.6l26.7-7.6C114.7,340.5,115.5,340.6,116.2,340.6z"/>
					<path class="st25" d="M125.7,342.3l-31.5,8.9c-0.5-0.1-1-0.3-1.4-0.4l31.5-8.9C124.7,342,125.2,342.1,125.7,342.3z"/>
					<g>
						<g>
							<g>
								<path class="st22" d="M112.6,350v1.1h-4.9v-1c-3.4-0.1-6.8-0.3-8.9-0.7l2.6-1.7c2.3,0.4,5.3,0.6,8,0.6
									c2.3,0,3.1-0.1,3.1-0.4c0-0.9-13.3-0.2-13.3-2.7c0-1.1,2.8-2,8.5-2.3v-1.1h4.9v1c2.6,0.1,5,0.3,7,0.6l-2.4,1.7
									c-2.4-0.3-4.6-0.5-6.7-0.5c-2.4,0-3.1,0.2-3.1,0.4c0,0.8,13.3,0.1,13.3,2.7C120.7,348.8,118,349.7,112.6,350z"/>
							</g>
						</g>
						<g>
							<path class="st23" d="M112.5,349.7v1.1h-4.9v-1c-3.4-0.1-6.8-0.3-8.9-0.7l2.6-1.7c2.3,0.4,5.3,0.6,8,0.6
								c2.3,0,3.1-0.1,3.1-0.4c0-0.9-13.3-0.2-13.3-2.7c0-1.1,2.8-2,8.5-2.3v-1.1h4.9v1c2.6,0.1,5,0.3,7,0.6l-2.4,1.7
								c-2.4-0.3-4.6-0.5-6.7-0.5c-2.4,0-3.1,0.2-3.1,0.4c0,0.8,13.3,0.1,13.3,2.7C120.5,348.5,117.8,349.4,112.5,349.7z"/>
						</g>
					</g>
				</g>
			</g>
		</g>
		<g>
			<g>
				<path class="st20" d="M184.2,405.3C184.2,405.3,184.2,405.3,184.2,405.3c0,0.6-0.3,1-0.8,1.5c-0.1,0.1-0.3,0.2-0.4,0.3
					c-0.4,0.3-0.9,0.6-1.6,0.9c-0.1,0.1-0.3,0.1-0.4,0.2c-0.5,0.2-1,0.4-1.6,0.5c-0.1,0-0.3,0.1-0.4,0.1c-0.5,0.1-1,0.3-1.6,0.4
					c-0.1,0-0.3,0.1-0.4,0.1c-0.5,0.1-1,0.2-1.6,0.3c-0.1,0-0.3,0-0.4,0.1c-0.5,0.1-1,0.1-1.6,0.2c-0.1,0-0.3,0-0.4,0
					c-0.5,0-1,0.1-1.6,0.1c-0.1,0-0.3,0-0.4,0c-0.5,0-1,0-1.6,0c-0.1,0-0.2,0-0.3,0c0,0-0.1,0-0.1,0c-0.5,0-1,0-1.6,0
					c-0.1,0-0.3,0-0.4,0c-0.4,0-0.8,0-1.2-0.1c-0.1,0-0.3,0-0.4,0c-0.1,0-0.3,0-0.4,0c-0.5,0-1-0.1-1.6-0.2c-0.1,0-0.3,0-0.4-0.1
					c-0.3,0-0.6-0.1-0.9-0.1c-0.2,0-0.4-0.1-0.6-0.1c-0.1,0-0.3-0.1-0.4-0.1c-0.5-0.1-1.1-0.2-1.6-0.4c-0.1,0-0.2-0.1-0.3-0.1
					c0,0-0.1,0-0.1,0c-0.2-0.1-0.4-0.1-0.6-0.2c-0.3-0.1-0.6-0.2-0.9-0.3c-0.1-0.1-0.3-0.1-0.4-0.2c-0.5-0.2-1-0.5-1.4-0.7
					c-0.1,0-0.1-0.1-0.2-0.1c-0.1,0-0.1-0.1-0.2-0.1c-0.1-0.1-0.1-0.1-0.2-0.2c-0.6-0.5-0.9-1-0.9-1.6c0,0,0-0.1,0-0.1l0-3.2l0.9,0
					l0.4,0l1.6,0l0.4,0l1.2,0l0.3,0l0.4,0l1.6,0l0.4,0l1.6,0l0.4,0l1.6,0l0.4,0l1.6,0l0.4,0l1.6,0l0.4,0l1.6,0l0.4,0l1.6,0l0.4,0
					l1.6,0l0.4,0l1.6,0l0.4,0l1.6,0l0.4,0h0.1l1.5,0l0.4,0l1.6,0l0.4,0l0.8,0L184.2,405.3L184.2,405.3z"/>
				<g>
					<g>
						<path class="st22" d="M155.9,402v5.2c-0.1,0-0.1-0.1-0.2-0.1c-0.1-0.1-0.1-0.1-0.2-0.2V402L155.9,402z"/>
						<path class="st22" d="M157.9,402v6.2c-0.1-0.1-0.3-0.1-0.4-0.2v-6L157.9,402z"/>
						<path class="st22" d="M159.9,402v6.8c-0.1,0-0.2-0.1-0.3-0.1c0,0-0.1,0-0.1,0V402L159.9,402z"/>
						<path class="st22" d="M161.8,402v7.2c-0.1,0-0.3-0.1-0.4-0.1V402L161.8,402z"/>
						<path class="st22" d="M163.8,402v7.5c-0.1,0-0.3,0-0.4-0.1V402L163.8,402z"/>
						<path class="st22" d="M165.8,402v7.7c-0.1,0-0.3,0-0.4,0V402L165.8,402z"/>
						<path class="st22" d="M167.7,402v7.8c-0.1,0-0.3,0-0.4,0V402L167.7,402z"/>
						<path class="st22" d="M169.7,402v7.9c-0.1,0-0.2,0-0.3,0c0,0-0.1,0-0.1,0V402L169.7,402z"/>
						<path class="st22" d="M171.7,402v7.8c-0.1,0-0.3,0-0.4,0V402L171.7,402z"/>
						<path class="st22" d="M173.6,402v7.7c-0.1,0-0.3,0-0.4,0V402L173.6,402z"/>
						<path class="st22" d="M175.6,402v7.5c-0.1,0-0.3,0-0.4,0.1V402L175.6,402z"/>
						<path class="st22" d="M177.5,402v7.1c-0.1,0-0.3,0.1-0.4,0.1V402L177.5,402z"/>
						<path class="st22" d="M179.5,402v6.7c-0.1,0-0.3,0.1-0.4,0.1V402L179.5,402z"/>
						<path class="st22" d="M181.5,402v6c-0.1,0.1-0.3,0.1-0.4,0.2V402L181.5,402z"/>
						<path class="st22" d="M183.4,402v4.8c-0.1,0.1-0.3,0.2-0.4,0.3V402L183.4,402z"/>
					</g>
				</g>
			</g>
			<g>
				<g>
					<path class="st23" d="M184.2,402c0,2.3-6.6,4.2-14.8,4.2c-1.1,0-2.2,0-3.2-0.1c-1.3-0.1-2.6-0.2-3.7-0.4c-1-0.2-2-0.3-2.9-0.6
						c-0.3-0.1-0.5-0.1-0.8-0.2c-1.1-0.3-2-0.7-2.7-1.1c-0.1-0.1-0.3-0.2-0.4-0.2c-0.7-0.5-1.1-1-1.1-1.6c0-0.1,0-0.1,0-0.2
						c0.3-2.2,6.8-4,14.8-4c2,0,3.8,0.1,5.6,0.3c0.3,0,0.7,0.1,1,0.1c1.4,0.2,2.7,0.5,3.8,0.8c0.2,0.1,0.5,0.1,0.7,0.2
						c0.8,0.3,1.5,0.5,2.1,0.8c0.6,0.3,1,0.7,1.3,1c0.2,0.3,0.3,0.5,0.4,0.8C184.2,401.9,184.2,402,184.2,402z"/>
					<path class="st24" d="M183.8,401.1l-17.7,5.1c-1.3-0.1-2.6-0.2-3.7-0.4l20-5.7C183.1,400.4,183.5,400.7,183.8,401.1z"/>
					<path class="st24" d="M176,398.3l-19.8,5.6c-0.1-0.1-0.3-0.2-0.4-0.2l19.2-5.5C175.3,398.2,175.6,398.2,176,398.3z"/>
					<path class="st24" d="M180.4,399.2l-20.8,5.9c-0.3-0.1-0.5-0.1-0.8-0.2l20.9-5.9C180,399.1,180.2,399.2,180.4,399.2z"/>
					<path class="st22" d="M181.2,402c0,0.1,0,0.1,0,0.2c-0.3,1.8-5.5,3.2-11.8,3.2c-6.3,0-11.5-1.4-11.8-3.2c0-0.1,0-0.1,0-0.2
						c0-1.9,5.3-3.4,11.8-3.4C175.9,398.7,181.2,400.2,181.2,402z"/>
					<path class="st20" d="M181.2,402.2c-0.3,1.8-5.5,3.2-11.8,3.2c-0.1,0-0.3,0-0.4,0c-1.4,0-2.8-0.1-4-0.2
						c-1.2-0.1-2.4-0.3-3.4-0.6c-0.3-0.1-0.5-0.1-0.7-0.2c-1.1-0.3-1.9-0.7-2.5-1.1c-0.1-0.1-0.3-0.2-0.4-0.3
						c-0.2-0.2-0.4-0.5-0.4-0.8c0.3-1.8,5.5-3.2,11.8-3.2c0.8,0,1.6,0,2.3,0.1c0.4,0,0.8,0,1.1,0.1c1.5,0.1,2.9,0.4,4.1,0.6
						c0.3,0.1,0.5,0.1,0.7,0.2c0.9,0.3,1.7,0.6,2.3,0.9c0.6,0.3,1,0.7,1.1,1.1C181.2,402,181.2,402.1,181.2,402.2z"/>
					<path class="st25" d="M181.2,401.9l-12.2,3.5c-1.4,0-2.8-0.1-4-0.2l15.1-4.3C180.6,401.2,181,401.6,181.2,401.9z"/>
					<path class="st25" d="M172.9,399.1l-14.5,4.1c-0.1-0.1-0.3-0.2-0.4-0.3l13.7-3.9C172.1,399.1,172.5,399.1,172.9,399.1z"/>
					<path class="st25" d="M177.8,400l-16.2,4.6c-0.3-0.1-0.5-0.1-0.7-0.2l16.1-4.6C177.3,399.8,177.5,399.9,177.8,400z"/>
					<g>
						<g>
							<g>
								<path class="st22" d="M171.1,403.9v0.6h-2.5V404c-1.8,0-3.5-0.2-4.5-0.4l1.3-0.9c1.2,0.2,2.7,0.3,4.1,0.3
									c1.2,0,1.6-0.1,1.6-0.2c0-0.4-6.8-0.1-6.8-1.4c0-0.6,1.5-1,4.4-1.2v-0.5h2.5v0.5c1.3,0,2.6,0.1,3.6,0.3l-1.3,0.9
									c-1.2-0.2-2.4-0.3-3.5-0.3c-1.2,0-1.6,0.1-1.6,0.2c0,0.4,6.8,0.1,6.8,1.4C175.2,403.3,173.8,403.8,171.1,403.9z"/>
							</g>
						</g>
						<g>
							<path class="st23" d="M171,403.8v0.6h-2.5v-0.5c-1.8,0-3.5-0.2-4.5-0.4l1.3-0.9c1.2,0.2,2.7,0.3,4.1,0.3
								c1.2,0,1.6-0.1,1.6-0.2c0-0.4-6.8-0.1-6.8-1.4c0-0.6,1.5-1,4.4-1.2v-0.5h2.5v0.5c1.3,0,2.6,0.1,3.6,0.3l-1.3,0.9
								c-1.2-0.2-2.4-0.3-3.5-0.3c-1.2,0-1.6,0.1-1.6,0.2c0,0.4,6.8,0.1,6.8,1.4C175.1,403.1,173.7,403.6,171,403.8z"/>
						</g>
					</g>
				</g>
			</g>
		</g>
		<g>
			<path class="st23" d="M146.5,397.5c-0.6,14.5-12.9,25.8-27.4,25.2c-2-0.1-3.9-0.4-5.8-0.9c-2.3-0.6-4.5-1.5-6.5-2.7
				c-1.8-1.1-3.5-2.3-4.9-3.8c-0.5-0.4-0.9-0.9-1.3-1.4c-1.9-2.1-3.4-4.4-4.5-7c-0.2-0.5-0.4-1-0.6-1.5c-1.2-3.2-1.7-6.6-1.6-10.1
				c0-0.3,0-0.7,0.1-1c1.1-14.1,13.1-24.8,27.3-24.3c3.5,0.1,6.8,1,9.8,2.3c0.6,0.3,1.1,0.5,1.7,0.9c2.4,1.3,4.6,3,6.5,5
				c0.4,0.4,0.8,0.9,1.2,1.4c1.4,1.7,2.5,3.5,3.5,5.4c1,2,1.7,4.2,2.1,6.4c0.3,1.6,0.5,3.3,0.5,5.1
				C146.5,396.8,146.5,397.1,146.5,397.5z"/>
			<path class="st24" d="M146,391.4l-32.7,30.4c-2.3-0.6-4.5-1.5-6.5-2.7l37.1-34.1C144.9,387,145.6,389.2,146,391.4z"/>
			<path class="st24" d="M132.7,373.2L96,407c-0.2-0.5-0.4-1-0.6-1.5l35.6-33.1C131.6,372.6,132.2,372.9,132.7,373.2z"/>
			<path class="st24" d="M140.4,379.6l-38.6,35.7c-0.5-0.4-0.9-0.9-1.3-1.4l38.7-35.7C139.6,378.7,140,379.1,140.4,379.6z"/>
			<path class="st22" d="M141.2,397.2c0,0.3,0,0.6-0.1,1c-1,11.1-10.6,19.7-21.8,19.2c-11.3-0.5-20.1-9.8-20.2-20.9c0-0.3,0-0.6,0-1
				c0.5-11.6,10.3-20.6,21.9-20.2C132.6,375.8,141.6,385.6,141.2,397.2z"/>
			<path class="st20" d="M141.1,398.2c-1,11.1-10.6,19.7-21.8,19.2c-0.3,0-0.5,0-0.8,0c-2.5-0.2-4.9-0.8-7.1-1.8
				c-2.2-1-4.2-2.3-5.9-4c-0.4-0.4-0.8-0.8-1.2-1.3c-1.8-2.1-3.2-4.5-4.1-7.1c-0.2-0.6-0.4-1.3-0.6-1.9c-0.4-1.5-0.6-3.1-0.6-4.8
				c1-11.1,10.6-19.7,21.8-19.2c1.4,0.1,2.8,0.3,4.2,0.6c0.7,0.2,1.4,0.4,2,0.6c2.7,0.9,5.1,2.4,7.1,4.3c0.4,0.4,0.9,0.8,1.3,1.3
				c1.6,1.7,2.9,3.7,3.8,5.8c0.9,2.1,1.5,4.4,1.7,6.8C141.1,397.2,141.1,397.7,141.1,398.2z"/>
			<path class="st25" d="M141,396.6l-22.5,20.7c-2.5-0.2-4.9-0.8-7.1-1.8l27.9-25.7C140.3,392,140.9,394.2,141,396.6z"/>
			<path class="st25" d="M127.1,378.5l-26.9,24.7c-0.2-0.6-0.4-1.3-0.6-1.9l25.4-23.4C125.8,378,126.4,378.2,127.1,378.5z"/>
			<path class="st25" d="M135.5,384l-29.9,27.6c-0.4-0.4-0.8-0.8-1.2-1.3l29.9-27.5C134.7,383.2,135.1,383.6,135.5,384z"/>
			<g>
				<g>
					<g>
						<path class="st22" d="M122.6,408.4l-0.1,3.5l-4.4-0.2l0.1-3.3c-3.1-0.3-6.2-1.3-8-2.5l2.6-5.3c2,1.3,4.8,2.2,7.2,2.3
							c2.1,0.1,2.9-0.3,2.9-1.1c0.1-2.8-12.2-1-11.8-9.3c0.1-3.6,2.9-6.4,8-7l0.1-3.4l4.4,0.2l-0.1,3.4c2.3,0.3,4.6,1,6.3,2.1
							l-2.5,5.3c-2.1-1.2-4.2-1.8-6.1-1.9c-2.2-0.1-2.9,0.5-2.9,1.3c-0.1,2.6,12.2,0.9,11.8,9.1
							C130.1,404.9,127.5,407.8,122.6,408.4z"/>
					</g>
				</g>
				<g>
					<path class="st23" d="M122.5,407.3l-0.1,3.5l-4.4-0.2l0.1-3.3c-3.1-0.3-6.2-1.3-8-2.5l2.6-5.3c2,1.3,4.8,2.2,7.2,2.3
						c2.1,0.1,2.9-0.3,2.9-1.1c0.1-2.8-12.2-1-11.8-9.3c0.1-3.6,2.9-6.4,8-7l0.1-3.4l4.4,0.2l-0.1,3.4c2.3,0.3,4.6,1,6.3,2.1
						l-2.5,5.3c-2.1-1.2-4.2-1.8-6.1-1.9c-2.2-0.1-2.9,0.5-2.9,1.3c-0.1,2.6,12.2,0.9,11.8,9.1C130,403.8,127.4,406.6,122.5,407.3z"
						/>
				</g>
			</g>
		</g>
		<g>
			<path class="st23" d="M363.8,177.1c-0.4,10.1-8.9,18-19.1,17.5c-1.4-0.1-2.7-0.3-4-0.6c-1.6-0.4-3.1-1.1-4.5-1.9
				c-1.2-0.7-2.4-1.6-3.4-2.6c-0.3-0.3-0.6-0.6-0.9-0.9c-1.3-1.4-2.4-3.1-3.1-4.9c-0.2-0.3-0.3-0.7-0.4-1.1
				c-0.8-2.2-1.2-4.6-1.1-7.1c0-0.2,0-0.5,0-0.7c0.8-9.8,9.1-17.3,19-16.9c2.4,0.1,4.7,0.7,6.8,1.6c0.4,0.2,0.8,0.4,1.2,0.6
				c1.7,0.9,3.2,2.1,4.5,3.5c0.3,0.3,0.6,0.6,0.8,0.9c1,1.1,1.8,2.4,2.4,3.8c0.7,1.4,1.2,2.9,1.5,4.5c0.2,1.1,0.3,2.3,0.3,3.5
				C363.8,176.7,363.8,176.9,363.8,177.1z"/>
			<path class="st24" d="M363.5,172.9l-22.7,21.1c-1.6-0.4-3.1-1.1-4.5-1.9l25.8-23.7C362.7,169.9,363.2,171.4,363.5,172.9z"/>
			<path class="st24" d="M354.3,160.3l-25.5,23.5c-0.2-0.3-0.3-0.7-0.4-1.1l24.8-23C353.5,159.9,353.9,160.1,354.3,160.3z"/>
			<path class="st24" d="M359.6,164.7l-26.8,24.8c-0.3-0.3-0.6-0.6-0.9-0.9l26.9-24.8C359.1,164.1,359.4,164.4,359.6,164.7z"/>
			<path class="st22" d="M360.1,177c0,0.2,0,0.4,0,0.7c-0.7,7.7-7.3,13.7-15.2,13.4c-7.8-0.3-14-6.8-14-14.6c0-0.2,0-0.4,0-0.7
				c0.3-8.1,7.2-14.4,15.2-14C354.2,162.1,360.5,168.9,360.1,177z"/>
			<path class="st20" d="M360.1,177.6c-0.7,7.7-7.3,13.7-15.2,13.4c-0.2,0-0.3,0-0.5,0c-1.7-0.1-3.4-0.6-4.9-1.3
				c-1.5-0.7-2.9-1.6-4.1-2.8c-0.3-0.3-0.6-0.6-0.9-0.9c-1.3-1.4-2.2-3.1-2.9-4.9c-0.2-0.4-0.3-0.9-0.4-1.3
				c-0.3-1.1-0.4-2.2-0.4-3.3c0.7-7.7,7.3-13.7,15.2-13.4c1,0,2,0.2,2.9,0.4c0.5,0.1,0.9,0.3,1.4,0.4c1.9,0.7,3.5,1.7,5,3
				c0.3,0.3,0.6,0.6,0.9,0.9c1.1,1.2,2,2.6,2.7,4.1c0.6,1.5,1.1,3,1.2,4.7C360.1,176.9,360.1,177.3,360.1,177.6z"/>
			<path class="st25" d="M360,176.5L344.4,191c-1.7-0.1-3.4-0.6-4.9-1.3l19.4-17.9C359.5,173.3,359.9,174.9,360,176.5z"/>
			<path class="st25" d="M350.3,163.9l-18.7,17.2c-0.2-0.4-0.3-0.9-0.4-1.3l17.7-16.3C349.4,163.6,349.9,163.8,350.3,163.9z"/>
			<path class="st25" d="M356.2,167.8l-20.8,19.2c-0.3-0.3-0.6-0.6-0.9-0.9l20.8-19.1C355.6,167.2,355.9,167.5,356.2,167.8z"/>
			<g>
				<g>
					<g>
						<path class="st22" d="M347.2,184.8l-0.1,2.4l-3.1-0.1l0.1-2.3c-2.2-0.2-4.3-0.9-5.6-1.8l1.8-3.7c1.4,0.9,3.3,1.5,5,1.6
							c1.5,0.1,2-0.2,2-0.7c0.1-1.9-8.5-0.7-8.2-6.4c0.1-2.5,2-4.5,5.6-4.8l0.1-2.4l3.1,0.1l-0.1,2.3c1.6,0.2,3.2,0.7,4.4,1.5
							l-1.7,3.7c-1.5-0.8-2.9-1.3-4.2-1.3c-1.5-0.1-2,0.4-2,0.9c-0.1,1.8,8.5,0.7,8.2,6.3C352.4,182.3,350.6,184.3,347.2,184.8z"/>
					</g>
				</g>
				<g>
					<path class="st23" d="M347.1,183.9l-0.1,2.4l-3.1-0.1l0.1-2.3c-2.2-0.2-4.3-0.9-5.6-1.8l1.8-3.7c1.4,0.9,3.3,1.5,5,1.6
						c1.5,0.1,2-0.2,2-0.7c0.1-1.9-8.5-0.7-8.2-6.4c0.1-2.5,2-4.5,5.6-4.8l0.1-2.4l3.1,0.1l-0.1,2.3c1.6,0.2,3.2,0.7,4.4,1.5
						l-1.7,3.7c-1.5-0.8-2.9-1.3-4.2-1.3c-1.5-0.1-2,0.4-2,0.9c-0.1,1.8,8.5,0.7,8.2,6.3C352.4,181.5,350.6,183.5,347.1,183.9z"/>
				</g>
			</g>
		</g>
	</g>
</g>
<g id="Layer_3_copy" class="st0">
	<path class="st26" d="M446.5,424c0.5,1.1,0.9,2.4,1.2,4c0.7,2.9,1.2,5.4,0,7c-0.5,0.8-1.2,0.8-6.5,1.1c-2.8,0-4.2,0.3-6.3,0
		c-4-0.3-4.4-1.1-4.7-1.6c-0.5-0.8,0.2-2.1,0.7-2.9c1.6-2.4,4.2-1.1,7.2-2.9c1.6-1.1,2.6-2.4,3-3.5L446.5,424z"/>
	<path class="st26" d="M410.6,424.9c0.6,2.7,1.2,5.6,1.8,8.3c-0.3,1.3-0.9,1.9-1.2,2.1c-1.8,1.9-5,0.5-12,1.1c-0.6,0-0.6,0-0.9,0
		c-6.4,0.3-7.9-2.4-7.9-2.4s-0.9-1.6,0-2.7c1.5-2.1,5.3-0.8,9.6-2.4c2.6-1.1,4.4-2.7,5.6-4C407.1,424.9,408.9,424.9,410.6,424.9z"/>
	<path class="st10" d="M444.2,206c-1.6,1.6-2.6,3.2-3,4.3c0.5,4.8,1.2,9.7,1.6,14.5c3.5,4.8,6.8,8.3,9.1,10.7
		c7.2,7.5,11,8.8,13.5,15c2.1,5.1,1.9,9.9,1.9,12.1c-0.7,12.6-11,24.7-25.9,31.4c1.9,2.9,4,5.6,5.8,8.6c7.2-2.9,21.5-10.5,30.8-27.3
		c3-5.9,7-13.1,6.5-22.5c-0.7-11.5-7.5-19.3-18-31.6c-7-8.3-13.5-13.9-17.7-17.4C447.7,203.9,445.8,204.7,444.2,206z"/>
	<path class="st27" d="M407.3,283.8c3.7-8.3,20.3-9.1,31-1.1c7,5.4,10,13.4,11,17.2c-5.8,5.4-14.2,14.7-21,28.4
		c-7.2,14.5-9.1,27.1-12.4,48c-1.9,12.3-3.7,29.8-4.2,50.7c-1.4,0.3-4,0.5-6.8-0.5c-1.2-0.5-2.1-1.1-2.8-1.6
		c-3-15.8-5.6-37-4.7-62.2c0.7-22.5,4.2-41.6,7.7-56c0.9-4.3,1.6-8.3,2.6-12.6C405.9,288.3,406.6,285.1,407.3,283.8z"/>
	<path class="st27" d="M449.3,425.9c1.2-29.8,1.2-43.7,0.7-50.7c-0.2-1.9-0.7-8.6-0.5-17.7c0.2-3.2,0.2-6.4,0.5-10.2
		c0.2-5.6,0.9-13.1,2.1-22.3c1.6-9.7,1.9-17.4,1.6-22.8c-0.2-5.1-0.7-8.6-2.3-12.1c-1.9-4-4.4-6.4-6.1-7.8c-5.8,0-11.7,0.3-17.5,0.3
		c-1.9,28.7-1.9,63,3.5,101.3c2.1,15,4.9,29.2,7.9,42.4C442.6,426.1,445.8,425.9,449.3,425.9z"/>
	<path class="st28" d="M356.9,200.9l0.8-0.5c1.7-1.2,2.3-3.6,1.3-5.6l-4.9-9.7c-1.1-1.9-3.2-2.7-4.9-1.5l-0.8,0.5
		c-1.7,1.2-2.3,3.6-1.3,5.6l4.9,9.7C352.9,201.4,355,202.1,356.9,200.9z"/>
	<g class="st1">
		<g class="st29">
			<path d="M452.4,267.7c0.2-15.6,0.7-28.2,1.2-36.7c0.7-12.1,1.4-19.6-3-24.9c-3.5-4.6-9.1-5.6-12.8-5.6c-1.6,1.1-13.1,0-13.1,0
				c-7,0.8-16.8,3.2-25.4,11.5c-8.4,8-9.8,16.4-14.9,17.2c-4.7,0.8-12.6-4.6-25.2-34.9c-2.8,1.1-5.4,2.4-8.2,3.8
				c-0.2,4.8,0,34.3,18.4,49.9c2.1,1.6,16.6,13.7,26.8,8c4.7-2.7,6.5-7.5,8.4-6.7c2.6,1.1,0.5,11.3,0.5,26.3
				c0,8.8,0.9,16.1,1.6,20.9c9.3,0.8,19.4,1.1,29.9,1.1c6.1,0,11.9-0.3,17.5-0.5C453.5,287,453.1,277.3,452.4,267.7z"/>
		</g>
		<g>
			<path class="st30" d="M452.4,267.7c0.2-15.6,0.7-28.2,1.2-36.7c0.7-12.1,1.4-19.6-3-24.9c-3.5-4.6-9.1-5.6-12.8-5.6
				c-1.6,1.1-13.1,0-13.1,0c-7,0.8-16.8,3.2-25.4,11.5c-8.4,8-9.8,16.4-14.9,17.2c-4.7,0.8-12.6-4.6-25.2-34.9
				c-2.8,1.1-5.4,2.4-8.2,3.8c-0.2,4.8,0,34.3,18.4,49.9c2.1,1.6,16.6,13.7,26.8,8c4.7-2.7,6.5-7.5,8.4-6.7
				c2.6,1.1,0.5,11.3,0.5,26.3c0,8.8,0.9,16.1,1.6,20.9c9.3,0.8,19.4,1.1,29.9,1.1c6.1,0,11.9-0.3,17.5-0.5
				C453.5,287,453.1,277.3,452.4,267.7z"/>
		</g>
	</g>
	<path class="st31" d="M451.7,294.2l-0.6-0.8c-1.4-1.5-3.9-1.8-5.7-0.5l-9,6.1c-1.8,1.3-2.2,3.5-0.8,5l0.6,0.8
		c1.4,1.5,3.9,1.8,5.7,0.5l9-6.1C452.7,298.1,453.1,295.9,451.7,294.2z"/>
	<path class="st28" d="M437.9,200.1c-0.9,0-1.9-6.2-1.9-6.2l0.9-10.2l-1.9-11c-0.7-10.2-16.6-4-16.6-4c-5.4,0.8-5.4,15-5.4,15
		c0,18.2,9.6,12.1,9.6,12.1l0.9,4.3C428.3,203.3,437.7,199.9,437.9,200.1z"/>
	<path class="st10" d="M415.7,172.2c0.7,0.3,1.4,0.5,1.6,0.8c0,0-3.5,10.2-0.9,6.2c2.6-4,7.9-1.1,4.4,7c-3.5,8,4.4,4.8,11.4,7
		c7,1.9,6.3-1.9,8.9-13.1c2.6-11.3,7.9-14.2-14-22.3c-5.6-2.1-9.8-2.4-12.6,0.5c-2.8,2.7-3.3,8.6-1.4,14.5
		C413.4,172.5,414.6,172,415.7,172.2z"/>
</g>
<g id="Layer_27">
	<ellipse class="st3" cx="131.3" cy="453" rx="45.4" ry="5.3"/>
	<ellipse class="st3" cx="268.6" cy="421.1" rx="103.3" ry="8.6"/>
</g>
<g id="Layer_20">
	<g>
		<path class="st32" d="M337.9,423.5H199.7c-10.8,0-19.7-8.9-19.7-19.7v-294c0-10.8,8.9-19.7,19.7-19.7h138.2
			c10.8,0,19.7,8.9,19.7,19.7v294C357.6,414.6,348.7,423.5,337.9,423.5z"/>
		<path class="st33" d="M350.9,113.5v286.4c0,9.1-7.5,16.6-16.6,16.6h-131c-9.1,0-16.6-7.5-16.6-16.6V113.5
			c0-9.1,7.5-16.6,16.6-16.6h35.4c1.4,0,2.6,0.8,3.1,2.1l2.5,6.2c0.5,1.2,1.6,1.9,2.8,1.9h49.2c1.2,0,2.3-0.7,2.8-1.8l2.4-5.4
			c0.8-1.8,2.5-2.9,4.5-2.9h28.3C343.5,96.9,350.9,104.3,350.9,113.5z"/>
		<path class="st34" d="M350.9,113.3v6.1H186.7v-6.1c0-9.1,7.5-16.6,16.6-16.6h35.4c1.4,0,2.6,0.8,3.1,2.1l2.5,6.2
			c0.5,1.2,1.6,1.9,2.8,1.9h49.2c1.2,0,2.3-0.7,2.8-1.8l2.4-5.4c0.8-1.8,2.5-2.9,4.5-2.9h28.3C343.5,96.6,350.9,104.1,350.9,113.3z"
			/>
		<rect x="186.8" y="117.6" class="st34" width="164.1" height="15.5"/>
	</g>
	<g id="Layer_23">
		<path class="st3" d="M268,312.9h-64.3c-2.5,0-4.6-2-4.6-4.6l0,0c0-2.5,2-4.6,4.6-4.6H268c2.5,0,4.6,2,4.6,4.6l0,0
			C272.6,310.8,270.6,312.9,268,312.9z"/>
		<path class="st3" d="M332.1,312.9h-64.3c-2.5,0-4.6-2-4.6-4.6l0,0c0-2.5,2-4.6,4.6-4.6h64.3c2.5,0,4.6,2,4.6,4.6l0,0
			C336.7,310.8,334.7,312.9,332.1,312.9z"/>
		<path class="st3" d="M268,328.6h-64.3c-2.5,0-4.6-2-4.6-4.6l0,0c0-2.5,2-4.6,4.6-4.6H268c2.5,0,4.6,2,4.6,4.6l0,0
			C272.6,326.6,270.6,328.6,268,328.6z"/>
		<path class="st3" d="M332.1,328.6h-64.3c-2.5,0-4.6-2-4.6-4.6l0,0c0-2.5,2-4.6,4.6-4.6h64.3c2.5,0,4.6,2,4.6,4.6l0,0
			C336.7,326.6,334.7,328.6,332.1,328.6z"/>
		<path class="st3" d="M268,345.4h-64.3c-2.5,0-4.6-2-4.6-4.6v0c0-2.5,2-4.6,4.6-4.6H268c2.5,0,4.6,2,4.6,4.6v0
			C272.6,343.4,270.6,345.4,268,345.4z"/>
		<path class="st3" d="M332.1,345.4h-64.3c-2.5,0-4.6-2-4.6-4.6v0c0-2.5,2-4.6,4.6-4.6h64.3c2.5,0,4.6,2,4.6,4.6v0
			C336.7,343.4,334.7,345.4,332.1,345.4z"/>
		<path class="st3" d="M268,297.1h-64.3c-2.5,0-4.6-2-4.6-4.6l0,0c0-2.5,2-4.6,4.6-4.6H268c2.5,0,4.6,2,4.6,4.6l0,0
			C272.6,295.1,270.6,297.1,268,297.1z"/>
		<path class="st3" d="M332.1,297.1h-64.3c-2.5,0-4.6-2-4.6-4.6l0,0c0-2.5,2-4.6,4.6-4.6h64.3c2.5,0,4.6,2,4.6,4.6l0,0
			C336.7,295.1,334.7,297.1,332.1,297.1z"/>
		<path class="st3" d="M268,281.3h-64.3c-2.5,0-4.6-2-4.6-4.6l0,0c0-2.5,2-4.6,4.6-4.6H268c2.5,0,4.6,2,4.6,4.6l0,0
			C272.6,279.3,270.6,281.3,268,281.3z"/>
	</g>
	<g id="Layer_22">
		<g>
			<path class="st35" d="M296.7,178.7c0,6-2.7,11.4-7,14.9c-0.3,0.2-0.6,0.5-0.8,0.7c0,0,0,0,0,0c-0.2,0.1-0.3,0.2-0.5,0.3
				c-0.5,0.4-1.1,0.7-1.7,1.1c-0.3,0.2-0.7,0.4-1.1,0.5c-2.2,1-4.6,1.7-7.2,1.8h0c-0.2,0-0.4,0-0.6,0c-0.2,0-0.4,0-0.5,0
				c-2.8,0-5.5-0.6-7.9-1.7c-0.5-0.2-0.9-0.4-1.3-0.7c-0.5-0.3-1-0.6-1.4-0.9c-0.1-0.1-0.2-0.2-0.4-0.3c-0.4-0.3-0.8-0.6-1.2-0.9
				c-4.3-3.6-7-8.9-7-14.9c0-10.7,8.7-19.4,19.4-19.4C288,159.3,296.7,168,296.7,178.7z"/>
			<path class="st36" d="M270.4,159.5"/>
			<path class="st37" d="M281.3,177.4c-0.1,1,0.3,1.8,0.9,1.9c0.5,0,1-0.7,1.1-1.7c0.1-1-0.3-1.8-0.9-1.9
				C281.9,175.7,281.4,176.4,281.3,177.4z"/>
			<path class="st37" d="M273.8,177.4c0.1,1-0.3,1.8-0.9,1.9c-0.5,0-1-0.7-1.1-1.7c-0.1-1,0.3-1.8,0.9-1.9
				C273.3,175.7,273.8,176.4,273.8,177.4z"/>
			<path class="st37" d="M274.5,179.9c1.4,4.4,0,6.2,0,6.2l2.8,11.1l2.8-11.1c0,0-1.7-2.1,0-7.4
				C280.6,177.3,274.1,178.5,274.5,179.9z"/>
			<path class="st36" d="M283,173.7c0,3.1-2.2,5.1-5.5,5.1c-3.3,0-5.7-1.6-5.7-5.7c0-3.1,2.5-5.3,5.8-5.3
				C280.9,167.8,283,170.6,283,173.7z"/>
			<path class="st38" d="M282.2,177c0,4.2-2.2,7.6-4.8,7.6c-2.7,0-4.8-3.4-4.8-7.6c0-4.2,2.2-7.6,4.8-7.6
				C280,169.5,282.2,172.9,282.2,177z"/>
			<path class="st39" d="M283,179.4c0,1.4-1.4,2.8-4.9,3"/>
			<path class="st40" d="M278.6,182.1c0,0.3-0.3,0.5-0.7,0.5c-0.4,0-0.7-0.2-0.7-0.5c0-0.3,0.3-0.5,0.7-0.5
				C278.3,181.6,278.6,181.8,278.6,182.1z"/>
			<g class="st0">
				<path class="st41" d="M272.5,176.8v1.5c0,0.8-0.2,1.4-0.4,1.4h-0.4v-4.4c0,0,0.2,0,0.4,0C272.4,175.3,272.5,176,272.5,176.8z"/>
				<path class="st41" d="M272.5,177.5c0,1.2-0.4,2.2-0.8,2.2c-0.4,0-0.8-1-0.8-2.2s0.4-2.2,0.8-2.2
					C272.1,175.3,272.5,176.3,272.5,177.5z"/>
				<path class="st41" d="M277.6,168.6c-0.2,0-0.4,0-0.6,0c-2.8,0.3-4.7,1.9-5.2,4.7c-0.1,0.4-0.1,0.8-0.1,1.2c0,0.3,0,0.6,0,0.9v0
					c0,0.3,0.1,0.7,0.2,1c0.1,0.3,0.2,0.6,0.4,0.8v-1.4c0-0.1,0-0.2-0.1-0.2c0,0,0,0,0,0c0,0,0,0,0,0c0-0.1,0-0.1,0-0.2
					c0-0.3-0.1-0.6,0-0.8c0.1-3.7,2.4-5.3,5.3-5.3c0.1,0,0.1,0,0.2,0v-0.5C277.7,168.6,277.7,168.6,277.6,168.6z"/>
			</g>
			<g class="st0">
				<path class="st41" d="M282.2,176.8v1.5c0,0.8,0.2,1.5,0.4,1.5h0.4v-4.4c0,0-0.2,0-0.4,0C282.4,175.3,282.2,176,282.2,176.8z"/>
				<path class="st41" d="M282.3,177.5c0,1.2,0.4,2.2,0.8,2.2c0.4,0,0.8-1,0.8-2.2c0-1.2-0.4-2.2-0.8-2.2
					C282.6,175.3,282.3,176.3,282.3,177.5z"/>
				<path class="st41" d="M283,173.7L283,173.7c-0.1-0.6-0.2-1.2-0.4-1.7c-0.3-0.7-0.7-1.3-1.2-1.8c-0.9-0.9-2.1-1.5-3.7-1.6
					c-0.1,0-0.1,0-0.2,0c-0.2,0-0.4,0-0.6,0v0.5c0.2,0,0.4,0,0.6,0c0.8,0.1,1.6,0.2,2.2,0.6c0,0,0,0,0,0c1.1,0.6,2,1.5,2.4,2.9
					c0.2,0.5,0.3,1.2,0.3,1.8c0,0.3,0,0.6,0,0.8c0,0.1,0,0.1,0,0.2v0c0,0.1,0,0.1,0,0.2c0,0,0,0,0,0v1.4c0.2-0.4,0.4-0.8,0.5-1.2
					c0.1-0.2,0.1-0.4,0.1-0.7v0c0-0.3,0.1-0.6,0-0.9C283,174.2,283,174,283,173.7z"/>
			</g>
			<path class="st42" d="M288.8,194.2C288.8,194.2,288.8,194.2,288.8,194.2c-0.2,0.1-0.3,0.2-0.5,0.3c-0.5,0.4-1.1,0.7-1.7,1.1
				c-0.3,0.2-0.7,0.4-1.1,0.5c-2.2,1-4.6,1.7-7.2,1.8h0c-0.2,0-0.4,0-0.6,0c-0.2,0-0.4,0-0.5,0c-2.8,0-5.5-0.6-7.9-1.7
				c-0.5-0.2-0.9-0.4-1.3-0.7c-0.5-0.3-1-0.6-1.4-0.9c-0.1-0.1-0.2-0.2-0.4-0.3c0.1-1,0.1-2.1,0.2-3c0.2-1.6,0.5-2.8,1.3-3.1
				l6.9-2.3c0,0,0,0,0,0.1c0.1,0.5,0.8,2.3,3,2.3c1.7,0,2.3-1.4,2.5-2c0-0.1,0.1-0.3,0.1-0.3c0,0,0,0,0,0l7.2,2.3
				C288.6,188.7,288.6,191.6,288.8,194.2z"/>
			<path class="st36" d="M277.4,169.2c-0.3,0-5-0.4-4.9,6.7l0,1.4c0,0,0.6,0.1,0.7-0.7c0.1-0.8,0.2-2.6,0.2-2.6s0.2-1.4,1-1.6
				c0,0,1.2,0.3,2.9,0.3l0,0c0,0,0,0,0,0c0,0,0,0,0,0l0,0c1.8,0,3.2-0.3,3.2-0.3c0.5,0.4,0.6,1.2,0.6,1.2s0.3,2.3,0.4,3.1
				c0.1,0.8,0.7,0.7,0.7,0.7l0-1.4C282.4,168.8,277.7,169.2,277.4,169.2z"/>
			<path class="st43" d="M274.6,172.6c0,0,0.8,1.7,4.1,1.6c3.3,0,4.4-2.7,4.3-4.1c0,0-1.1,0.5-3.2-0.5
				C277.2,168.4,273.7,170.7,274.6,172.6z"/>
		</g>
		<g>
			<path class="st35" d="M343,178.7c0,6-2.7,11.4-7,14.9c-0.3,0.2-0.6,0.5-0.8,0.7c0,0,0,0,0,0c-0.2,0.1-0.3,0.2-0.5,0.3
				c-0.5,0.4-1.1,0.7-1.7,1.1c-0.3,0.2-0.7,0.4-1.1,0.5c-2,1-4.2,1.6-6.6,1.8c-0.2,0-0.4,0-0.6,0h0c-0.2,0-0.4,0-0.6,0
				c-0.2,0-0.4,0-0.5,0c-0.5,0-1.1,0-1.6-0.1c-2.2-0.2-4.4-0.8-6.3-1.6c-0.5-0.2-0.9-0.4-1.3-0.7c-0.5-0.3-1-0.6-1.4-0.9
				c-0.1-0.1-0.2-0.2-0.4-0.3c-0.4-0.3-0.8-0.6-1.2-0.9c-4.3-3.6-7-8.9-7-14.9c0-10.7,8.7-19.4,19.4-19.4
				C334.3,159.3,343,168,343,178.7z"/>
			<path class="st36" d="M316.7,159.5"/>
			<path class="st37" d="M327.6,177.4c-0.1,1,0.3,1.8,0.9,1.9c0.5,0,1-0.7,1.1-1.7c0.1-1-0.3-1.8-0.9-1.9
				C328.2,175.7,327.7,176.4,327.6,177.4z"/>
			<path class="st37" d="M320.1,177.4c0.1,1-0.3,1.8-0.9,1.9c-0.5,0-1-0.7-1.1-1.7c-0.1-1,0.3-1.8,0.9-1.9
				C319.6,175.7,320.1,176.4,320.1,177.4z"/>
			<path class="st37" d="M320.8,179.9c1.4,4.4,0,6.2,0,6.2l2.8,11.1l2.8-11.1c0,0-1.7-2.1,0-7.4
				C326.9,177.3,320.4,178.5,320.8,179.9z"/>
			<path class="st36" d="M329.3,173.7c0,3.1-2.2,5.1-5.5,5.1c-3.3,0-5.7-1.6-5.7-5.7c0-3.1,2.5-5.3,5.8-5.3
				C327.2,167.8,329.3,170.6,329.3,173.7z"/>
			<path class="st38" d="M328.5,177c0,4.2-2.2,7.6-4.8,7.6c-2.7,0-4.8-3.4-4.8-7.6c0-4.2,2.2-7.6,4.8-7.6
				C326.3,169.5,328.5,172.9,328.5,177z"/>
			<path class="st44" d="M329.3,179.4c0,1.4-1.4,2.8-4.9,3"/>
			<path class="st45" d="M324.9,182.1c0,0.3-0.3,0.5-0.7,0.5c-0.4,0-0.7-0.2-0.7-0.5c0-0.3,0.3-0.5,0.7-0.5
				C324.6,181.6,324.9,181.8,324.9,182.1z"/>
			<g>
				<path class="st45" d="M318.8,176.8v1.5c0,0.8-0.2,1.4-0.4,1.4H318v-4.4c0,0,0.2,0,0.4,0C318.7,175.3,318.8,176,318.8,176.8z"/>
				<ellipse class="st45" cx="318" cy="177.5" rx="0.8" ry="2.2"/>
				<path class="st45" d="M323.9,168.6c-0.2,0-0.4,0-0.6,0c-2.8,0.3-4.7,2-5.2,4.7v0c-0.1,0.4-0.1,0.7-0.1,1.1c0,0.3,0,0.6,0,0.9v0
					c0,0.4,0.1,0.7,0.2,1c0.1,0.3,0.2,0.6,0.4,0.8v-1.4c0-0.1,0-0.2-0.1-0.2c0,0,0,0,0,0c0,0,0,0,0,0c0-0.1,0-0.1,0-0.2
					c0-0.3-0.1-0.6,0-0.8c0.1-2.4,1.1-3.9,2.6-4.7c0,0,0,0,0,0c0.5-0.2,1-0.4,1.5-0.5c0,0,0,0,0,0c0.4-0.1,0.8-0.1,1.2-0.1
					c0.1,0,0.1,0,0.2,0v-0.5C324,168.6,324,168.6,323.9,168.6z"/>
			</g>
			<g>
				<path class="st45" d="M328.5,176.8v1.5c0,0.8,0.2,1.5,0.4,1.5h0.4v-4.4c0,0-0.2,0-0.4,0C328.7,175.3,328.5,176,328.5,176.8z"/>
				<path class="st45" d="M328.6,177.5c0,1.2,0.4,2.2,0.8,2.2c0.4,0,0.8-1,0.8-2.2c0-1.2-0.4-2.2-0.8-2.2
					C328.9,175.3,328.6,176.3,328.6,177.5z"/>
				<path class="st45" d="M329.3,173.7c-0.3-3-2.2-4.8-5.2-5.1c-0.1,0-0.1,0-0.2,0c-0.2,0-0.4,0-0.6,0v0.5c0.2,0,0.4,0,0.6,0
					c2.8,0.2,4.9,1.8,5,5.3c0,0.3,0,0.6,0,0.8c0,0.1,0,0.1,0,0.2v0c0,0.1,0,0.1,0,0.2c0,0,0,0,0,0v1.4c0.2-0.4,0.4-0.8,0.5-1.2
					c0.1-0.2,0.1-0.4,0.1-0.7v0c0-0.3,0.1-0.6,0-0.9C329.3,174.2,329.3,174,329.3,173.7z"/>
			</g>
			<path class="st46" d="M335.1,194.2C335.1,194.2,335.1,194.2,335.1,194.2c-0.2,0.1-0.3,0.2-0.5,0.3c-0.5,0.4-1.1,0.7-1.7,1.1
				c-0.3,0.2-0.7,0.4-1.1,0.5c-2,1-4.2,1.6-6.6,1.8c-0.2,0-0.4,0-0.6,0h0c-0.2,0-0.4,0-0.6,0c-0.2,0-0.4,0-0.5,0
				c-0.5,0-1.1,0-1.6-0.1c-2.2-0.2-4.4-0.8-6.3-1.6c-0.5-0.2-0.9-0.4-1.3-0.7c-0.5-0.3-1-0.6-1.4-0.9c-0.1-0.1-0.2-0.2-0.4-0.3
				c0.2-2.7,0.2-5.7,1.4-6.1h0l5.6-1.9l1.3-0.4c0,0,0,0,0,0.1c0.1,0.4,0.5,1.4,1.6,1.9c0.1,0.1,0.3,0.1,0.5,0.2
				c0.3,0.1,0.6,0.1,0.9,0.1c0.2,0,0.4,0,0.5,0c0.1,0,0.3-0.1,0.4-0.1c1-0.4,1.5-1.4,1.6-1.9c0-0.1,0.1-0.3,0.1-0.3c0,0,0,0,0,0
				l1.1,0.4l6,1.9C334.9,188.7,334.9,191.6,335.1,194.2z"/>
			<path class="st36" d="M319.4,170l-0.7-0.8c0,0,0.7-0.2,1.1,0.2l0.1-0.8c0,0,0.6,0.5,1.2,0.3c0,0,0,0,0,0
				C321.6,168.7,319.4,170,319.4,170z"/>
			<path class="st36" d="M319,174.3c0,0,1.4-0.4,1.8-2.5c0,0,1.9,1.2,3.8,1.1l-0.4-0.9c0,0,2.1,1.9,4.2,2.1c0,0-0.6-4.6-4.7-4.9
				C319.5,169,319.3,173.1,319,174.3z"/>
			<polygon class="st42" points="322.1,187.1 322.1,187.2 322.1,187.2 			"/>
			<path class="st42" d="M325.3,198c-0.2,0-0.4,0-0.6,0h0c-0.2,0-0.4,0-0.6,0c-0.2,0-0.4,0-0.5,0c-0.5,0-1.1,0-1.6-0.1l0.6-5.1
				l0.4-3.1l-0.3-1l-0.2-0.6l-0.3-1h3l-0.4,1.1l-0.2,0.5l-0.3,0.9l0.4,3.3L325.3,198z"/>
			<polygon class="st33" points="319.6,186.5 321.3,184.8 323.6,187.2 322.2,189.6 			"/>
			<polygon class="st33" points="327.7,186.5 325.9,184.8 323.6,187.2 325.1,189.6 			"/>
		</g>
		<g>
			<path class="st35" d="M250.6,178.7c0,8.6-3.9,16.3-10.1,21.4c-0.4,0.3-0.8,0.6-1.2,1c-0.2,0.2-0.5,0.3-0.7,0.5
				c-0.8,0.5-1.6,1-2.4,1.5c-0.5,0.3-1,0.5-1.5,0.8c-3.2,1.5-6.6,2.4-10.3,2.6h0c-0.3,0-0.6,0-0.9,0c-0.3,0-0.5,0-0.8,0
				c-4,0-7.9-0.9-11.4-2.5c-0.7-0.3-1.3-0.6-1.9-1c-0.7-0.4-1.4-0.8-2.1-1.2c-0.2-0.1-0.4-0.2-0.5-0.4c-0.6-0.4-1.2-0.9-1.8-1.3
				c-6.2-5.1-10.1-12.8-10.1-21.4c0-15.4,12.5-27.8,27.8-27.8C238.2,150.9,250.6,163.3,250.6,178.7z"/>
			<path class="st36" d="M212.9,151.1"/>
			<path class="st37" d="M228.6,176.9c-0.1,1.4,0.5,2.6,1.2,2.7c0.8,0.1,1.5-1.1,1.6-2.5c0.1-1.4-0.5-2.6-1.2-2.7
				C229.4,174.3,228.7,175.5,228.6,176.9z"/>
			<path class="st37" d="M217.8,176.9c0.1,1.4-0.5,2.6-1.2,2.7c-0.8,0.1-1.5-1.1-1.6-2.5c-0.1-1.4,0.5-2.6,1.2-2.7
				C217,174.3,217.7,175.5,217.8,176.9z"/>
			<path class="st37" d="M218.9,180.4c2,6.3,0,8.9,0,8.9l4,15.9l4-15.9c0,0-2.5-3.1,0-10.7C227.6,176.7,218.3,178.5,218.9,180.4z"/>
			<path class="st36" d="M231,171.5c0,4.5-3.1,7.3-7.8,7.3c-4.7,0-8.2-3.7-8.2-8.2c0-4.5,3.6-7.6,8.3-7.6
				C228,163.1,231,167,231,171.5z"/>
			<path class="st38" d="M229.9,176.3c0,6-3.1,10.9-7,10.9c-3.8,0-7-4.9-7-10.9c0-6,3.1-10.9,7-10.9
				C226.8,165.5,229.9,170.3,229.9,176.3z"/>
			<path class="st39" d="M231,179.7c0,2-2,4-7,4.3"/>
			<path class="st40" d="M224.7,183.7c0,0.4-0.5,0.8-1,0.8s-1-0.3-1-0.8c0-0.4,0.5-0.8,1-0.8S224.7,183.2,224.7,183.7z"/>
			<g class="st0">
				<path class="st41" d="M216,175.9v2.2c0,1.2-0.3,2.1-0.6,2.1h-0.6v-6.4c0,0,0.3,0,0.6,0C215.7,173.9,216,174.8,216,175.9z"/>
				<ellipse class="st41" cx="214.8" cy="177" rx="1.1" ry="3.2"/>
				<path class="st41" d="M223.2,164.2c-0.3,0-0.6,0-0.8,0c-4.6,0.4-7.4,3.5-7.6,8.3c0,0.4,0,0.8,0.1,1.2v0c0.1,0.9,0.4,1.8,0.9,2.7
					v-2.1c0-0.1-0.1-0.2-0.1-0.4c0,0,0,0,0,0c0-0.1,0-0.2,0-0.3c-0.1-0.4-0.1-0.8-0.1-1.2c0.2-5.3,3.4-7.6,7.7-7.7
					c0.1,0,0.2,0,0.3,0v-0.7C223.4,164.2,223.3,164.2,223.2,164.2z"/>
			</g>
			<g class="st0">
				<path class="st41" d="M229.9,175.9v2.2c0,1.2,0.3,2.1,0.6,2.1h0.6v-6.4c0,0-0.3,0-0.6,0C230.2,173.8,229.9,174.8,229.9,175.9z"
					/>
				<path class="st41" d="M230,177c0,1.8,0.5,3.2,1.1,3.2c0.6,0,1.1-1.4,1.1-3.2c0-1.8-0.5-3.2-1.1-3.2
					C230.5,173.8,230,175.3,230,177z"/>
				<path class="st41" d="M223.5,164.3c-0.1,0-0.2,0-0.3,0c-0.3,0-0.6,0-0.8,0v0.7c0.3,0,0.6,0,0.8,0c4,0.3,7,2.6,7.1,7.6
					c0,0.4,0,0.8-0.1,1.2c0,0.1,0,0.2,0,0.3v0c0,0.1,0,0.2-0.1,0.3v2.1c0.5-0.8,0.7-1.7,0.9-2.7v0c0.1-0.4,0.1-0.8,0.1-1.2
					C231,167.7,228.1,164.7,223.5,164.3z"/>
			</g>
			<path class="st47" d="M239.4,201c-0.2,0.2-0.5,0.3-0.7,0.5c-0.8,0.5-1.6,1-2.4,1.5c-0.5,0.3-1,0.5-1.5,0.8
				c-3.2,1.5-6.6,2.4-10.3,2.6h0c-0.3,0-0.6,0-0.9,0c-0.3,0-0.5,0-0.8,0c-4,0-7.9-0.9-11.4-2.5c-0.7-0.3-1.3-0.6-1.9-1
				c-0.7-0.4-1.4-0.8-2.1-1.2c-0.2-0.1-0.4-0.2-0.5-0.4c0.1-1.5,0.2-3,0.3-4.3c0.2-2.2,0.7-4.1,1.8-4.4l9.9-3.3c0,0,0.5,1.8,4.1,1.8
				c3.2,0,4-1.8,4-1.8l10.3,3.2C239.1,193.1,239.1,197.3,239.4,201z"/>
			<path class="st36" d="M223,165.1c-0.4,0-7.2-0.6-7,9.6l0,2c0,0,0.8,0.1,1-1c0.1-1.1,0.5-4.4,0.5-4.4s0.3-1.3,0.9-1.8
				c0,0,2,0.5,4.6,0.5l0,0c0,0,0,0,0,0s0,0,0,0l0,0c2.6,0,4.6-0.5,4.6-0.5c0.7,0.6,0.9,1.8,0.9,1.8s0.4,3.3,0.5,4.4c0.1,1.1,1,1,1,1
				l0-2C230.2,164.5,223.4,165.1,223,165.1z"/>
			<path class="st48" d="M218.4,189.6c0,0,0.6-1.6,1-1.5c0.4,0.1,3.2,1.8,6.9,0c0,0,0.2-0.3,0.7,1.2c0,0-0.5,1.9-4.1,2
				S218.4,189.6,218.4,189.6z"/>
		</g>
		<g>
			<path class="st35" d="M228.8,244.5c0,4.5-2,8.5-5.3,11.2c-0.2,0.2-0.4,0.3-0.6,0.5c-0.1,0.1-0.2,0.2-0.4,0.3
				c-0.4,0.3-0.8,0.5-1.3,0.8c-0.3,0.1-0.5,0.3-0.8,0.4c-1.6,0.8-3.5,1.3-5.4,1.4h0c-0.2,0-0.3,0-0.5,0c-0.1,0-0.3,0-0.4,0
				c-2.1,0-4.1-0.5-5.9-1.3c-0.3-0.2-0.7-0.3-1-0.5c-0.4-0.2-0.7-0.4-1.1-0.7c-0.1-0.1-0.2-0.1-0.3-0.2c-0.3-0.2-0.6-0.5-0.9-0.7
				c-3.2-2.7-5.3-6.7-5.3-11.2c0-8,6.5-14.5,14.5-14.5C222.3,230,228.8,236.5,228.8,244.5z"/>
			<path class="st36" d="M209.1,230.1"/>
			<path class="st37" d="M217.3,243.6c-0.1,0.8,0.2,1.4,0.6,1.4c0.4,0,0.8-0.6,0.8-1.3c0.1-0.8-0.2-1.4-0.6-1.4
				C217.7,242.3,217.4,242.8,217.3,243.6z"/>
			<path class="st37" d="M211.7,243.6c0.1,0.8-0.2,1.4-0.6,1.4c-0.4,0-0.8-0.6-0.8-1.3c-0.1-0.8,0.2-1.4,0.6-1.4
				C211.3,242.3,211.6,242.8,211.7,243.6z"/>
			<path class="st37" d="M212.2,245.4c1,3.3,0,4.7,0,4.7l2.1,8.3l2.1-8.3c0,0-1.3-1.6,0-5.6C216.8,243.5,211.9,244.4,212.2,245.4z"
				/>
			<path class="st36" d="M218.6,240.8c0,2.3-1.6,3.8-4.1,3.8c-2.5,0-4.3-1.9-4.3-4.3c0-2.4,1.9-3.9,4.3-3.9
				C217,236.4,218.6,238.4,218.6,240.8z"/>
			<path class="st38" d="M218,243.3c0,3.1-1.6,5.7-3.6,5.7c-2,0-3.6-2.5-3.6-5.7c0-3.1,1.6-5.7,3.6-5.7
				C216.4,237.6,218,240.2,218,243.3z"/>
			<path class="st39" d="M218.6,245.1c0,1-1,2.1-3.7,2.2"/>
			<path class="st40" d="M215.3,247.1c0,0.2-0.2,0.4-0.5,0.4s-0.5-0.2-0.5-0.4s0.2-0.4,0.5-0.4S215.3,246.9,215.3,247.1z"/>
			<g class="st0">
				<path class="st41" d="M210.7,243.1v1.1c0,0.6-0.1,1.1-0.3,1.1h-0.3V242c0,0,0.1,0,0.3,0C210.6,242,210.7,242.5,210.7,243.1z"/>
				<ellipse class="st41" cx="210.1" cy="243.7" rx="0.6" ry="1.7"/>
				<path class="st41" d="M214.5,237c-0.1,0-0.3,0-0.4,0c-2.4,0.2-3.9,1.8-4,4.4c0,0.2,0,0.4,0,0.6v0c0.1,0.5,0.2,1,0.5,1.4v-1.1
					c0-0.1,0-0.1,0-0.2c0,0,0,0,0,0c0,0,0-0.1,0-0.1c0-0.2,0-0.4,0-0.6c0.1-2.7,1.8-4,4-4c0.1,0,0.1,0,0.2,0V237
					C214.6,237,214.6,237,214.5,237z"/>
			</g>
			<g class="st0">
				<path class="st41" d="M218,243.1v1.1c0,0.6,0.1,1.1,0.3,1.1h0.3V242c0,0-0.1,0-0.3,0C218.2,242,218,242.5,218,243.1z"/>
				<path class="st41" d="M218,243.7c0,0.9,0.3,1.7,0.6,1.7c0.3,0,0.6-0.7,0.6-1.7c0-0.9-0.3-1.7-0.6-1.7
					C218.3,242,218,242.7,218,243.7z"/>
				<path class="st41" d="M214.7,237c0,0-0.1,0-0.2,0c-0.1,0-0.3,0-0.4,0v0.3c0.1,0,0.3,0,0.4,0c2.1,0.1,3.6,1.4,3.7,4
					c0,0.2,0,0.4,0,0.6c0,0,0,0.1,0,0.1v0c0,0.1,0,0.1,0,0.2v1.1c0.2-0.4,0.4-0.9,0.5-1.4v0c0-0.2,0-0.4,0-0.6
					C218.5,238.8,217.1,237.2,214.7,237z"/>
			</g>
			<path class="st47" d="M222.9,256.2c-0.1,0.1-0.2,0.2-0.4,0.3c-0.4,0.3-0.8,0.5-1.3,0.8c-0.3,0.1-0.5,0.3-0.8,0.4
				c-1.6,0.8-3.5,1.3-5.4,1.4h0c-0.2,0-0.3,0-0.5,0c-0.1,0-0.3,0-0.4,0c-2.1,0-4.1-0.5-5.9-1.3c-0.3-0.2-0.7-0.3-1-0.5
				c-0.4-0.2-0.7-0.4-1.1-0.7c-0.1-0.1-0.2-0.1-0.3-0.2c0-0.8,0.1-1.6,0.2-2.3c0.1-1.2,0.3-2.1,0.9-2.3l5.2-1.7c0,0,0.3,0.9,2.1,0.9
				c1.7,0,2.1-0.9,2.1-0.9l5.4,1.7C222.8,252.1,222.8,254.2,222.9,256.2z"/>
			<path class="st36" d="M214.4,237.4c-0.2,0-3.8-0.3-3.7,5l0,1c0,0,0.4,0.1,0.5-0.5c0.1-0.6,0.3-2.3,0.3-2.3s0.1-0.7,0.5-0.9
				c0,0,1,0.3,2.4,0.3l0,0c0,0,0,0,0,0s0,0,0,0l0,0c1.3,0,2.4-0.3,2.4-0.3c0.4,0.3,0.5,0.9,0.5,0.9s0.2,1.7,0.3,2.3
				c0.1,0.6,0.5,0.5,0.5,0.5l0-1C218.1,237.1,214.6,237.4,214.4,237.4z"/>
			<path class="st48" d="M212,250.2c0,0,0.3-0.8,0.5-0.8c0.2,0.1,1.6,0.9,3.6,0c0,0,0.1-0.2,0.4,0.6c0,0-0.3,1-2.1,1.1
				C212.6,251.2,212,250.2,212,250.2z"/>
		</g>
	</g>
	<g id="Layer_24" class="st0">
		<path class="st27" d="M199.3,407.8h-0.9c-0.8,0-1.4-0.6-1.4-1.4v-30.7c0-0.8,0.6-1.4,1.4-1.4h0.9c0.8,0,1.4,0.6,1.4,1.4v30.7
			C200.7,407.1,200.1,407.8,199.3,407.8z"/>
		<path class="st49" d="M205.2,407.8h-0.7c-0.8,0-1.5-0.7-1.5-1.5V370c0-0.8,0.7-1.5,1.5-1.5h0.7c0.8,0,1.5,0.7,1.5,1.5v36.2
			C206.7,407.1,206,407.8,205.2,407.8z"/>
		<path class="st27" d="M223.3,407.8h-0.9c-0.8,0-1.4-0.6-1.4-1.4v-30.7c0-0.8,0.6-1.4,1.4-1.4h0.9c0.8,0,1.4,0.6,1.4,1.4v30.7
			C224.7,407.1,224.1,407.8,223.3,407.8z"/>
		<path class="st49" d="M229.2,407.8h-0.7c-0.8,0-1.5-0.7-1.5-1.5V370c0-0.8,0.7-1.5,1.5-1.5h0.7c0.8,0,1.5,0.7,1.5,1.5v36.2
			C230.7,407.1,230,407.8,229.2,407.8z"/>
		<path class="st27" d="M211.4,407.8h-1.2c-0.7,0-1.3-0.6-1.3-1.3v-25.8c0-0.7,0.6-1.3,1.3-1.3h1.2c0.7,0,1.3,0.6,1.3,1.3v25.8
			C212.7,407.2,212.1,407.8,211.4,407.8z"/>
		<path class="st49" d="M217.4,407.8h-1c-0.7,0-1.3-0.6-1.3-1.3v-28.1c0-0.7,0.6-1.3,1.3-1.3h1c0.7,0,1.3,0.6,1.3,1.3v28.1
			C218.7,407.2,218.1,407.8,217.4,407.8z"/>
	</g>
	<g id="Layer_26_copy">
		<circle class="st18" cx="217.4" cy="379" r="14.7"/>
		<path class="st50" d="M215.9,378.8V363c-9.7,0-17.6,7.9-17.6,17.6c0,9.7,7.9,17.6,17.6,17.6c9.7,0,17.6-7.9,17.6-17.6h-17.6V378.8
			z"/>
		<path class="st3" d="M310.1,377.8h-64.3c-2.5,0-4.6-2-4.6-4.6l0,0c0-2.5,2-4.6,4.6-4.6h64.3c2.5,0,4.6,2,4.6,4.6l0,0
			C314.6,375.8,312.6,377.8,310.1,377.8z"/>
		<path class="st3" d="M332.1,384.5h-22.1h-42.2h-22.1c-2.5,0-4.6,2-4.6,4.6c0,2.5,2,4.6,4.6,4.6h22.1h42.2h22.1
			c2.5,0,4.6-2,4.6-4.6C336.7,386.5,334.7,384.5,332.1,384.5z"/>
	</g>
	<g id="Layer_21" class="st0">
		<path class="st51" d="M395,419l-7.5,0.2c1.9-0.6,2,10.6,2,10.6l18.2-0.6c2.5-0.3-1.6-2.1-1.6-2.1c-8.4-2-11-8.1-11-8.1L395,419z"
			/>
		<polygon class="st14" points="389.5,429.9 389.5,430.9 408.5,430.4 408.4,429 		"/>
		<circle class="st14" cx="392.2" cy="426.3" r="1.7"/>
		<path class="st51" d="M369.1,422.9l-5.4-2.5c1.6,0.2-2.4,8.3-2.4,8.3l13.1,6.1c1.9,0.7-0.4-2.1-0.4-2.1
			C368.8,428.3,369.1,423,369.1,422.9L369.1,422.9z"/>
		<polygon class="st14" points="361.3,428.8 361,429.5 374.7,435.9 375.1,434.9 		"/>
		<circle class="st14" cx="364.5" cy="427.1" r="1.3"/>
		<path class="st52" d="M377.1,268.2c0,0-3.5-2.1-1.5-7c2-4.8-6.3-4.8-6.3-4.8s-2.9,4.5-5.4,12.6c-2.4,8,13.1,0,13.1,0V268.2z"/>
		<path class="st53" d="M367.9,256.4c0,0,5.4,10.8,12.4,7.4s5.8-14.7,3.5-18.2s-13.4-3.2-13.4-3.2l-5.8,5.2l1.2,5.8L367.9,256.4z"/>
		<path class="st54" d="M368.3,258.2c0,0-1.1,4-2.1,2.5c-0.9-1.5,0-2.7-1.6-5.1c-1.6-2.4-6.2-18.9,9.4-18.9c3.1,0,9.9,1.5,13.5,0.8
			c3.6-0.7,4.1,9-4.1,8.6s-13,0.7-13,4.1s-2.1-0.7-2.1-0.7S369.2,256.1,368.3,258.2z"/>
		<g class="st1">
			<g>
				<path class="st33" d="M400.3,275.1c0.6,0,0.6-1,0-1C399.6,274.1,399.6,275.1,400.3,275.1L400.3,275.1z"/>
			</g>
		</g>
		<linearGradient id="SVGID_8_" gradientUnits="userSpaceOnUse" x1="375.7232" y1="394.1978" x2="367.8913" y2="334.5123">
			<stop  offset="0.3739" style="stop-color:#FFC60E"/>
			<stop  offset="0.4335" style="stop-color:#FEBE12"/>
			<stop  offset="0.5394" style="stop-color:#FCB416"/>
			<stop  offset="0.6745" style="stop-color:#FBAE18"/>
			<stop  offset="0.9359" style="stop-color:#FBAD18"/>
		</linearGradient>
		<path class="st55" d="M381.7,383.8c0,0,0.5-2.1,0.9-4.6c0-17.3,0-34.7,0-52l-4.8,1.1l-21.7,0.8c3.1,18.1,6.2,36.1,9.4,54.2
			c-0.6,12.6-1.2,25.2-1.9,37.8l5.8,3.2C373.4,410.8,377.6,397.3,381.7,383.8L381.7,383.8z"/>
		<path class="st56" d="M364,374.7c0,0,1.4,9.3,1,19.3c-0.5,9.9,5.7,6.5,5.7,6.5l-0.7-25.3l-4.4-4.1L364,374.7z"/>
		<linearGradient id="SVGID_9_" gradientUnits="userSpaceOnUse" x1="385.7836" y1="407.7136" x2="376.1618" y2="341.565">
			<stop  offset="2.149395e-03" style="stop-color:#FFC60E"/>
			<stop  offset="7.611637e-02" style="stop-color:#FFC211"/>
			<stop  offset="0.3308" style="stop-color:#FDB615"/>
			<stop  offset="0.6175" style="stop-color:#FCAF17"/>
			<stop  offset="1" style="stop-color:#FBAD18"/>
		</linearGradient>
		<path class="st57" d="M389.8,326.6l8,38.6c0,0,2.4,11.2,1.5,25.8c-0.9,14.5-1.7,29.5-1.7,29.5l-9.9,1.1c0,0-4.2-44.3-5.9-47.5
			c-1.7-3.3-25.5-44-25.5-44s-1.4-5.2,0.9-5.5S389.8,326.6,389.8,326.6z"/>
		<path class="st56" d="M377.4,267.4c0,0-9.6,0.8-12-2c0,0-22.7,6.4-19.4,19.3c3.3,12.8,10.1,38.5,9.7,43.7c-0.4,5.2,35.3-2,35.3-2
			l-2.4-37C388.6,289.4,387.8,274.2,377.4,267.4z"/>
		<path class="st58" d="M393.9,291.4h6.3c0.8,0,1.4-0.6,1.4-1.4V274c0-0.8-0.6-1.4-1.4-1.4h-6.3c-0.8,0-1.4,0.6-1.4,1.4V290
			C392.5,290.7,393.1,291.4,393.9,291.4z"/>
		<path class="st53" d="M403,293.6c0,0-4.4-4.2-3.6-9.5s3-4.1,6.1,7.6C408.7,303.5,403,293.6,403,293.6z"/>
		<linearGradient id="SVGID_10_" gradientUnits="userSpaceOnUse" x1="379.583" y1="287.749" x2="413.281" y2="287.749">
			<stop  offset="0" style="stop-color:#FFC60E"/>
			<stop  offset="0.6562" style="stop-color:#FBAD18"/>
		</linearGradient>
		<path class="st59" d="M412.5,298.1l-7-8.7c-1.2,0.8-2.5,1.6-3.7,2.5c0,0,0,0.1,0,0.1c-0.2-0.4-0.4-0.7-0.7-1.1
			c-0.5,0.4-1.3,0.5-1.3,0.5s-3.3,0-5.3,0s-2-1.4-2-1.4v-4.8l1.2-2.1c-3.6-3.5-7.1-7-10.7-10.4l-3.4,2.2l1,12.9c0,0,14,13,25.1,14.8
			C416.7,304.3,412.5,298.1,412.5,298.1z"/>
		<path class="st53" d="M395,281.5c0,0-1.2,8.2-5.6,10.6s-4.2-1.2-4.2-1.2S395.2,275.8,395,281.5z"/>
		
			<linearGradient id="SVGID_11_" gradientUnits="userSpaceOnUse" x1="607.5562" y1="293.7131" x2="649.2932" y2="293.7131" gradientTransform="matrix(-1 0 0 1 997.774 0)">
			<stop  offset="0.4886" style="stop-color:#FBAD18"/>
			<stop  offset="0.8768" style="stop-color:#FFC60E"/>
		</linearGradient>
		<path class="st60" d="M356.7,281.7l6.2,14.8c0,0-0.4,6.4,22.9-7.4l4.4,3.8c0,0-11.4,15.5-25.7,16.1c-14.2,0.6-16.1-15-16.1-15
			l3-15.5L356.7,281.7z"/>
		<path class="st52" d="M392.4,281.6"/>
	</g>
</g>
<g id="Layer_3">
	<path class="st17" d="M107.3,443.4c0.5,1.1,1.5,2.5,3.2,3.7c3.2,2,5.9,0.6,7.6,3.1c0.5,0.8,1.2,2.3,0.7,3.1
		c-0.2,0.6-0.7,1.4-4.9,1.7c-2.2,0.3-3.7,0-6.6,0c-5.6-0.3-6.4-0.3-6.9-1.1c-1.2-1.7-0.7-4.2,0-7.3c0.2-1.7,0.7-3.1,1.2-4.2
		L107.3,443.4z"/>
	<path class="st17" d="M144.6,443.2c1.2,1.4,3.1,3.1,5.8,4.2c4.6,1.7,8.6,0.3,10.1,2.5c0.9,1.1,0,2.8,0,2.8s-1.5,2.8-8.3,2.5
		c-0.3,0-0.3,0-0.9,0c-7.4-0.6-10.8,0.8-12.6-1.1c-0.3-0.3-0.9-0.8-1.2-2.3c0.6-2.8,1.2-5.9,1.8-8.7
		C141.3,443.2,143.1,443.2,144.6,443.2z"/>
	<path class="st30" d="M99.3,210.6c-4.4,3.7-11.3,9.6-18.6,18.3c-11,13-18.1,21.1-18.9,33.2c-0.5,9.9,3.7,17.5,6.9,23.7
		c9.8,17.8,24.8,25.6,32.4,28.7c2-3.1,4.2-5.9,6.1-9c-15.7-7-26.5-19.7-27.2-33c0-2.3-0.2-7.3,2-12.7c2.7-6.5,6.6-7.9,14.2-15.8
		c2.5-2.5,5.9-6.2,9.6-11.3c0.5-5.1,1.2-10.1,1.7-15.2c-0.5-1.1-1.5-2.8-3.2-4.5C102.4,211.8,100.5,210.9,99.3,210.6z"/>
	<path class="st61" d="M142.4,305.6c1,4.5,1.7,8.7,2.7,13.2c3.7,15.2,7.4,35.2,8.1,58.9c1,26.5-1.7,48.7-4.9,65.4
		c-0.7,0.6-1.7,1.1-2.9,1.7c-2.9,1.1-5.6,0.8-7.1,0.6c-0.5-22-2.5-40.3-4.4-53.3c-3.4-22-5.4-35.2-13-50.4
		c-7.1-14.4-15.9-24.2-22.1-29.9c1-3.9,4.2-12.4,11.5-18c11.3-8.5,28.7-7.6,32.6,1.1C143.6,296.3,144.4,299.7,142.4,305.6z"/>
	<path class="st61" d="M109.3,444.8c3.2-13.8,6.1-28.7,8.3-44.5c5.6-40.3,5.6-76.4,3.7-106.5c-6.1,0-12.3-0.3-18.4-0.3
		c-1.7,1.4-4.4,3.9-6.4,8.2c-1.7,3.7-2.2,7.3-2.5,12.7c-0.2,5.6,0,13.8,1.7,24c1.2,9.6,2,17.5,2.2,23.4c0.2,3.9,0.2,7.3,0.5,10.7
		C98.8,382,98.3,389,98,391c-0.5,7.3-0.5,22,0.7,53.3C102.4,444.2,105.9,444.5,109.3,444.8z"/>
	<path class="st31" d="M201,206.3l5.1-10.2c1.1-2,0.4-4.6-1.3-5.9l-0.9-0.5c-1.8-1.3-4-0.5-5.1,1.5l-5.1,10.2
		c-1.1,2-0.4,4.6,1.3,5.9l0.9,0.5C197.9,209.1,200.1,208.3,201,206.3z"/>
	<g>
		<g class="st29">
			<path d="M93.9,308.7c5.9,0.3,12,0.6,18.4,0.6c11,0,21.6-0.3,31.4-1.1c0.7-5.1,1.7-12.7,1.7-22c0-15.8-2.2-26.5,0.5-27.6
				c2-0.8,3.9,4.2,8.8,7c10.8,5.9,26-6.8,28.2-8.5c19.4-16.3,19.6-47.3,19.4-52.4c-2.9-1.4-5.6-2.8-8.6-3.9
				c-13.2,31.8-21.6,37.5-26.5,36.6c-5.4-0.8-6.9-9.6-15.7-18c-9.1-8.7-19.4-11.3-26.7-12.1c0,0-12,1.1-13.7,0
				c-3.9,0-9.8,1.1-13.5,5.9c-4.7,5.6-3.9,13.5-3.2,26.2c0.5,9,1,22.3,1.2,38.6C94.8,288.1,94.4,298.3,93.9,308.7z"/>
		</g>
		<g>
			<path class="st30" d="M93.9,308.7c5.9,0.3,12,0.6,18.4,0.6c11,0,21.6-0.3,31.4-1.1c0.7-5.1,1.7-12.7,1.7-22
				c0-15.8-2.2-26.5,0.5-27.6c2-0.8,3.9,4.2,8.8,7c10.8,5.9,26-6.8,28.2-8.5c19.4-16.3,19.6-47.3,19.4-52.4
				c-2.9-1.4-5.6-2.8-8.6-3.9c-13.2,31.8-21.6,37.5-26.5,36.6c-5.4-0.8-6.9-9.6-15.7-18c-9.1-8.7-19.4-11.3-26.7-12.1
				c0,0-12,1.1-13.7,0c-3.9,0-9.8,1.1-13.5,5.9c-4.7,5.6-3.9,13.5-3.2,26.2c0.5,9,1,22.3,1.2,38.6C94.8,288.1,94.4,298.3,93.9,308.7
				z"/>
		</g>
	</g>
	<path class="st62" d="M31.4,319.2l9,6.1c1.8,1.3,4.3,1,5.7-0.5l0.6-0.8c1.4-1.5,1-3.7-0.8-5l-9-6.1c-1.8-1.3-4.3-1-5.7,0.5
		l-0.6,0.8C29.2,315.9,29.6,318.1,31.4,319.2z"/>
	<path class="st31" d="M125.7,207l1-4.5c0,0,10.1,6.5,10.1-12.7c0,0,0-14.9-5.6-15.8c0,0-16.7-6.5-17.4,4.2l-2,11.6l1,10.7
		c0,0-1,6.5-2,6.5C111,206.7,120.8,210.4,125.7,207z"/>
	<path class="st30" d="M136.8,178.2c2-6.2,1.5-12.4-1.5-15.2c-2.9-3.1-7.4-2.8-13.2-0.6c-23.1,8.5-17.4,11.6-14.7,23.4
		c2.7,11.8,2,15.8,9.3,13.8c7.4-2.3,15.7,1.1,12-7.3c-3.7-8.5,2-11.6,4.7-7.3s-1-6.5-1-6.5c0.2-0.3,1-0.6,1.7-0.8
		C135.3,177.4,136.5,178,136.8,178.2z"/>
</g>
<g id="Layer_25" class="st0">
	<circle class="st63" cx="255.7" cy="317.5" r="20"/>
	<circle class="st64" cx="269.7" cy="276" r="11.9"/>
</g>
<g id="Layer_4">
	<g>
		<g id="Layer_11_3_">
			<path class="st61" d="M385.6,412.2l-5.8,8.4l-0.7-4.2c-2-16-20.1-22.3-20.1-22.3c-6.3-28.7,23-32,23-32
				c25.8-1.9,11.4,11.8,11.4,11.8c-11.7,12.2-9.6,31.9-9.6,31.9L385.6,412.2z"/>
			
				<linearGradient id="SVGID_12_" gradientUnits="userSpaceOnUse" x1="-32.1507" y1="-3045.7432" x2="1.7328" y2="-3045.7432" gradientTransform="matrix(-1 0 0 -1 394.3472 -2596)">
				<stop  offset="0.1011" style="stop-color:#DDDDDD"/>
				<stop  offset="0.985" style="stop-color:#505050"/>
			</linearGradient>
			<rect x="392.6" y="443.9" class="st65" width="33.9" height="11.7"/>
			<path class="st66" d="M408.7,416c-10.6-3.9-20.5,12.1-21.1,13.3h-0.1h-5.5c-0.1,0-0.1-0.1-0.1-0.1c-4.2-9.2,0.9-20.8,1.7-22.7
				c0.1-0.3,0.1-0.4,0.3-0.6c10.9-14.6,26.7-8.2,34.8-1.5c0.3,0.1,1.5,1.7,1.6,1.9C433.3,423.1,408.9,416,408.7,416L408.7,416z"/>
			<path class="st67" d="M383.1,429.2c3.3-30.3,29.3-21.8,29.3-21.8"/>
			<path class="st68" d="M377.3,408.7c-15-32.2,5-41.7,5-41.7"/>
			<path class="st69" d="M380.8,429.1L380.8,429.1h-5.4c0,0-0.7,3.3-0.7,0c-0.1-3.1-8-11.4-8-11.4c-6.6-7.7-22.9-9-22.9-9
				c-8.7-1-6.1-8.2-6.1-8.2c1.5-5.7,11.4-5.8,11.4-5.8c15.4-2.9,25.3,10.2,25.3,10.2C380.9,412.6,380.8,429.1,380.8,429.1
				L380.8,429.1z"/>
			<path class="st70" d="M366.9,432.3c0-1.6,1.3-3.1,3.2-3.1h4.7h17c1.6,0,3.2,1.3,3.2,3.1l-2.6,25l-23-0.7L366.9,432.3z"/>
			<path class="st71" d="M377.7,429.2c-6.7-30.9-31.3-26.9-31.3-26.9"/>
		</g>
	</g>
</g>
<g id="Layer_14" class="st0">
	
		<linearGradient id="SVGID_13_" gradientUnits="userSpaceOnUse" x1="361.0102" y1="46.102" x2="212.6015" y2="228.9245" gradientTransform="matrix(1 0 0 -1 0 500)">
		<stop  offset="0.4398" style="stop-color:#F99E22"/>
		<stop  offset="0.838" style="stop-color:#FDC212"/>
		<stop  offset="0.9804" style="stop-color:#FBAD1A"/>
	</linearGradient>
	<path class="st72" d="M168.2,319.7l26-13.5c61.7,114.7,87.7,133,101.2,129.2c15.4-4.8,22.2-43.4,20.2-71.3
		c-1.9-24.1-9.6-28-10.6-51.1c-1-28,9.6-63.6,25.1-66.5c15.4-1.9,32.8,29.9,40.5,46.3c15.4,28.9,19.3,54.9,20.2,66.5
		c5.8,51.1,12.5,98.3-20.2,127.2c-35.7,31.8-99.3,24.1-133-4.8c-10.6-8.7-15.4-18.3-25.1-35.7c-14.5-26-17.3-44.3-36.6-101.2
		C173,333.2,170.1,324.5,168.2,319.7z"/>
</g>
</svg>
