<?xml version="1.0" encoding="utf-8"?>
<!-- Generator: Adobe Illustrator 23.0.3, SVG Export Plug-In . SVG Version: 6.00 Build 0)  -->
<svg version="1.1" xmlns="http://www.w3.org/2000/svg" xmlns:xlink="http://www.w3.org/1999/xlink" x="0px" y="0px"
	 viewBox="0 0 500 500" style="enable-background:new 0 0 500 500;" xml:space="preserve">
<style type="text/css">
	.st0{display:none;}
	.st1{display:none;fill:#E5E5E5;}
	.st2{fill:#E5E5E5;}
	.st3{fill:#7CC793;}
	.st4{opacity:0.19;fill:url(#SVGID_1_);enable-background:new    ;}
	.st5{fill:#293A88;}
	.st6{fill:none;stroke:#69B8E7;stroke-width:0.3666;stroke-miterlimit:10;}
	.st7{fill:none;stroke:#38B778;stroke-width:0.3666;stroke-miterlimit:10;}
	.st8{fill:#FED874;}
	.st9{fill:#398BCA;}
	.st10{fill:none;stroke:#EDBF48;stroke-width:0.3666;stroke-miterlimit:10;}
	.st11{fill:url(#SVGID_2_);}
	.st12{fill:url(#SVGID_3_);}
	.st13{display:inline;fill:#DBECFA;}
	.st14{display:inline;fill:url(#SVGID_4_);}
	.st15{fill:#143352;}
	.st16{fill:url(#SVGID_5_);}
	.st17{fill:none;stroke:#FFFFFF;stroke-width:2;stroke-miterlimit:10;}
	.st18{display:none;fill:none;stroke:#FFFFFF;stroke-width:2;stroke-miterlimit:10;}
	.st19{fill:#FFFFFF;}
	.st20{fill:#202557;}
	.st21{fill:url(#SVGID_6_);}
	.st22{fill:#1F81C5;}
	.st23{fill:#D5B694;}
	.st24{opacity:0;}
	.st25{fill:url(#SVGID_7_);}
	.st26{display:none;fill:#D5B694;}
	.st27{display:inline;fill:url(#SVGID_8_);}
</style>
<g id="Layer_2" class="st0">
</g>
<g id="Layer_6">
	<ellipse class="st1" cx="441.6" cy="357.5" rx="37.3" ry="7.2"/>
	<ellipse class="st2" cx="276.5" cy="357" rx="127.5" ry="5.4"/>
	<ellipse class="st2" cx="104.7" cy="435.5" rx="45.4" ry="5.4"/>
</g>
<g id="Layer_4">
	<g>
		<g id="Layer_11">
			<path class="st3" d="M445.5,318.9c0,0,1.7-16-7.8-25.9c0,0-11.7-11.1,9.2-9.6c0,0,23.8,2.7,18.7,26.1c0,0-14.7,5.1-16.3,18.1
				l-0.6,3.4l-4.7-6.9L445.5,318.9z"/>
			
				<linearGradient id="SVGID_1_" gradientUnits="userSpaceOnUse" x1="-88.93" y1="-2950.6399" x2="-61.3675" y2="-2950.6399" gradientTransform="matrix(1 0 0 -1 499.6444 -2596)">
				<stop  offset="0.1011" style="stop-color:#DDDDDD"/>
				<stop  offset="0.985" style="stop-color:#505050"/>
			</linearGradient>
			<rect x="410.7" y="349.9" class="st4" width="27.6" height="9.5"/>
			<path class="st5" d="M425.2,327.2c-0.1,0-20,5.8-9.4-7.9c0.1-0.1,1.1-1.4,1.3-1.5c6.6-5.4,19.4-10.7,28.3,1.2
				c0.1,0.1,0.1,0.2,0.2,0.5c0.7,1.5,4.9,11,1.4,18.5c0,0,0,0.1-0.1,0.1h-4.5h-0.1C441.9,337,433.8,324,425.2,327.2L425.2,327.2z"/>
			<path class="st6" d="M422.2,320.2c0,0,21.1-6.9,23.8,17.8"/>
			<path class="st7" d="M446.7,287.4c0,0,16.2,7.7,4,33.9"/>
			<path class="st8" d="M447.9,337.8c0,0-0.1-13.4,5.2-19.7c0,0,8.1-10.7,20.6-8.3c0,0,8.1,0.1,9.2,4.7c0,0,2.1,5.8-5,6.6
				c0,0-13.3,1.1-18.6,7.3c0,0-6.4,6.8-6.5,9.2c0,2.7-0.6,0-0.6,0H447.9L447.9,337.8L447.9,337.8z"/>
			<path class="st9" d="M457.2,360.2l-18.7,0.6l-2.1-20.4c0-1.4,1.3-2.5,2.6-2.5h13.9h3.8c1.5,0,2.6,1.2,2.6,2.5L457.2,360.2z"/>
			<path class="st10" d="M475.9,316c0,0-20-3.2-25.5,21.9"/>
		</g>
	</g>
</g>
<g id="Layer_5">
	<linearGradient id="SVGID_2_" gradientUnits="userSpaceOnUse" x1="258.6061" y1="327.6989" x2="293.731" y2="327.6989">
		<stop  offset="0.3569" style="stop-color:#3E98D3"/>
		<stop  offset="0.8526" style="stop-color:#4EA3DA"/>
	</linearGradient>
	<rect x="258.6" y="297.5" class="st11" width="35.1" height="60.4"/>
	<linearGradient id="SVGID_3_" gradientUnits="userSpaceOnUse" x1="127.2693" y1="191.5029" x2="429.927" y2="191.5029">
		<stop  offset="0.3569" style="stop-color:#3E98D3"/>
		<stop  offset="0.8526" style="stop-color:#4EA3DA"/>
	</linearGradient>
	<path class="st12" d="M423.7,300.6H133.5c-3.3,0-6.2-2.8-6.2-6.2V88.7c0-3.5,2.8-6.2,6.2-6.2h290.2c3.3,0,6.2,2.8,6.2,6.2v205.5
		C429.9,297.6,427,300.6,423.7,300.6z"/>
</g>
<g id="Layer_5_copy" class="st0">
	<rect x="260.5" y="290.2" class="st13" width="31.8" height="54.7"/>
	
		<linearGradient id="SVGID_4_" gradientUnits="userSpaceOnUse" x1="141.5192" y1="2162.2026" x2="415.6771" y2="2162.2026" gradientTransform="matrix(1 0 0 1 0 -1968)">
		<stop  offset="5.586533e-02" style="stop-color:#3E98D3"/>
		<stop  offset="0.1592" style="stop-color:#489ED7"/>
		<stop  offset="0.4867" style="stop-color:#4EA3DA"/>
	</linearGradient>
	<path class="st14" d="M410,293H147.2c-3,0-5.7-2.5-5.7-5.7V101.1c0-3.1,2.5-5.7,5.7-5.7H410c3,0,5.7,2.5,5.7,5.7v186.1
		C415.7,290.3,413,293,410,293z"/>
</g>
<g id="Layer_7">
	<rect x="139.9" y="96.3" class="st15" width="277.1" height="192.1"/>
</g>
<g id="Layer_8">
	
		<linearGradient id="SVGID_5_" gradientUnits="userSpaceOnUse" x1="214.3859" y1="1322.5472" x2="338.2495" y2="1322.5472" gradientTransform="matrix(1 0 0 1 0 -968)">
		<stop  offset="5.586533e-02" style="stop-color:#3E98D3"/>
		<stop  offset="0.1592" style="stop-color:#489ED7"/>
		<stop  offset="0.4867" style="stop-color:#4EA3DA"/>
	</linearGradient>
	<path class="st16" d="M334.7,357.9H217.5c-1.9,0-3.3-1.4-3.3-3.3l0,0c0-1.9,1.4-3.3,3.3-3.3h117.2c1.9,0,3.3,1.4,3.3,3.3l0,0
		C338,356.5,336.6,357.9,334.7,357.9z"/>
</g>
<g id="Layer_9">
	<path class="st17" d="M188.9,225.3h-23.3c-1,0-1.8-0.8-1.8-1.8v-23.3c0-1,0.8-1.8,1.8-1.8h23.3c1,0,1.8,0.8,1.8,1.8v23.3
		C190.6,224.5,189.8,225.3,188.9,225.3z"/>
	<polyline class="st18" points="171.5,210 174.8,215.2 184.3,208.9 	"/>
</g>
<g id="Layer_9_copy">
	<path class="st17" d="M188.9,186.5h-23.3c-1,0-1.8-0.8-1.8-1.8v-23.3c0-1,0.8-1.8,1.8-1.8h23.3c1,0,1.8,0.8,1.8,1.8v23.3
		C190.6,185.7,189.8,186.5,188.9,186.5z"/>
	<polyline class="st17" points="170.1,170.8 173.8,176.6 184.3,169.6 	"/>
	<path class="st17" d="M188.9,264.2h-23.3c-1,0-1.8-0.8-1.8-1.8v-23.3c0-1,0.8-1.8,1.8-1.8h23.3c1,0,1.8,0.8,1.8,1.8v23.3
		C190.6,263.4,189.8,264.2,188.9,264.2z"/>
	<polyline class="st18" points="171.5,245 174.8,250.2 184.3,243.9 	"/>
	<path class="st17" d="M188.9,148.8h-23.3c-1,0-1.8-0.8-1.8-1.8v-23.3c0-1,0.8-1.8,1.8-1.8h23.3c1,0,1.8,0.8,1.8,1.8V147
		C190.6,148,189.8,148.8,188.9,148.8z"/>
	<polyline class="st17" points="170.1,133.1 173.8,138.9 184.3,131.9 	"/>
</g>
<g id="Layer_11_copy">
	<path class="st19" d="M376.6,223.9h-174c-2,0-3.7-1.6-3.7-3.7l0,0c0-2,1.6-3.7,3.7-3.7h174c2,0,3.7,1.6,3.7,3.7l0,0
		C380.3,222.3,378.7,223.9,376.6,223.9z"/>
	<path class="st19" d="M376.6,208.1h-174c-2,0-3.7-1.6-3.7-3.7v0c0-2,1.6-3.7,3.7-3.7h174c2,0,3.7,1.6,3.7,3.7v0
		C380.3,206.5,378.7,208.1,376.6,208.1z"/>
	<path class="st19" d="M390.7,263.4H202.9c-2.2,0-4-1.8-4-4l0,0c0-2.2,1.8-4,4-4h187.8c2.2,0,4,1.8,4,4l0,0
		C394.7,261.6,392.9,263.4,390.7,263.4z"/>
	<path class="st19" d="M390.7,246.4H202.9c-2.2,0-4-1.8-4-4v0c0-2.2,1.8-4,4-4h187.8c2.2,0,4,1.8,4,4v0
		C394.7,244.6,392.9,246.4,390.7,246.4z"/>
</g>
<g id="Layer_11_1_">
	<path class="st19" d="M390.7,186.9H202.9c-2.2,0-4-1.8-4-4v0c0-2.2,1.8-4,4-4h187.8c2.2,0,4,1.8,4,4v0
		C394.7,185.1,392.9,186.9,390.7,186.9z"/>
	<path class="st19" d="M390.7,169.9H202.9c-2.2,0-4-1.8-4-4v0c0-2.2,1.8-4,4-4h187.8c2.2,0,4,1.8,4,4v0
		C394.7,168.1,392.9,169.9,390.7,169.9z"/>
</g>
<g id="Layer_11_copy_2">
	<path class="st19" d="M376.6,147.3h-174c-2,0-3.7-1.6-3.7-3.7l0,0c0-2,1.6-3.7,3.7-3.7h174c2,0,3.7,1.6,3.7,3.7l0,0
		C380.3,145.7,378.7,147.3,376.6,147.3z"/>
	<path class="st19" d="M376.6,131.6h-174c-2,0-3.7-1.6-3.7-3.7v0c0-2,1.6-3.7,3.7-3.7h174c2,0,3.7,1.6,3.7,3.7v0
		C380.3,129.9,378.7,131.6,376.6,131.6z"/>
</g>
<g id="Layer_3">
	<path class="st20" d="M82.3,424.5c0.5,1.1,1.5,2.5,3.2,3.7c3.2,2,5.9,0.6,7.6,3.1c0.5,0.8,1.2,2.2,0.7,3.1
		c-0.2,0.6-0.7,1.4-4.9,1.7c-2.2,0.3-3.7,0-6.6,0c-5.6-0.3-6.4-0.3-6.9-1.1c-1.2-1.7-0.7-4.2,0-7.3c0.2-1.7,0.7-3.1,1.2-4.2
		L82.3,424.5z"/>
	<path class="st20" d="M119.5,424.3c1.2,1.4,3.1,3.1,5.8,4.2c4.6,1.7,8.6,0.3,10.1,2.5c0.9,1.1,0,2.8,0,2.8s-1.5,2.8-8.3,2.5
		c-0.3,0-0.3,0-0.9,0c-7.4-0.6-10.7,0.8-12.6-1.1c-0.3-0.3-0.9-0.8-1.2-2.2c0.6-2.8,1.2-5.9,1.8-8.7
		C116.1,424.3,118,424.3,119.5,424.3z"/>
	<linearGradient id="SVGID_6_" gradientUnits="userSpaceOnUse" x1="75.0217" y1="296.1859" x2="52.7672" y2="192.6343">
		<stop  offset="0" style="stop-color:#F99F24"/>
		<stop  offset="1" style="stop-color:#FCBD17"/>
	</linearGradient>
	<path class="st21" d="M74.2,192.2c-4.4,3.7-11.3,9.6-18.6,18.3c-11,12.9-18.1,21.1-18.8,33.2c-0.5,9.8,3.7,17.4,6.9,23.6
		c9.8,17.7,24.7,25.6,32.3,28.7c2-3.1,4.2-5.9,6.1-9c-15.7-7-26.4-19.7-27.2-32.9c0-2.2-0.2-7.3,2-12.7c2.7-6.5,6.6-7.9,14.2-15.7
		c2.4-2.5,5.9-6.2,9.5-11.2c0.5-5.1,1.2-10.1,1.7-15.2c-0.5-1.1-1.5-2.8-3.2-4.5C77.4,193.4,75.4,192.5,74.2,192.2z"/>
	<path class="st22" d="M117.3,287c1,4.5,1.7,8.7,2.7,13.2c3.7,15.2,7.3,35.2,8.1,58.8c1,26.4-1.7,48.6-4.9,65.2
		c-0.7,0.6-1.7,1.1-2.9,1.7c-2.9,1.1-5.6,0.8-7.1,0.6c-0.5-21.9-2.4-40.2-4.4-53.1c-3.4-21.9-5.4-35.2-13-50.3
		c-7.1-14.3-15.9-24.2-22-29.8c1-3.9,4.2-12.4,11.5-18c11.3-8.4,28.6-7.6,32.6,1.1C118.5,277.7,119.2,281.1,117.3,287z"/>
	<path class="st22" d="M84.2,425.9c3.2-13.8,6.1-28.7,8.3-44.4c5.6-40.2,5.6-76.2,3.7-106.3c-6.1,0-12.2-0.3-18.4-0.3
		c-1.7,1.4-4.4,3.9-6.4,8.2c-1.7,3.7-2.2,7.3-2.4,12.7c-0.2,5.6,0,13.8,1.7,23.9c1.2,9.6,2,17.4,2.2,23.3c0.2,3.9,0.2,7.3,0.5,10.7
		c0.2,9.6-0.2,16.6-0.5,18.6c-0.5,7.3-0.5,21.9,0.7,53.1C77.4,425.3,80.8,425.6,84.2,425.9z"/>
	<path class="st23" d="M175.7,187.9l5.1-10.2c1.1-2,0.4-4.6-1.3-5.8l-0.9-0.5c-1.8-1.3-4-0.5-5.1,1.5l-5.1,10.2
		c-1.1,2-0.4,4.6,1.3,5.8l0.9,0.5C172.6,190.7,174.8,189.9,175.7,187.9z"/>
	<g>
		<g class="st24">
			<path d="M68.8,290.1c5.9,0.3,12,0.6,18.4,0.6c11,0,21.5-0.3,31.3-1.1c0.7-5.1,1.7-12.7,1.7-21.9c0-15.7-2.2-26.4,0.5-27.6
				c2-0.8,3.9,4.2,8.8,7c10.8,5.9,25.9-6.7,28.1-8.4c19.3-16.3,19.6-47.2,19.3-52.3c-2.9-1.4-5.6-2.8-8.6-3.9
				c-13.2,31.8-21.5,37.4-26.4,36.6c-5.4-0.8-6.9-9.6-15.7-18c-9.1-8.7-19.3-11.2-26.7-12.1c0,0-12,1.1-13.7,0
				c-3.9,0-9.8,1.1-13.5,5.9c-4.7,5.6-3.9,13.5-3.2,26.2c0.5,9,1,22.2,1.2,38.5C69.8,269.6,69.3,279.7,68.8,290.1z"/>
		</g>
		<g>
			<linearGradient id="SVGID_7_" gradientUnits="userSpaceOnUse" x1="155.1842" y1="168.6132" x2="61.4406" y2="284.0946">
				<stop  offset="0" style="stop-color:#F99E22"/>
				<stop  offset="0.9121" style="stop-color:#FDC212"/>
			</linearGradient>
			<path class="st25" d="M68.8,290.1c5.9,0.3,12,0.6,18.4,0.6c11,0,21.5-0.3,31.3-1.1c0.7-5.1,1.7-12.7,1.7-21.9
				c0-15.7-2.2-26.4,0.5-27.6c2-0.8,3.9,4.2,8.8,7c10.8,5.9,25.9-6.7,28.1-8.4c19.3-16.3,19.6-47.2,19.3-52.3
				c-2.9-1.4-5.6-2.8-8.6-3.9c-13.2,31.8-21.5,37.4-26.4,36.6c-5.4-0.8-6.9-9.6-15.7-18c-9.1-8.7-19.3-11.2-26.7-12.1
				c0,0-12,1.1-13.7,0c-3.9,0-9.8,1.1-13.5,5.9c-4.7,5.6-3.9,13.5-3.2,26.2c0.5,9,1,22.2,1.2,38.5C69.8,269.6,69.3,279.7,68.8,290.1
				z"/>
		</g>
	</g>
	<path class="st26" d="M72.1,292.5l9.4,6.4c1.9,1.4,4.5,1.1,6-0.5l0.6-0.8c1.5-1.6,1-3.9-0.8-5.3l-9.4-6.4c-1.9-1.4-4.5-1.1-6,0.5
		l-0.6,0.8C69.7,289.1,70.2,291.4,72.1,292.5z"/>
	<path class="st23" d="M100.6,188.6l1-4.5c0,0,10,6.5,10-12.7c0,0,0-14.9-5.6-15.7c0,0-16.6-6.5-17.4,4.2l-2,11.5l1,10.7
		c0,0-1,6.5-2,6.5C86,188.3,95.7,191.9,100.6,188.6z"/>
	<path class="st15" d="M111.7,159.9c2-6.2,1.5-12.4-1.5-15.2c-2.9-3.1-7.3-2.8-13.2-0.6c-23,8.4-17.4,11.5-14.7,23.3
		c2.7,11.8,2,15.7,9.3,13.8c7.3-2.2,15.7,1.1,12-7.3c-3.7-8.4,2-11.5,4.7-7.3c2.7,4.2-1-6.5-1-6.5c0.2-0.3,1-0.6,1.7-0.8
		C110.2,159,111.4,159.6,111.7,159.9z"/>
</g>
<g id="Layer_14" class="st0">
	
		<linearGradient id="SVGID_8_" gradientUnits="userSpaceOnUse" x1="361.0102" y1="46.102" x2="212.6015" y2="228.9245" gradientTransform="matrix(1 0 0 -1 0 500)">
		<stop  offset="0.4398" style="stop-color:#F99E22"/>
		<stop  offset="0.838" style="stop-color:#FDC212"/>
		<stop  offset="0.9804" style="stop-color:#FBAD1A"/>
	</linearGradient>
	<path class="st27" d="M168.2,319.7l26-13.5c61.7,114.7,87.7,133,101.2,129.2c15.4-4.8,22.2-43.4,20.2-71.3
		c-1.9-24.1-9.6-28-10.6-51.1c-1-28,9.6-63.6,25.1-66.5c15.4-1.9,32.8,29.9,40.5,46.3c15.4,28.9,19.3,54.9,20.2,66.5
		c5.8,51.1,12.5,98.3-20.2,127.2c-35.7,31.8-99.3,24.1-133-4.8c-10.6-8.7-15.4-18.3-25.1-35.7c-14.5-26-17.3-44.3-36.6-101.2
		C173,333.2,170.1,324.5,168.2,319.7z"/>
</g>
</svg>
